<svg width="20" height="20" xmlns="http://www.w3.org/2000/svg" xmlns:xlink="http://www.w3.org/1999/xlink"><defs><path d="M18.75 3.98c.339 0 .632.124.879.372A1.2 1.2 0 0 1 20 5.23v13.125c0 .339-.124.632-.371.88a1.2 1.2 0 0 1-.879.37H1.25a1.2 1.2 0 0 1-.879-.37 1.201 1.201 0 0 1-.371-.88V5.23a1.2 1.2 0 0 1 .371-.878c.247-.248.54-.372.879-.372h5V2.77c0-.508.182-.948.547-1.319A1.792 1.792 0 0 1 8.125.895h3.75c.52 0 .964.185 1.328.556.365.371.547.81.547 1.319v1.21h5zM7.5 2.77v1.21h5V2.77a.617.617 0 0 0-.625-.625h-3.75a.6.6 0 0 0-.44.185.6.6 0 0 0-.185.44zM1.25 5.23v4.395h6.875V8.98c0-.338.12-.631.361-.878a1.19 1.19 0 0 1 .889-.372h1.25c.339 0 .632.124.879.372a1.2 1.2 0 0 1 .371.878v.645h6.875V5.23H1.25zm9.375 6.895V8.98h-1.25v3.145h1.25zm-9.375 6.23h17.5v-7.48h-6.875v1.25c0 .352-.124.648-.371.889a1.22 1.22 0 0 1-.879.361h-1.25c-.352 0-.648-.12-.889-.361a1.208 1.208 0 0 1-.361-.889v-1.25H1.25v7.48z" id="a"/></defs><g fill="none" fill-rule="evenodd"><use fill="#000" xlink:href="#a"/><use fill="#FFF" xlink:href="#a"/></g></svg>