<svg width="19" height="20" xmlns="http://www.w3.org/2000/svg" xmlns:xlink="http://www.w3.org/1999/xlink"><defs><path d="M12.571 11.143A3.149 3.149 0 0 0 9.43 8a3.149 3.149 0 0 0-3.143 3.143 3.149 3.149 0 0 0 3.143 3.143 3.149 3.149 0 0 0 3.142-3.143zm1.695 0a4.83 4.83 0 0 1-4.837 4.837 4.83 4.83 0 0 1-4.837-4.837 4.83 4.83 0 0 1 4.837-4.837 4.83 4.83 0 0 1 4.837 4.837zm1.326-5.034c0 .626-.504 1.13-1.13 1.13-.626 0-1.13-.504-1.13-1.13 0-.626.504-1.13 1.13-1.13.626 0 1.13.504 1.13 1.13zm-6.163-2.7c-1.375 0-4.322-.111-5.562.38-.43.172-.749.38-1.08.712a3.01 3.01 0 0 0-.712 1.08c-.491 1.24-.38 4.187-.38 5.562s-.111 4.321.38 5.561c.172.43.38.75.712 1.08.331.332.65.54 1.08.713 1.24.49 4.187.38 5.562.38s4.321.11 5.561-.38c.43-.172.749-.38 1.08-.712.332-.332.54-.651.712-1.08.491-1.24.381-4.187.381-5.562s.11-4.322-.38-5.562a3.015 3.015 0 0 0-.713-1.08 3.015 3.015 0 0 0-1.08-.712c-1.24-.491-4.186-.38-5.561-.38zm9.428 7.734c0 1.301.012 2.59-.061 3.892-.074 1.51-.418 2.848-1.523 3.953-1.104 1.105-2.443 1.448-3.953 1.522-1.301.074-2.59.061-3.891.061-1.302 0-2.59.013-3.892-.061-1.51-.074-2.848-.417-3.953-1.522S.135 16.545.06 15.035c-.072-1.302-.06-2.59-.06-3.892 0-1.301-.012-2.59.061-3.892.074-1.51.418-2.848 1.523-3.953s2.443-1.449 3.953-1.522c1.301-.074 2.59-.062 3.892-.062 1.3 0 2.59-.012 3.891.062 1.51.073 2.849.417 3.953 1.522 1.105 1.105 1.45 2.443 1.523 3.953.073 1.301.061 2.59.061 3.892z" id="a"/></defs><g transform="translate(0 -1)" fill="none" fill-rule="evenodd"><use fill="#000" xlink:href="#a"/><use fill="#FFF" xlink:href="#a"/></g></svg>