<svg width="20" height="17" xmlns="http://www.w3.org/2000/svg"><path d="M18.571 14.643V6.07a6.01 6.01 0 0 1-.77.737c-1.596 1.228-3.203 2.478-4.754 3.772-.837.703-1.875 1.563-3.036 1.563H9.99c-1.16 0-2.199-.86-3.036-1.563C5.402 9.286 3.795 8.036 2.2 6.808a6.01 6.01 0 0 1-.77-.737v8.572c0 .19.167.357.357.357h16.428c.19 0 .357-.167.357-.357zm0-11.73c0-.28.067-.77-.357-.77H1.786a.367.367 0 0 0-.357.357c0 1.272.636 2.377 1.64 3.17a692.045 692.045 0 0 1 4.476 3.538c.591.48 1.663 1.506 2.444 1.506h.022c.781 0 1.853-1.027 2.444-1.506a692.044 692.044 0 0 1 4.476-3.538c.725-.57 1.64-1.808 1.64-2.757zM20 2.5v12.143c0 .982-.804 1.786-1.786 1.786H1.786A1.791 1.791 0 0 1 0 14.643V2.5C0 1.518.804.714 1.786.714h16.428C19.196.714 20 1.518 20 2.5z" fill="#FFF" fill-rule="evenodd"/></svg>