<svg width="18" height="23" xmlns="http://www.w3.org/2000/svg" xmlns:xlink="http://www.w3.org/1999/xlink"><defs><path d="M11.086.375c1.289 0 2.442.222 3.459.666 1.017.444 1.873 1.05 2.567 1.815a7.924 7.924 0 0 1 1.59 2.675 9.461 9.461 0 0 1 .548 3.223c0 1.146-.226 2.317-.677 3.513a22.125 22.125 0 0 1-1.708 3.523 32.14 32.14 0 0 1-2.234 3.276 62.027 62.027 0 0 1-2.256 2.75c0 .015-.107.111-.322.29a1.139 1.139 0 0 1-.752.269h-.065c-.3 0-.555-.09-.762-.269-.208-.179-.312-.275-.312-.29-.745-.859-1.55-1.797-2.417-2.814A32.07 32.07 0 0 1 5.34 15.79a21.05 21.05 0 0 1-1.848-3.47c-.494-1.188-.741-2.377-.741-3.566 0-1.132.222-2.206.666-3.223a8.72 8.72 0 0 1 1.805-2.675 8.53 8.53 0 0 1 2.653-1.815 7.892 7.892 0 0 1 3.212-.666zm.258 20.518a49.402 49.402 0 0 0 2.857-3.567 29.326 29.326 0 0 0 2.041-3.212c.544-1.01.953-1.962 1.225-2.857.272-.895.408-1.73.408-2.503 0-.874-.132-1.73-.397-2.567a6.435 6.435 0 0 0-1.236-2.246c-.558-.658-1.264-1.188-2.116-1.59-.852-.4-1.866-.601-3.04-.601-.945 0-1.84.186-2.686.559a7.113 7.113 0 0 0-2.213 1.514 7.305 7.305 0 0 0-1.503 2.235 6.661 6.661 0 0 0-.559 2.696c0 1.017.215 2.048.645 3.094.43 1.045.973 2.073 1.632 3.083a30.23 30.23 0 0 0 2.17 2.922 295.22 295.22 0 0 0 2.235 2.631l.365.409.086.086a.352.352 0 0 1 .054-.043c.021-.015.032-.03.032-.043zM11.02 4.52c1.146 0 2.12.405 2.922 1.214.802.81 1.203 1.78 1.203 2.911 0 1.146-.4 2.12-1.203 2.922-.802.802-1.776 1.203-2.922 1.203-1.131 0-2.101-.4-2.91-1.203-.81-.802-1.215-1.776-1.215-2.922 0-1.131.405-2.101 1.214-2.91.81-.81 1.78-1.215 2.911-1.215zm0 6.875c.76 0 1.404-.272 1.934-.816.53-.544.795-1.196.795-1.955a2.65 2.65 0 0 0-.806-1.944A2.65 2.65 0 0 0 11 5.875a2.65 2.65 0 0 0-1.944.806 2.65 2.65 0 0 0-.806 1.944c0 .76.272 1.41.816 1.955a2.667 2.667 0 0 0 1.955.816z" id="a"/></defs><g transform="translate(-2)" fill="none" fill-rule="evenodd"><use fill="#000" xlink:href="#a"/><use fill="#FFF" xlink:href="#a"/></g></svg>