<svg width="22" height="22" xmlns="http://www.w3.org/2000/svg" xmlns:xlink="http://www.w3.org/1999/xlink"><defs><path d="M5.629 1.17c.4.559.841 1.196 1.321 1.912s1 1.511 1.558 2.385c.143.229.204.487.182.773-.021.287-.125.595-.311.924-.072.143-.193.372-.365.688l-.666 1.224c.3.43.684.91 1.15 1.44a36.51 36.51 0 0 0 1.621 1.718c.63.63 1.207 1.178 1.73 1.644.522.465.991.849 1.407 1.15.487-.287.891-.52 1.214-.699.322-.179.555-.304.698-.376.172-.1.347-.175.526-.225.18-.05.348-.076.505-.076a1.303 1.303 0 0 1 .666.172c.645.387 1.325.82 2.041 1.3.716.48 1.483 1.006 2.3 1.58.142.1.257.228.343.386.086.157.143.33.172.515a1.8 1.8 0 0 1-.065.613 2.21 2.21 0 0 1-.3.634 2.99 2.99 0 0 1-.258.365c-.115.143-.251.308-.409.494a7.655 7.655 0 0 1-.558.634c-.23.236-.501.497-.817.784a4.44 4.44 0 0 1-.827.644c-.25.144-.469.215-.655.215h-.043c-.745-.028-1.525-.19-2.342-.483-.816-.294-1.676-.713-2.578-1.257a23.817 23.817 0 0 1-2.836-2.041 47.627 47.627 0 0 1-3.094-2.814 42.432 42.432 0 0 1-2.825-3.094 25.558 25.558 0 0 1-2.04-2.836C1.521 8.56 1.102 7.698.815 6.874.53 6.05.372 5.274.344 4.543c0-.2.071-.426.215-.677.143-.25.358-.533.644-.848.287-.316.544-.584.774-.806.229-.222.436-.405.623-.548.171-.129.336-.25.494-.365l.408-.301a1.6 1.6 0 0 1 .494-.247c.172-.05.358-.075.559-.075.229 0 .433.04.612.118.179.079.333.204.462.376zm-1.375.88c-.287.201-.566.42-.838.656-.272.236-.537.483-.795.741s-.462.48-.612.666c-.15.186-.247.344-.29.473.028.644.179 1.332.45 2.062.273.73.667 1.508 1.183 2.331a23.81 23.81 0 0 0 1.912 2.6c.759.91 1.64 1.866 2.642 2.868a43.644 43.644 0 0 0 2.868 2.643c.91.759 1.776 1.396 2.6 1.912.824.516 1.604.91 2.342 1.182.737.272 1.429.43 2.073.472.1-.043.244-.143.43-.3.186-.158.408-.366.666-.624.258-.257.501-.526.73-.805.23-.28.451-.562.666-.849a.508.508 0 0 0 .086-.161.232.232 0 0 0 0-.14 87.043 87.043 0 0 0-2.288-1.568c-.695-.458-1.321-.867-1.88-1.225a.68.68 0 0 0-.193.033 1.5 1.5 0 0 0-.236.096c-.115.072-.33.194-.645.366l-1.225.666-.709.43-.709-.473a15.35 15.35 0 0 1-1.514-1.214 46.258 46.258 0 0 1-1.816-1.73 49.193 49.193 0 0 1-1.697-1.815 16.201 16.201 0 0 1-1.203-1.515l-.516-.666.43-.752a123.272 123.272 0 0 1 1.031-1.869 1.5 1.5 0 0 0 .097-.236.68.68 0 0 0 .032-.194c-.501-.787-.977-1.525-1.429-2.213a99.192 99.192 0 0 0-1.3-1.933h-.042a.584.584 0 0 0-.161.021.496.496 0 0 0-.14.065z" id="a"/></defs><g fill="none" fill-rule="evenodd"><use fill="#000" xlink:href="#a"/><use fill="#FFF" xlink:href="#a"/></g></svg>