<?xml version="1.0" encoding="UTF-8"?>
<svg width="20px" height="15px" viewBox="0 0 20 15" version="1.1" xmlns="http://www.w3.org/2000/svg" xmlns:xlink="http://www.w3.org/1999/xlink">
    <!-- Generator: Sketch 50.2 (55047) - http://www.bohemiancoding.com/sketch -->
    <title></title>
    <desc>Created with Sketch.</desc>
    <defs>
        <linearGradient x1="0%" y1="50%" x2="100%" y2="50%" id="linearGradient-1">
            <stop stop-color="#4776E6" offset="0%"></stop>
            <stop stop-color="#8E54E9" offset="100%"></stop>
        </linearGradient>
        <path d="M20.5145334,7.84850366 C20.5145334,8.15542367 20.3917654,8.46234368 20.170783,8.68332608 L9.61273467,19.2413744 C9.39175227,19.4623568 9.08483226,19.5851248 8.77791225,19.5851248 C8.47099224,19.5851248 8.16407223,19.4623568 7.94308983,19.2413744 L1.82924325,13.1275278 C1.60826085,12.9065454 1.48549284,12.5996254 1.48549284,12.2927054 C1.48549284,11.9857854 1.60826085,11.6788654 1.82924325,11.457883 L3.4988881,9.78823812 C3.71987051,9.56725571 4.02679051,9.44448771 4.33371052,9.44448771 C4.64063053,9.44448771 4.94755054,9.56725571 5.16853295,9.78823812 L8.77791225,13.4098942 L16.8314933,5.34403639 C17.0524757,5.12305398 17.3593957,5.00028598 17.6663157,5.00028598 C17.9732357,5.00028598 18.2801557,5.12305398 18.5011381,5.34403639 L20.170783,7.01368124 C20.3917654,7.23466364 20.5145334,7.54158365 20.5145334,7.84850366 Z" id="path-2"></path>
    </defs>
    <g id="Page-1" stroke="none" stroke-width="1" fill="none" fill-rule="evenodd">
        <g id="check" transform="translate(-1.000000, -5.000000)">
            <g id="">
                <use fill="#000000" xlink:href="#path-2"></use>
                <use fill="url(#linearGradient-1)" xlink:href="#path-2"></use>
            </g>
        </g>
    </g>
</svg>