<?xml version="1.0" encoding="UTF-8"?>
<svg width="57px" height="57px" viewBox="0 0 57 57" version="1.1" xmlns="http://www.w3.org/2000/svg" xmlns:xlink="http://www.w3.org/1999/xlink">
    <!-- Generator: Sketch 50.2 (55047) - http://www.bohemiancoding.com/sketch -->
    <title>money</title>
    <desc>Created with Sketch.</desc>
    <defs>
        <linearGradient x1="0%" y1="50%" x2="100%" y2="50%" id="linearGradient-1">
            <stop stop-color="#EC008C" offset="0%"></stop>
            <stop stop-color="#FC6767" offset="100%"></stop>
        </linearGradient>
    </defs>
    <g id="Page-1" stroke="none" stroke-width="1" fill="none" fill-rule="evenodd">
        <g id="Desktop-HD-Copy" transform="translate(-1039.000000, -1165.000000)" fill="url(#linearGradient-1)" fill-rule="nonzero">
            <g id="Второй-экран" transform="translate(0.000000, 879.000000)">
                <g id="Товар" transform="translate(97.000000, 274.000000)">
                    <g id="Turbo" transform="translate(877.000000, 0.000000)">
                        <g id="Выгодное-предложение" transform="translate(50.000000, 0.000000)">
                            <g id="Картинка-и-текст" transform="translate(15.000000, 12.000000)">
                                <g id="money">
                                    <path d="M24.2548628,2.06227869 L25.2787297,3.63585246 C29.0235468,1.32361475 33.7795509,1.32361475 37.524368,3.63585246 L38.5482349,2.06227869 C34.1921788,-0.687387295 28.6109189,-0.687387295 24.2548628,2.06227869 Z" id="Shape"></path>
                                    <path d="M20.0266715,13.0810328 L18.1306057,13.0810328 C18.127896,14.8098381 18.4753472,16.5218238 19.1525925,18.1166557 L20.9026466,17.3952787 C20.3219813,16.0291475 20.024183,14.562332 20.0266715,13.0810328 Z" id="Shape"></path>
                                    <path d="M35.775262,23.4316721 C34.39079,24.0037746 32.9041684,24.2969508 31.4029709,24.2941475 L31.4029709,26.1630232 C33.1559875,26.1662705 34.8920582,25.8241537 36.5090333,25.156623 L35.775262,23.4316721 Z" id="Shape"></path>
                                    <path d="M42.7792703,13.0810328 C42.7818773,14.5612807 42.484316,16.0271619 41.9042432,17.3924754 L43.6542973,18.1138525 C44.3314241,16.5200717 44.6785198,14.8089037 44.6753421,13.0810328 L42.7792703,13.0810328 Z" id="Shape"></path>
                                    <path d="M31.4029709,3.73677049 C26.1671476,3.73677049 21.9227214,7.92031352 21.9227214,13.0810328 C21.9227214,18.241752 26.1671476,22.4252951 31.4029709,22.4252951 C36.6364241,22.4195717 40.8775322,18.239416 40.8832204,13.0810328 C40.8832204,7.92043033 36.6387942,3.73677049 31.4029709,3.73677049 Z M31.4029709,20.5564426 C27.2143597,20.5564426 23.8187713,17.2095615 23.8187713,13.0810328 C23.8187713,8.9525041 27.2143597,5.60562295 31.4029709,5.60562295 C35.5915821,5.60562295 38.9871705,8.9525041 38.9871705,13.0810328 C38.9824304,17.2076926 35.5896861,20.5518873 31.4029709,20.5564426 Z" id="Shape"></path>
                                    <path d="M33.4886258,12.7829508 L32.3509958,12.4091803 L32.3509958,10.0114426 C32.8790457,10.1930717 33.250079,10.6629713 33.2990208,11.2121803 L35.1950707,11.2121803 C35.110341,9.63521926 33.9299314,8.32585451 32.3509958,8.05755738 L32.3509958,7.47447541 L30.4549459,7.47447541 L30.4549459,8.05755738 C28.8760104,8.32585451 27.6956008,9.63521926 27.6108711,11.2121803 C27.6480811,12.2208934 28.3351622,13.0934139 29.317316,13.3791148 L30.4549459,13.7528852 L30.4549459,16.1487541 C29.9274886,15.9673586 29.5565738,15.4983934 29.506921,14.9498852 L27.6108711,14.9498852 C27.6956008,16.5268463 28.8760104,17.8362111 30.4549459,18.1045082 L30.4549459,18.6875902 L32.3509958,18.6875902 L32.3509958,18.1045082 C33.9299314,17.8362111 35.110341,16.5268463 35.1950707,14.9498852 C35.1578607,13.9411721 34.4707796,13.0687684 33.4886258,12.7829508 Z M30.4549459,11.7868525 L29.9145717,11.6074426 C29.6747214,11.5280164 29.506921,11.3654262 29.506921,11.2121803 C29.5558628,10.6629713 29.926896,10.1930717 30.4549459,10.0114426 L30.4549459,11.7868525 Z M32.3509958,16.150623 L32.3509958,14.3752131 L32.8913701,14.554623 C33.1312204,14.6340492 33.2990208,14.7966393 33.2990208,14.9498852 C33.250079,15.4990943 32.8790457,15.9689939 32.3509958,16.150623 Z" id="Shape"></path>
                                    <path d="M56.7218732,38.5843279 L53.600027,35.5072623 L56.7218732,32.4301967 C57.0919584,32.0653033 57.0919584,31.4738115 56.7218732,31.108918 L44.3975489,18.961377 C44.0273451,18.5966004 43.4272453,18.5966004 43.0570416,18.961377 L30.9289584,30.9154918 L17.8528503,18.0269508 C17.4826466,17.6621742 16.8825468,17.6621742 16.512343,18.0269508 L4.18801871,30.1744918 C3.81793347,30.5393852 3.81793347,31.130877 4.18801871,31.4957705 L11.1019647,38.310541 L0.118147609,38.310541 L0.118147609,40.1793934 L12.4424719,40.1793934 C12.5709293,40.1797439 12.6980832,40.1539303 12.8159938,40.1037049 L19.2729917,37.3761148 L33.2990208,37.3761148 L33.2990208,41.1138197 L22.8707464,41.1138197 C22.3471996,41.1138197 21.9227214,41.5320922 21.9227214,42.0482459 C21.9227214,42.4127889 22.1378046,42.744043 22.4735239,42.8967049 L34.7978482,48.5032623 C35.1079709,48.6422582 35.4698794,48.6066332 35.7458732,48.4098197 L52.1647173,36.7313607 L54.6608669,39.1917049 L35.7923264,55.1302131 L30.6246424,55.1302131 L12.7704886,48.6471639 C12.6654948,48.6089693 12.5544574,48.5893463 12.4424719,48.5892295 L0.118147609,48.5892295 L0.118147609,50.458082 L12.2727755,50.458082 L30.1269293,56.9411311 C30.2319231,56.9794426 30.3429605,56.9989488 30.4549459,56.9990656 L36.1430956,56.9990656 C36.3693181,56.9992992 36.5879563,56.9194057 36.7593119,56.7738689 L56.6678358,39.9541967 C57.0654137,39.6183873 57.1116299,39.0285307 56.7709335,38.6366557 C56.7552911,38.618668 56.7389376,38.6011475 56.7218732,38.5843279 Z M19.0786466,35.5072623 C18.9501892,35.5069119 18.8230353,35.5326086 18.7051247,35.5829508 L18.4747547,35.6763934 C19.4108108,33.2821598 22.1388711,32.0891311 24.567948,33.0117602 C25.7503721,33.4608689 26.6994636,34.3603709 27.2013243,35.5072623 L19.0786466,35.5072623 Z M29.2272536,35.5072623 C28.3972578,32.7306148 25.8074906,30.8271885 22.8707464,30.8351311 C19.5159231,30.8549877 16.6967339,33.3246762 16.282921,36.6061475 L13.3222391,37.8564098 L6.19877963,30.8351311 L17.1825967,20.0088689 L32.9065385,35.5072623 L29.2272536,35.5072623 Z M35.0898399,46.5774098 L27.187104,42.9826721 L34.2470457,42.9826721 C34.7705925,42.9826721 35.1950707,42.5642828 35.1950707,42.0482459 L35.1950707,37.7629672 L40.3428462,42.8369016 L35.0898399,46.5774098 Z M35.284185,35.2082459 C35.6432495,33.2135963 37.4058649,31.7624324 39.461183,31.7695574 C41.8120478,31.7653525 43.7212516,33.6402787 43.7256362,35.9574221 C43.7294283,37.9848934 42.2616486,39.7249119 40.2385634,40.0915574 L35.284185,35.2082459 Z M41.7772079,41.6062623 C42.1576029,41.4541844 42.5211705,41.2644959 42.863289,41.0410512 L41.8995031,41.7268033 L41.7772079,41.6062623 Z M51.6442516,34.7924262 L43.2902557,40.7400492 C45.9517173,38.6495041 46.3899418,34.8280512 44.2688545,32.2047664 C42.1478857,29.5814816 38.2708191,29.149543 35.6093576,31.2402049 C34.7856424,31.8871783 34.143948,32.7315492 33.745422,33.6926066 L32.2693472,32.2367705 L43.7271767,20.9432951 L54.7109938,31.7695574 L51.6442516,34.7924262 Z" id="Shape"></path>
                                </g>
                            </g>
                        </g>
                    </g>
                </g>
            </g>
        </g>
    </g>
</svg>