<svg xmlns="http://www.w3.org/2000/svg" viewBox="0 0 64 64" width="512" height="512"><linearGradient id="a" gradientUnits="userSpaceOnUse" x1="32" y1="63" x2="32" y2="1"><stop offset="0" stop-color="#9f2fff"/><stop offset="1" stop-color="#0bb1d3"/></linearGradient><path d="M32 8c-9.374 0-17 7.626-17 17s7.626 17 17 17 17-7.626 17-17S41.374 8 32 8zM21.836 36h20.328c-2.676 2.474-6.24 4-10.164 4s-7.488-1.526-10.164-4zm6.388-6.738C28.755 30.847 30.238 32 32 32s3.245-1.153 3.776-2.738l3.047.871A3.014 3.014 0 0 1 41 33.018V34H23v-.982c0-1.332.895-2.519 2.176-2.885l3.048-.871zM30 27.705a6.956 6.956 0 0 0 4 0V28c0 1.103-.897 2-2 2s-2-.897-2-2v-.295zM32 26c-2.757 0-5-2.243-5-5v-2c0-2.757 2.243-5 5-5s5 2.243 5 5v2c0 2.757-2.243 5-5 5zm11 9.164v-2.146a5.024 5.024 0 0 0-3.627-4.809L36 27.245v-.509A6.993 6.993 0 0 0 39 21v-2c0-3.859-3.141-7-7-7s-7 3.141-7 7v2a6.993 6.993 0 0 0 3 5.736v.509l-3.374.964A5.023 5.023 0 0 0 21 33.018v2.146c-2.474-2.676-4-6.24-4-10.164 0-8.271 6.729-15 15-15s15 6.729 15 15c0 3.923-1.526 7.488-4 10.164zm16.373 20.045L56 54.245v-.509A6.993 6.993 0 0 0 59 48v-2c0-3.653-2.815-6.658-6.389-6.969l-2.181-4.002a20.864 20.864 0 0 0 1.692-4.089L56 29.736v-9.473l-3.878-1.204a20.927 20.927 0 0 0-1.693-4.09l1.892-3.592-6.698-6.697-3.593 1.89a20.885 20.885 0 0 0-4.089-1.692L36.736 1h-9.473L26.06 4.878c-1.425.42-2.795.987-4.089 1.692l-3.593-1.89-6.698 6.697 1.892 3.592a20.927 20.927 0 0 0-1.693 4.09L8 20.264v9.473l3.878 1.204a20.864 20.864 0 0 0 1.692 4.089l-2.181 4.002C7.815 39.342 5 42.347 5 46v2a6.993 6.993 0 0 0 3 5.736v.509l-3.374.964A5.023 5.023 0 0 0 1 60.018V63h22v-2.982a5.024 5.024 0 0 0-3.627-4.809L16 54.245v-.509A6.993 6.993 0 0 0 19 48v-2c0-.339-.032-.669-.079-.995l3.049-1.576a20.84 20.84 0 0 0 4.09 1.693L27.264 49h9.473l1.204-3.878a20.84 20.84 0 0 0 4.09-1.693l3.026 1.589.019.008A6.955 6.955 0 0 0 45 46v2a6.993 6.993 0 0 0 3 5.736v.509l-3.374.964A5.023 5.023 0 0 0 41 60.018V63h22v-2.982a5.023 5.023 0 0 0-3.627-4.809zM50 54.705a6.956 6.956 0 0 0 4 0V55c0 1.103-.897 2-2 2s-2-.897-2-2v-.295zm-40 0a6.956 6.956 0 0 0 4 0V55c0 1.103-.897 2-2 2s-2-.897-2-2v-.295zm11 5.313V61H3v-.982c0-1.332.895-2.519 2.176-2.885l3.048-.871C8.755 57.847 10.238 59 12 59s3.245-1.153 3.776-2.738l3.047.871A3.014 3.014 0 0 1 21 60.018zM17 48c0 2.757-2.243 5-5 5s-5-2.243-5-5v-2c0-2.757 2.243-5 5-5s5 2.243 5 5v2zm26.049-6.295l-.747-.745-.667.394a18.951 18.951 0 0 1-4.885 2.023l-.75.193v1.056L35.264 47h-6.527L28 44.626V43.57l-.75-.193a18.951 18.951 0 0 1-4.885-2.023l-.667-.394-.747.745-2.6 1.37a7.021 7.021 0 0 0-4.769-3.888l1.708-3.133.75-.752-.394-.667a18.893 18.893 0 0 1-2.023-4.885L13.43 29h-1.056L10 28.264v-6.527L12.374 21h1.056l.193-.75a18.951 18.951 0 0 1 2.023-4.885l.394-.667-.745-.747-1.158-2.2 4.614-4.615 2.2 1.158.747.747.667-.396a18.874 18.874 0 0 1 4.885-2.022L28 6.43V5.374L28.736 3h6.527L36 5.374V6.43l.75.193a18.909 18.909 0 0 1 4.885 2.022l.667.396.747-.747 2.2-1.158 4.614 4.615-1.158 2.2-.745.747.394.667a18.951 18.951 0 0 1 2.023 4.885l.193.75h1.056l2.374.736v6.527L51.626 29H50.57l-.193.75a18.893 18.893 0 0 1-2.023 4.885l-.394.667.75.752 1.708 3.133a7.02 7.02 0 0 0-4.769 3.887l-2.6-1.369zM47 48v-2c0-2.757 2.243-5 5-5s5 2.243 5 5v2c0 2.757-2.243 5-5 5s-5-2.243-5-5zm14 13H43v-.982c0-1.332.895-2.519 2.176-2.885l3.048-.871C48.755 57.847 50.238 59 52 59s3.245-1.153 3.776-2.738l3.047.871A3.014 3.014 0 0 1 61 60.018V61z" fill="url(#a)"/></svg>