<?xml version="1.0" encoding="iso-8859-1"?>
<!-- Generator: Adobe Illustrator 22.1.0, SVG Export Plug-In . SVG Version: 6.00 Build 0)  -->
<svg xmlns="http://www.w3.org/2000/svg" xmlns:xlink="http://www.w3.org/1999/xlink" version="1.1" id="Layer_1_1_" x="0px" y="0px" viewBox="0 0 64 64" style="enable-background:new 0 0 64 64;" xml:space="preserve" width="512" height="512">
<linearGradient id="SVGID_1_" gradientUnits="userSpaceOnUse" x1="32" y1="63" x2="32" y2="1">
	<stop offset="0" style="stop-color:#9F2FFF"/>
	<stop offset="1" style="stop-color:#0BB1D3"/>
</linearGradient>
<path style="fill:url(#SVGID_1_);" d="M32,8c-9.374,0-17,7.626-17,17s7.626,17,17,17s17-7.626,17-17S41.374,8,32,8z M21.836,36  h20.328c-2.676,2.474-6.24,4-10.164,4S24.512,38.474,21.836,36z M28.224,29.262C28.755,30.847,30.238,32,32,32  s3.245-1.153,3.776-2.738l3.047,0.871C40.105,30.499,41,31.686,41,33.018V34H23v-0.982c0-1.332,0.895-2.519,2.176-2.885  L28.224,29.262z M30,27.705C30.634,27.895,31.305,28,32,28s1.366-0.105,2-0.295V28c0,1.103-0.897,2-2,2s-2-0.897-2-2V27.705z M32,26  c-2.757,0-5-2.243-5-5v-2c0-2.757,2.243-5,5-5s5,2.243,5,5v2C37,23.757,34.757,26,32,26z M43,35.164v-2.146  c0-2.221-1.491-4.197-3.627-4.809L36,27.245v-0.509c1.811-1.267,3-3.364,3-5.736v-2c0-3.859-3.141-7-7-7s-7,3.141-7,7v2  c0,2.372,1.189,4.469,3,5.736v0.509l-3.374,0.964C22.491,28.82,21,30.797,21,33.018v2.146c-2.474-2.676-4-6.24-4-10.164  c0-8.271,6.729-15,15-15s15,6.729,15,15C47,28.923,45.474,32.488,43,35.164z M59.373,55.209L56,54.245v-0.509  c1.811-1.267,3-3.364,3-5.736v-2c0-3.653-2.815-6.658-6.389-6.969l-2.181-4.002c0.706-1.296,1.273-2.666,1.692-4.089L56,29.736  v-9.473l-3.878-1.204c-0.419-1.422-0.987-2.793-1.693-4.09l1.892-3.592l-6.698-6.697l-3.593,1.89  c-1.294-0.705-2.664-1.272-4.089-1.692L36.736,1h-9.473L26.06,4.878c-1.425,0.42-2.795,0.987-4.089,1.692l-3.593-1.89l-6.698,6.697  l1.892,3.592c-0.706,1.297-1.274,2.668-1.693,4.09L8,20.264v9.473l3.878,1.204c0.419,1.423,0.986,2.793,1.692,4.089l-2.181,4.002  C7.815,39.342,5,42.347,5,46v2c0,2.372,1.189,4.469,3,5.736v0.509l-3.374,0.964C2.491,55.82,1,57.797,1,60.018V63h22v-2.982  c0-2.221-1.491-4.197-3.627-4.809L16,54.245v-0.509c1.811-1.267,3-3.364,3-5.736v-2c0-0.339-0.032-0.669-0.079-0.995l3.049-1.576  c1.297,0.707,2.667,1.274,4.09,1.693L27.264,49h9.473l1.204-3.878c1.423-0.419,2.793-0.986,4.09-1.693l3.026,1.589l0.019,0.008  C45.031,45.345,45,45.669,45,46v2c0,2.372,1.189,4.469,3,5.736v0.509l-3.374,0.964C42.491,55.82,41,57.797,41,60.018V63h22v-2.982  C63,57.797,61.509,55.82,59.373,55.209z M50,54.705C50.634,54.895,51.305,55,52,55s1.366-0.105,2-0.295V55c0,1.103-0.897,2-2,2  s-2-0.897-2-2V54.705z M10,54.705C10.634,54.895,11.305,55,12,55s1.366-0.105,2-0.295V55c0,1.103-0.897,2-2,2s-2-0.897-2-2V54.705z   M21,60.018V61H3v-0.982c0-1.332,0.895-2.519,2.176-2.885l3.048-0.871C8.755,57.847,10.238,59,12,59s3.245-1.153,3.776-2.738  l3.047,0.871C20.105,57.499,21,58.686,21,60.018z M17,48c0,2.757-2.243,5-5,5s-5-2.243-5-5v-2c0-2.757,2.243-5,5-5s5,2.243,5,5V48z   M43.049,41.705l-0.747-0.745l-0.667,0.394c-1.521,0.897-3.164,1.578-4.885,2.023L36,43.57v1.056L35.264,47h-6.527L28,44.626V43.57  l-0.75-0.193c-1.721-0.445-3.364-1.126-4.885-2.023l-0.667-0.394l-0.747,0.745l-2.6,1.37c-0.896-1.936-2.647-3.395-4.769-3.888  l1.708-3.133l0.75-0.752l-0.394-0.667c-0.897-1.519-1.578-3.162-2.023-4.885L13.43,29h-1.056L10,28.264v-6.527L12.374,21h1.056  l0.193-0.75c0.445-1.721,1.126-3.364,2.023-4.885l0.394-0.667l-0.745-0.747l-1.158-2.2l4.614-4.615l2.2,1.158l0.747,0.747  l0.667-0.396c1.516-0.896,3.159-1.576,4.885-2.022L28,6.43V5.374L28.736,3h6.527L36,5.374V6.43l0.75,0.193  c1.726,0.446,3.369,1.127,4.885,2.022l0.667,0.396l0.747-0.747l2.2-1.158l4.614,4.615l-1.158,2.2l-0.745,0.747l0.394,0.667  c0.897,1.521,1.578,3.164,2.023,4.885L50.57,21h1.056L54,21.736v6.527L51.626,29H50.57l-0.193,0.75  c-0.445,1.723-1.126,3.366-2.023,4.885l-0.394,0.667l0.75,0.752l1.708,3.133c-2.122,0.493-3.873,1.951-4.769,3.887L43.049,41.705z   M47,48v-2c0-2.757,2.243-5,5-5s5,2.243,5,5v2c0,2.757-2.243,5-5,5S47,50.757,47,48z M61,61H43v-0.982  c0-1.332,0.895-2.519,2.176-2.885l3.048-0.871C48.755,57.847,50.238,59,52,59s3.245-1.153,3.776-2.738l3.047,0.871  C60.105,57.499,61,58.686,61,60.018V61z"/>
</svg>
