<?xml version="1.0" encoding="iso-8859-1"?>
<!-- Generator: Adobe Illustrator 22.1.0, SVG Export Plug-In . SVG Version: 6.00 Build 0)  -->
<svg xmlns="http://www.w3.org/2000/svg" xmlns:xlink="http://www.w3.org/1999/xlink" version="1.1" id="Layer_1_1_" x="0px" y="0px" viewBox="0 0 64 64" style="enable-background:new 0 0 64 64;" xml:space="preserve" width="512" height="512">
<linearGradient id="SVGID_1_" gradientUnits="userSpaceOnUse" x1="32" y1="63" x2="32" y2="1">
	<stop offset="0" style="stop-color:#9F2FFF"/>
	<stop offset="1" style="stop-color:#0BB1D3"/>
</linearGradient>
<path style="fill:url(#SVGID_1_);" d="M16,57h6v2h-6V57z M39,31c0,6.617-5.383,12-12,12s-12-5.383-12-12s5.383-12,12-12  S39,24.383,39,31z M37,31c0-5.514-4.486-10-10-10s-10,4.486-10,10s4.486,10,10,10S37,36.514,37,31z M63,31c0,2.757-2.243,5-5,5H47v2  h-2v-2h-2.811c-0.98,2.968-2.802,5.553-5.189,7.47V58c0,2.757-2.243,5-5,5H6c-2.757,0-5-2.243-5-5V6c0-2.757,2.243-5,5-5h26  c2.757,0,5,2.243,5,5v12.53c2.386,1.917,4.209,4.502,5.189,7.47H45v-2h2v2h11C60.757,26,63,28.243,63,31z M3,6v1h32V6  c0-1.654-1.346-3-3-3H6C4.346,3,3,4.346,3,6z M35,58v-3H3v3c0,1.654,1.346,3,3,3h26C33.654,61,35,59.654,35,58z M35,44.835  c-0.641,0.372-1.307,0.705-2,0.987V51H5V11h28v5.178c0.693,0.282,1.359,0.615,2,0.987V9H3v44h32V44.835z M27,47v2h4v-2.527  C29.719,46.805,28.383,47,27,47z M25,46.861c-1.397-0.175-2.738-0.526-4-1.039V49h4V46.861z M11,45v-2h5.453  C13.118,40.066,11,35.78,11,31c0-2.802,0.729-5.436,2-7.729V19H7v24h2v2H7v4h12v-4H11z M15,17v3.453  c1.145-1.301,2.493-2.413,4-3.288V13H7v4H15z M21,16.178c1.262-0.513,2.603-0.864,4-1.039V13h-4V16.178z M27,15  c1.383,0,2.719,0.195,4,0.527V13h-4V15z M41,31c0-7.72-6.28-14-14-14s-14,6.28-14,14s6.28,14,14,14S41,38.72,41,31z M45,34v-6  h-2.292C42.894,28.973,43,29.974,43,31s-0.106,2.027-0.292,3H45z M61,31c0-1.654-1.346-3-3-3H47v6h11C59.654,34,61,32.654,61,31z"/>
</svg>
