<?xml version="1.0" encoding="iso-8859-1"?>
<!-- Generator: Adobe Illustrator 22.1.0, SVG Export Plug-In . SVG Version: 6.00 Build 0)  -->
<svg xmlns="http://www.w3.org/2000/svg" xmlns:xlink="http://www.w3.org/1999/xlink" version="1.1" id="Layer_1_1_" x="0px" y="0px" viewBox="0 0 64 64" style="enable-background:new 0 0 64 64;" xml:space="preserve" width="512" height="512">
<linearGradient id="SVGID_1_" gradientUnits="userSpaceOnUse" x1="32" y1="1" x2="32" y2="63" gradientTransform="matrix(1 0 0 -1 0 64)">
	<stop offset="0" style="stop-color:#9F2FFF"/>
	<stop offset="1" style="stop-color:#0BB1D3"/>
</linearGradient>
<path style="fill:url(#SVGID_1_);" d="M58,11H39.167C37.106,5.078,31.44,1,25.117,1h-0.232C16.677,1,10,7.677,10,15.884  c0,2.756,0.767,5.434,2.204,7.778C8.462,26.791,5.979,31.197,5.251,36H1v6h4.243C6.545,50.608,13.391,57.454,22,58.757V63h6v-4.243  C36.615,57.454,43.454,50.612,44.757,42H49v-6h-4.251c-0.728-4.803-3.211-9.209-6.952-12.337c0.517-0.843,0.949-1.734,1.29-2.663H58  c2.757,0,5-2.243,5-5S60.757,11,58,11z M31,18.557l-5.713-2.142C25.115,16.35,25,16.184,25,16s0.115-0.35,0.288-0.415L31,13.443  V18.557z M24.586,13.712C23.638,14.067,23,14.987,23,16s0.638,1.933,1.585,2.288l5.793,2.172C29.06,22.044,27.096,23,25,23  c-3.859,0-7-3.14-7-7s3.141-7,7-7c2.096,0,4.06,0.956,5.378,2.54L24.586,13.712z M33,17h14v-2H33v-2h18v2h-2v2h2v2H33V17z M53,13h2  v6h-2V13z M13.291,25.359l2.199,3.383c-2.1,1.947-3.545,4.471-4.154,7.257H7.273C7.97,31.877,10.107,28.099,13.291,25.359z   M29.999,35.683C30.649,36.657,31,37.799,31,39c0,3.309-2.691,6-6,6s-6-2.691-6-6c0-1.201,0.351-2.343,1.001-3.317l2.615,4.024  C23.143,40.517,24.034,41,25,41s1.857-0.483,2.384-1.293L29.999,35.683z M25,47c4.411,0,8-3.589,8-8  c0-1.889-0.648-3.673-1.839-5.104l2.247-3.458c1.639,1.608,2.771,3.645,3.281,5.876C35.693,36.803,35,37.818,35,39  c0,1.184,0.695,2.201,1.694,2.688c-1.022,4.5-4.507,7.984-9.006,9.006C27.201,49.696,26.184,49,25,49s-2.201,0.695-2.688,1.694  c-4.499-1.022-7.983-4.507-9.006-9.006C14.305,41.201,15,40.184,15,39c0-1.182-0.693-2.197-1.689-2.686  c0.51-2.231,1.642-4.268,3.281-5.876l2.247,3.458C17.648,35.327,17,37.111,17,39C17,43.411,20.589,47,25,47z M3,38h9  c0.552,0,1,0.449,1,1s-0.448,1-1,1H3V38z M7.263,42h4.068c1.164,5.359,5.311,9.506,10.669,10.67v4.067  C14.492,55.47,8.53,49.508,7.263,42z M26,61h-2v-9c0-0.551,0.448-1,1-1s1,0.449,1,1V61z M28,56.736v-4.067  c5.358-1.164,9.506-5.311,10.669-10.67h4.068C41.472,49.511,35.515,55.47,28,56.736z M47,40h-9c-0.552,0-1-0.449-1-1s0.448-1,1-1h9  V40z M42.727,36h-4.063c-0.609-2.786-2.053-5.31-4.154-7.257l2.199-3.383C39.893,28.099,42.029,31.877,42.727,36z M35.918,22.906  L25.706,38.617c-0.311,0.48-1.102,0.48-1.412,0L14.082,22.906C12.72,20.811,12,18.383,12,15.884C12,8.78,17.779,3,24.884,3h0.232  c5.238,0,9.954,3.232,11.916,8H32.46c-1.663-2.475-4.457-4-7.461-4c-4.963,0-9,4.038-9,9s4.037,9,9,9c3.004,0,5.797-1.525,7.461-4  h4.472C36.646,21.661,36.311,22.301,35.918,22.906z M58,19h-1v-6h1c1.654,0,3,1.346,3,3S59.654,19,58,19z M22,29h2v2h-2V29z M26,29  h2v2h-2V29z"/>
</svg>
