<?xml version="1.0" encoding="iso-8859-1"?>
<!-- Generator: Adobe Illustrator 22.1.0, SVG Export Plug-In . SVG Version: 6.00 Build 0)  -->
<svg xmlns="http://www.w3.org/2000/svg" xmlns:xlink="http://www.w3.org/1999/xlink" version="1.1" id="Layer_1_1_" x="0px" y="0px" viewBox="0 0 64 64" style="enable-background:new 0 0 64 64;" xml:space="preserve" width="512" height="512">
<linearGradient id="SVGID_1_" gradientUnits="userSpaceOnUse" x1="32" y1="63" x2="32" y2="0.8608">
	<stop offset="0" style="stop-color:#9F2FFF"/>
	<stop offset="1" style="stop-color:#0BB1D3"/>
</linearGradient>
<path style="fill:url(#SVGID_1_);" d="M33,58v5h-2v-5H33z M37,55h-2v4h2V55z M29,55h-2v4h2V55z M40,27c0,4.411-3.589,8-8,8  s-8-3.589-8-8s3.589-8,8-8S40,22.589,40,27z M38,27c0-3.309-2.691-6-6-6s-6,2.691-6,6s2.691,6,6,6S38,30.309,38,27z M36,27  c0,2.206-1.794,4-4,4s-4-1.794-4-4s1.794-4,4-4S36,24.794,36,27z M34,27c0-1.103-0.897-2-2-2s-2,0.897-2,2s0.897,2,2,2  S34,28.103,34,27z M63,27c0,3.86-3.141,7-7,7H43.053c-0.03,0.187-0.062,0.363-0.092,0.547L52,43.586v6.695L38.879,47h-1.032l-1,6  h-9.693l-1-6h-1.032L12,50.281v-6.695l9.039-9.039c-0.55-3.328-0.964-7.228-1.022-11.547H7c-3.309,0-6-2.691-6-6  c0-2.991,2.201-5.47,5.068-5.92C6.521,7.654,9.453,5,13,5c1.814,0,3.463,0.699,4.708,1.835C18.718,6.295,19.837,6,21,6  c1.387,0,2.721,0.412,3.859,1.167c3.032-4.01,6.407-5.905,6.663-6.044L32,0.861l0.479,0.261c0.361,0.197,6.94,3.891,9.99,12.107  C43.835,12.431,45.394,12,47,12c4.626,0,8.443,3.509,8.941,8.003C55.961,20.003,55.98,20,56,20C59.859,20,63,23.14,63,27z   M24.195,12.098C26.37,13.967,29.11,15,32,15c2.878,0,5.609-1.025,7.78-2.881c-2.513-5.192-6.434-8.077-7.785-8.951  C30.615,4.044,26.696,6.89,24.195,12.098z M7,21h13.024c0.185-5.109,1.761-9.135,3.695-12.188c-1.39-0.883-3.197-1.018-4.709-0.381  C19.635,9.477,20,10.695,20,12h-2c0-2.757-2.243-5-5-5c-2.45,0-4.485,1.775-4.909,4.104C10.88,11.619,13,14.064,13,17h-2  c0-2.206-1.794-4-4-4s-4,1.794-4,4S4.794,21,7,21z M14,47.719l9.68-2.419c-0.192-0.553-0.44-1.314-0.719-2.26l-3.718,0.93  l-0.484-1.939l3.668-0.917c-0.316-1.21-0.642-2.61-0.952-4.172L14,44.414V47.719z M35.82,47h-7.64l0.666,4h6.307L35.82,47z   M38.303,45C39.146,42.613,42,33.671,42,22c0-3.042-0.554-5.682-1.397-7.96C38.152,15.955,35.149,17,32,17  c-3.158,0-6.169-1.049-8.623-2.974C22.545,16.301,22,18.945,22,22c0,11.671,2.854,20.613,3.697,23H38.303z M42.527,36.941  c-0.31,1.562-0.636,2.962-0.952,4.172l3.668,0.917l-0.484,1.939l-3.718-0.93c-0.279,0.946-0.527,1.706-0.719,2.26L50,47.719v-3.305  L42.527,36.941z M61,27c0-2.757-2.243-5-5-5s-5,2.243-5,5h-2c0-3.152,2.095-5.822,4.965-6.696C53.614,16.77,50.624,14,47,14  c-1.399,0-2.752,0.423-3.899,1.194C43.659,17.222,44,19.483,44,22c0,3.645-0.266,7.004-0.659,10H56C58.757,32,61,29.757,61,27z   M27,63h2v-2h-2V63z M35,63h2v-2h-2V63z"/>
</svg>
