<svg xmlns="http://www.w3.org/2000/svg" width="131.077" height="125.276" viewBox="0 0 131.077 125.276"><g transform="translate(-767.923 -2015)"><g transform="translate(767.923 2044.211)"><path d="M32.628,0H12.436A12.45,12.45,0,0,0,0,12.436V32.628A12.45,12.45,0,0,0,12.436,45.064H32.628A12.45,12.45,0,0,0,45.064,32.628V12.436A12.45,12.45,0,0,0,32.628,0Zm8.438,32.628a8.447,8.447,0,0,1-8.438,8.438H12.436A8.447,8.447,0,0,1,4,32.628V12.436A8.447,8.447,0,0,1,12.436,4H32.628a8.448,8.448,0,0,1,8.438,8.438V32.628Z" fill="#fff"/><path d="M52.58,40.97A11.612,11.612,0,1,0,64.192,52.582,11.625,11.625,0,0,0,52.58,40.97Zm0,19.225a7.613,7.613,0,1,1,7.614-7.613A7.622,7.622,0,0,1,52.58,60.195Z" transform="translate(-30.048 -30.049)" fill="#fff"/><path d="M121.853,28.251a2.93,2.93,0,1,0,2.074.858A2.944,2.944,0,0,0,121.853,28.251Z" transform="translate(-87.222 -20.721)" fill="#fff"/></g><g transform="translate(800.923 2095.211)"><path d="M32.628,0H12.436A12.45,12.45,0,0,0,0,12.436V32.628A12.45,12.45,0,0,0,12.436,45.064H32.628A12.45,12.45,0,0,0,45.064,32.628V12.436A12.45,12.45,0,0,0,32.628,0Zm8.438,32.628a8.447,8.447,0,0,1-8.438,8.438H12.436A8.447,8.447,0,0,1,4,32.628V12.436A8.447,8.447,0,0,1,12.436,4H32.628a8.448,8.448,0,0,1,8.438,8.438V32.628Z" fill="#fff"/><path d="M52.58,40.97A11.612,11.612,0,1,0,64.192,52.582,11.625,11.625,0,0,0,52.58,40.97Zm0,19.225a7.613,7.613,0,1,1,7.614-7.613A7.622,7.622,0,0,1,52.58,60.195Z" transform="translate(-30.048 -30.049)" fill="#fff"/><path d="M121.853,28.251a2.93,2.93,0,1,0,2.074.858A2.944,2.944,0,0,0,121.853,28.251Z" transform="translate(-87.222 -20.721)" fill="#fff"/></g><circle cx="42" cy="42" r="42" transform="translate(815 2015)" fill="#fff"/><text transform="translate(857.5 2069)" fill="#7071ea" font-size="32" font-family="OpenSans-Bold, Open Sans" font-weight="700"><tspan x="-37.828" y="0">-10%</tspan></text></g></svg>