<svg xmlns="http://www.w3.org/2000/svg" width="142.064" height="127.276"><g transform="translate(-767.923 -2015)"><g fill="#fff"><path d="M800.551 2044.211h-20.192a12.45 12.45 0 0 0-12.436 12.436v20.192a12.45 12.45 0 0 0 12.436 12.436h20.192a12.45 12.45 0 0 0 12.436-12.436v-20.192a12.45 12.45 0 0 0-12.436-12.436zm8.438 32.628a8.447 8.447 0 0 1-8.438 8.438h-20.192a8.447 8.447 0 0 1-8.436-8.438v-20.192a8.447 8.447 0 0 1 8.436-8.436h20.192a8.448 8.448 0 0 1 8.438 8.438v20.19z"/><path d="M790.455 2055.132a11.612 11.612 0 1 0 11.612 11.612 11.625 11.625 0 0 0-11.612-11.612zm0 19.225a7.613 7.613 0 1 1 7.614-7.613 7.622 7.622 0 0 1-7.614 7.613zm12.099-22.616a2.93 2.93 0 1 0 2.074.858 2.944 2.944 0 0 0-2.074-.858z"/></g><g fill="#fff"><path d="M835.551 2096.211h-20.192a12.45 12.45 0 0 0-12.436 12.436v20.192a12.45 12.45 0 0 0 12.436 12.436h20.192a12.45 12.45 0 0 0 12.436-12.436v-20.192a12.45 12.45 0 0 0-12.436-12.436zm8.438 32.628a8.447 8.447 0 0 1-8.438 8.438h-20.192a8.447 8.447 0 0 1-8.436-8.438v-20.192a8.447 8.447 0 0 1 8.436-8.436h20.192a8.448 8.448 0 0 1 8.438 8.438v20.19z"/><path d="M825.455 2107.132a11.612 11.612 0 1 0 11.612 11.612 11.625 11.625 0 0 0-11.612-11.612zm0 19.225a7.613 7.613 0 1 1 7.614-7.613 7.622 7.622 0 0 1-7.614 7.613zm12.099-22.616a2.93 2.93 0 1 0 2.074.858 2.944 2.944 0 0 0-2.074-.858z"/></g><g fill="#fff"><path d="M897.551 2097.211h-20.192a12.45 12.45 0 0 0-12.436 12.436v20.192a12.45 12.45 0 0 0 12.436 12.436h20.192a12.45 12.45 0 0 0 12.436-12.436v-20.192a12.45 12.45 0 0 0-12.436-12.436zm8.438 32.628a8.447 8.447 0 0 1-8.438 8.438h-20.192a8.447 8.447 0 0 1-8.436-8.438v-20.192a8.447 8.447 0 0 1 8.436-8.436h20.192a8.448 8.448 0 0 1 8.438 8.438v20.19z"/><path d="M887.455 2108.132a11.612 11.612 0 1 0 11.612 11.612 11.625 11.625 0 0 0-11.612-11.612zm0 19.225a7.613 7.613 0 1 1 7.614-7.613 7.622 7.622 0 0 1-7.614 7.613zm12.099-22.616a2.93 2.93 0 1 0 2.074.858 2.944 2.944 0 0 0-2.074-.858z"/></g><circle cx="42" cy="42" r="42" transform="translate(815 2015)" fill="#fff"/><text transform="translate(857.5 2069)" fill="#7071ea" font-size="32" font-family="OpenSans-Bold, Open Sans" font-weight="700"><tspan x="-37.828" y="0">-15%</tspan></text></g></svg>