<svg xmlns="http://www.w3.org/2000/svg" width="172.637" height="164.186"><g fill="#fff"><path d="M73.444 57.665a9.063 9.063 0 1 0-9.062 9.062 9.062 9.062 0 0 0 9.062-9.062zm33.812 40.791a9.063 9.063 0 1 0 9.062 9.062 9.064 9.064 0 0 0-9.062-9.062zm0 0"/><path d="M155.541 103.313l17.1-21.221-17.098-21.219a3.41 3.41 0 0 1-.748-2.3l1.357-27.214-26.307-7.12a3.4 3.4 0 0 1-1.957-1.421L112.988.003l-25.463 9.7a3.377 3.377 0 0 1-2.42 0L59.643.003l-14.9 22.815a3.4 3.4 0 0 1-1.957 1.421l-26.3 7.12 1.357 27.214a3.387 3.387 0 0 1-.748 2.3L0 82.092l17.094 21.221a3.4 3.4 0 0 1 .748 2.3l-1.357 27.214 26.3 7.118a3.413 3.413 0 0 1 1.957 1.424l14.9 22.815 25.463-9.7a3.377 3.377 0 0 1 2.42 0l25.463 9.7 14.9-22.815a3.413 3.413 0 0 1 1.957-1.424l26.3-7.118-1.359-27.216a3.4 3.4 0 0 1 .748-2.3zM48.52 57.665a15.864 15.864 0 1 1 15.863 15.863A15.865 15.865 0 0 1 48.52 57.665zm12.6 69.284a3.402 3.402 0 1 1-5.7-3.715l56.084-86a3.402 3.402 0 1 1 5.7 3.715zm46.133-3.567a15.864 15.864 0 1 1 15.863-15.865 15.864 15.864 0 0 1-15.859 15.865zm0 0"/></g></svg>