<svg xmlns="http://www.w3.org/2000/svg" width="172.637" height="164.186" viewBox="0 0 172.637 164.186"><g transform="translate(0 -0.297)"><path d="M115.727,95.111a9.063,9.063,0,1,0-9.062,9.062A9.062,9.062,0,0,0,115.727,95.111Zm0,0" transform="translate(-42.283 -37.149)" fill="#fff"/><path d="M182.31,174.008a9.063,9.063,0,1,0,9.062,9.062A9.064,9.064,0,0,0,182.31,174.008Zm0,0" transform="translate(-75.054 -75.255)" fill="#fff"/><path d="M155.541,103.61l17.1-21.221L155.543,61.17a3.41,3.41,0,0,1-.748-2.3l1.357-27.214-26.307-7.12a3.4,3.4,0,0,1-1.957-1.421L112.988.3,87.525,10a3.377,3.377,0,0,1-2.42,0L59.643.3l-14.9,22.815a3.4,3.4,0,0,1-1.957,1.421l-26.3,7.12,1.357,27.214a3.387,3.387,0,0,1-.748,2.3L0,82.389,17.094,103.61a3.4,3.4,0,0,1,.748,2.3l-1.357,27.214,26.3,7.118a3.413,3.413,0,0,1,1.957,1.424l14.9,22.815,25.463-9.7a3.377,3.377,0,0,1,2.42,0l25.463,9.7,14.9-22.815a3.413,3.413,0,0,1,1.957-1.424l26.3-7.118-1.359-27.216a3.4,3.4,0,0,1,.748-2.3ZM48.52,57.962A15.864,15.864,0,1,1,64.383,73.825,15.865,15.865,0,0,1,48.52,57.962Zm12.6,69.284a3.4,3.4,0,1,1-5.7-3.715l56.084-86a3.4,3.4,0,1,1,5.7,3.715Zm46.133-3.567a15.864,15.864,0,1,1,15.863-15.865A15.864,15.864,0,0,1,107.257,123.679Zm0,0" fill="#fff"/></g></svg>