<svg width="83" height="50" xmlns="http://www.w3.org/2000/svg"><g fill="none"><path d="M82.73 25c.004 13.67-11.042 24.753-24.672 24.756-13.63.003-24.68-11.074-24.684-24.743V25C33.37 11.331 44.416.247 58.045.244 71.675.24 82.727 11.318 82.73 24.987V25z" fill="#F90"/><path d="M24.789.25C11.239.336.269 11.391.269 25c0 13.662 11.056 24.75 24.679 24.75 6.393 0 12.221-2.444 16.607-6.449l-.002-.001h.005a24.952 24.952 0 0 0 2.505-2.65h-5.056a24.17 24.17 0 0 1-1.84-2.55h8.72c.53-.85 1.01-1.735 1.437-2.65H35.728a24.453 24.453 0 0 1-1.032-2.6h13.66a24.755 24.755 0 0 0 1.27-7.85 24.87 24.87 0 0 0-.568-5.3H33.972c.187-.88.423-1.747.704-2.6H48.34a24.795 24.795 0 0 0-1.064-2.65h-11.55a23.71 23.71 0 0 1 1.415-2.6h8.714A24.802 24.802 0 0 0 43.94 9.2h-4.858a22.938 22.938 0 0 1 2.476-2.5A24.552 24.552 0 0 0 24.948.25h-.16z" fill="#C00"/><path d="M80.255 37.939c.134 0 .264.034.392.103a.811.811 0 0 1 .3 1.095.744.744 0 0 1-.296.297.81.81 0 0 1-.794 0 .756.756 0 0 1-.296-.297.814.814 0 0 1 .002-.798.743.743 0 0 1 .298-.297.826.826 0 0 1 .394-.103m0 .132a.68.68 0 0 0-.328.087.612.612 0 0 0-.248.248.666.666 0 1 0 1.15 0 .667.667 0 0 0-.575-.335m-.35 1.11v-.86h.297c.1 0 .173.007.218.024a.222.222 0 0 1 .148.209.227.227 0 0 1-.067.164.264.264 0 0 1-.178.079.25.25 0 0 1 .073.046.91.91 0 0 1 .127.17l.104.169h-.168l-.076-.136a.695.695 0 0 0-.145-.2.18.18 0 0 0-.11-.03h-.082v.366h-.14m.138-.485h.169c.08 0 .134-.012.163-.036a.118.118 0 0 0 .045-.096.113.113 0 0 0-.021-.068.13.13 0 0 0-.06-.045.43.43 0 0 0-.138-.015h-.157v.26" fill="#FCB340"/><g fill="#006"><path d="M33.237 33.202l.328-2.369c-.18 0-.443.083-.676.083-.915 0-1.029-.519-.957-.898l.9-4.765h1.39l.287-2.69H33.2l.267-1.629h-2.74c-.058.062-1.55 9.165-1.55 10.274 0 1.641.868 2.371 2.092 2.36.958-.009 1.705-.29 1.969-.366zm.831-4.516c0 3.939 2.45 4.874 4.537 4.874 1.927 0 2.937-.474 2.937-.474l.463-2.688s-1.628.702-2.951.702c-2.82 0-2.326-2.231-2.326-2.231l5.418.017s.345-1.805.345-2.541c0-1.837-.943-4.092-3.826-4.092-2.641.001-4.597 3.02-4.597 6.433zm4.607-3.937c1.482 0 1.209 1.768 1.209 1.911h-2.916c0-.183.275-1.91 1.707-1.91zm16.631 8.453l.47-3.039s-1.29.686-2.174.686c-1.863 0-2.61-1.51-2.61-3.132 0-3.29 1.603-5.1 3.387-5.1 1.339 0 2.412.797 2.412.797l.43-2.952s-1.269-.972-2.633-.978c-4.105-.017-6.454 3.016-6.454 8.26 0 3.474 1.74 5.84 4.873 5.84.887 0 2.299-.382 2.299-.382zM18.791 22.297c-1.8 0-3.181.614-3.181.614l-.382 2.401s1.14-.491 2.863-.491c.978 0 1.693.116 1.693.96 0 .512-.087.701-.087.701s-.772-.068-1.13-.068c-2.564 0-4.657 1.029-4.657 4.13 0 2.444 1.566 3.005 2.536 3.005 1.853 0 2.587-1.242 2.629-1.246l-.021 1.03h2.312l1.032-7.674c0-3.258-2.677-3.362-3.607-3.362zm.4 6.232c.05.469-.114 2.685-1.696 2.685-.815 0-1.027-.662-1.027-1.053 0-.763.39-1.679 2.315-1.679.448 0 .333.035.408.047zm5.665 4.963c.592 0 3.973.16 3.973-3.543 0-3.463-3.13-2.779-3.13-4.17 0-.692.51-.91 1.443-.91.37 0 1.795.125 1.795.125l.331-2.461s-.922-.219-2.423-.219c-1.943 0-3.915.823-3.915 3.64 0 3.19 3.288 2.87 3.288 4.214 0 .897-.919.971-1.627.971-1.225 0-2.328-.446-2.332-.425l-.35 2.436c.063.02.744.342 2.947.342zM76.97 20.064l-.475 3.755s-.99-1.45-2.537-1.45c-2.912 0-4.412 3.08-4.412 6.617 0 2.284 1.07 4.523 3.257 4.523 1.573 0 2.445-1.165 2.445-1.165l-.115.994h2.555l2.006-13.253-2.724-.02zm-1.129 7.298c0 1.472-.687 3.439-2.11 3.439-.945 0-1.389-.843-1.389-2.164 0-2.161.915-3.587 2.07-3.587.944 0 1.43.689 1.43 2.312zM4.57 33.35l1.6-10.007.234 10.006h1.81l3.375-10.006-1.495 10.006h2.688l2.07-13.271-4.27-.035-2.54 8.126-.07-8.091H4.056l-2.1 13.271z"/><path d="M45.036 33.368c.764-4.613 1.037-8.256 3.266-7.502.32-1.785 1.083-3.338 1.432-4.094 0 0-.11-.174-.8-.174-1.176 0-2.746 2.533-2.746 2.533l.234-1.566h-2.446l-1.638 10.803h2.698zm15.771-11.071c-1.802 0-3.182.614-3.182.614l-.381 2.401s1.14-.491 2.861-.491c.979 0 1.694.116 1.694.96 0 .512-.087.701-.087.701s-.772-.068-1.13-.068c-2.563 0-4.656 1.029-4.656 4.13 0 2.444 1.565 3.005 2.535 3.005 1.853 0 2.587-1.242 2.629-1.246l-.022 1.03h2.313l1.032-7.674c0-3.258-2.677-3.362-3.606-3.362zm.4 6.232c.05.469-.115 2.685-1.697 2.685-.816 0-1.027-.662-1.027-1.053 0-.763.39-1.679 2.315-1.679.448 0 .333.035.408.047zm5.868 4.839c.42-3.394 1.197-8.158 3.266-7.502.32-1.785.011-1.78-.677-1.78-1.177 0-1.438.045-1.438.045l.235-1.566h-2.446l-1.638 10.803h2.698z"/></g><path d="M33.921 32.357l.33-2.369c-.18 0-.445.082-.678.082-.914 0-1.015-.516-.956-.898l.738-4.833h1.39l.335-2.62h-1.31l.267-1.63H31.41c-.058.061-1.55 9.165-1.55 10.273 0 1.641.868 2.372 2.093 2.36.958-.008 1.705-.29 1.968-.365zm.833-4.517c0 3.94 2.45 4.875 4.537 4.875 1.926 0 2.774-.457 2.774-.457l.462-2.688s-1.465.685-2.789.685c-2.82 0-2.326-2.231-2.326-2.231h5.338s.344-1.806.344-2.542c0-1.837-.861-4.074-3.745-4.074-2.64 0-4.595 3.02-4.595 6.432zm4.605-3.936c1.482 0 1.21 1.767 1.21 1.91h-2.917c0-.182.276-1.91 1.707-1.91zm16.631 8.452l.47-3.038s-1.288.685-2.173.685c-1.863 0-2.61-1.51-2.61-3.131 0-3.29 1.603-5.1 3.388-5.1 1.338 0 2.412.797 2.412.797l.429-2.953s-1.593-.683-2.958-.683c-3.032 0-5.982 2.79-5.982 8.033 0 3.476 1.593 5.772 4.727 5.772.886 0 2.298-.382 2.298-.382zM19.476 21.451c-1.8 0-3.181.614-3.181.614l-.381 2.401s1.14-.491 2.861-.491c.978 0 1.694.117 1.694.96 0 .512-.088.701-.088.701s-.771-.068-1.128-.068c-2.272 0-4.658 1.029-4.658 4.13 0 2.444 1.566 3.005 2.536 3.005 1.853 0 2.651-1.276 2.694-1.28l-.087 1.065h2.313l1.032-7.676c0-3.256-2.677-3.36-3.607-3.36zm.563 6.25c.05.469-.277 2.666-1.858 2.666-.816 0-1.028-.661-1.028-1.052 0-.763.39-1.679 2.315-1.679.448 0 .495.052.57.065zm5.501 4.945c.592 0 3.974.16 3.974-3.543 0-3.462-3.13-2.778-3.13-4.17 0-.692.51-.91 1.443-.91.37 0 1.795.125 1.795.125l.33-2.46s-.921-.22-2.422-.22c-1.943 0-3.915.823-3.915 3.64 0 3.19 3.288 2.87 3.288 4.214 0 .898-.919.97-1.627.97-1.225 0-2.328-.446-2.332-.424l-.35 2.436c.063.02.744.342 2.947.342zm52.206-13.403l-.567 3.73s-.988-1.449-2.536-1.449c-2.406 0-4.412 3.08-4.412 6.617 0 2.284 1.07 4.521 3.257 4.521 1.573 0 2.445-1.164 2.445-1.164l-.115.994h2.554l2.007-13.254-2.633.005zm-1.22 7.273c0 1.472-.686 3.439-2.11 3.439-.946 0-1.389-.842-1.389-2.164 0-2.16.915-3.586 2.069-3.586.945 0 1.43.689 1.43 2.311zM5.255 32.504l1.6-10.006.234 10.006h1.81l3.375-10.006-1.495 10.006h2.689l2.07-13.272H11.38l-2.589 8.143-.135-8.143H4.824l-2.1 13.272zm40.465.018c.765-4.613.907-8.36 2.731-7.674.32-1.785.628-2.476.977-3.232 0 0-.164-.036-.507-.036-1.176 0-2.047 1.705-2.047 1.705l.234-1.566h-2.446l-1.638 10.803h2.697zm16.33-11.071c-1.8 0-3.18.614-3.18.614l-.381 2.401s1.139-.491 2.861-.491c.978 0 1.693.117 1.693.96 0 .512-.087.701-.087.701s-.771-.068-1.129-.068c-2.27 0-4.657 1.029-4.657 4.13 0 2.444 1.565 3.005 2.535 3.005 1.853 0 2.652-1.276 2.694-1.28l-.086 1.065h2.313l1.032-7.676c0-3.256-2.677-3.36-3.607-3.36zm.564 6.25c.05.469-.277 2.666-1.859 2.666-.815 0-1.027-.661-1.027-1.052 0-.763.39-1.679 2.315-1.679.447 0 .495.052.571.065zm5.157 4.821c.765-4.613.907-8.36 2.73-7.674.32-1.785.629-2.476.977-3.232 0 0-.163-.036-.506-.036-1.177 0-2.048 1.705-2.048 1.705l.234-1.566h-2.445l-1.639 10.803h2.697zm12.551-1.667a.77.77 0 0 1 .391.11.744.744 0 0 1 .299.313.893.893 0 0 1 .001.845.776.776 0 0 1-.691.425.779.779 0 0 1-.693-.425.887.887 0 0 1 .001-.845.755.755 0 0 1 .299-.313.78.78 0 0 1 .393-.11m0 .14c-.112 0-.22.03-.327.092a.627.627 0 0 0-.25.262.745.745 0 0 0-.002.703.655.655 0 0 0 .91.262.652.652 0 0 0 .246-.262.746.746 0 0 0-.002-.703.62.62 0 0 0-.249-.262.64.64 0 0 0-.326-.092m-.35 1.174v-.91h.296c.1 0 .174.008.219.026.045.016.08.045.108.087a.249.249 0 0 1-.027.307.253.253 0 0 1-.178.083c.03.014.054.03.073.048.034.036.076.096.127.18l.105.18h-.17l-.075-.144a.736.736 0 0 0-.146-.212.168.168 0 0 0-.11-.032h-.082v.388h-.14m.14-.513h.167c.08 0 .135-.013.164-.038a.127.127 0 0 0 .045-.101.129.129 0 0 0-.08-.12.413.413 0 0 0-.14-.016h-.156v.275" fill="#FFF"/></g></svg>