<?xml version="1.0" encoding="UTF-8"?>
<svg width="83px" height="50px" viewBox="0 0 83 50" version="1.1" xmlns="http://www.w3.org/2000/svg" xmlns:xlink="http://www.w3.org/1999/xlink">
    <!-- Generator: Sketch 50.2 (55047) - http://www.bohemiancoding.com/sketch -->
    <title>MasterCard_Logo</title>
    <desc>Created with Sketch.</desc>
    <defs></defs>
    <g id="Page-1" stroke="none" stroke-width="1" fill="none" fill-rule="evenodd">
        <g id="Desktop-HD-Copy" transform="translate(-810.000000, -4142.000000)" fill-rule="nonzero">
            <g id="Финиш" transform="translate(0.000000, 3772.000000)">
                <g id="Group-8" transform="translate(708.000000, 370.000000)">
                    <g id="MasterCard_Logo" transform="translate(102.000000, 0.000000)">
                        <g id="g10305">
                            <path d="M82.7303893,25 C82.7342886,38.6692737 71.688047,49.752514 58.0582215,49.7561453 C44.4281174,49.7594972 33.3771409,38.6818436 33.3735201,25.0125698 C33.3735201,25.0081006 33.3735201,25.0044693 33.3735201,25 C33.3698993,11.3310056 44.4161409,0.247206704 58.0454094,0.243575419 C71.6755134,0.239944134 82.7267685,11.3181564 82.7303893,24.9874302 C82.7303893,24.9916201 82.7303893,24.9955307 82.7303893,25 Z" id="path2268" fill="#FF9900"></path>
                            <path d="M24.7888691,0.25 C11.2398154,0.336312849 0.269332215,11.3913408 0.269332215,25 C0.269332215,38.6617318 11.3253221,49.7497207 24.947906,49.7497207 C31.3414128,49.7497207 37.1692383,47.3061453 41.5545906,43.3011173 C41.5543121,43.3011173 41.553755,43.3005587 41.5526409,43.3 L41.5579329,43.3 C42.4558926,42.4793296 43.2934128,41.5938547 44.0632517,40.6497207 L39.0072148,40.6497207 C38.3320738,39.8318436 37.7184866,38.9796089 37.1672886,38.1002793 L45.887302,38.1002793 C46.4176107,37.249162 46.8977852,36.3653631 47.3239262,35.45 L35.7276007,35.45 C35.3323758,34.6002793 34.9892349,33.7312849 34.6962282,32.8497207 L48.3564128,32.8497207 C49.1797282,30.3826816 49.6264799,27.7432961 49.6264799,24.9997207 C49.6264799,23.1807263 49.4298423,21.4072626 49.0577349,19.6997207 L33.9717886,19.6997207 C34.1586779,18.8209497 34.3945872,17.9527933 34.675896,17.0997207 L48.341094,17.0997207 C48.0355537,16.1918994 47.6807148,15.3072626 47.2771342,14.4497207 L35.7262081,14.4497207 C36.1428792,13.5569832 36.6149765,12.6885475 37.1422215,11.85 L45.8558289,11.85 C45.275943,10.9234637 44.6342248,10.0382682 43.9404228,9.19972067 L39.0821376,9.19972067 C39.8333154,8.31312849 40.6602517,7.47821229 41.5579329,6.69972067 C37.172302,2.69413408 31.3428054,0.25 24.947906,0.25 C24.8947081,0.25 24.8420671,0.24972067 24.7888691,0.25 Z" id="path1350" fill="#CC0000"></path>
                            <path d="M80.254594,37.9385475 C80.3888423,37.9385475 80.5194698,37.9734637 80.6470336,38.0421788 C80.7751544,38.1108939 80.8737517,38.2100559 80.9450537,38.3388268 C81.0163557,38.4662011 81.0520067,38.6005587 81.0520067,38.7396648 C81.0520067,38.877095 81.0166342,39.0100559 80.9464463,39.1374302 C80.8765369,39.2645251 80.7779396,39.3636872 80.6509329,39.4343575 C80.5253188,39.5039106 80.3924631,39.5391061 80.2543154,39.5391061 C80.1161678,39.5391061 79.9835906,39.5039106 79.8571409,39.4343575 C79.7304128,39.3634078 79.6323725,39.2648045 79.5610705,39.1374302 C79.4908826,39.0100559 79.4560671,38.877095 79.4560671,38.7396648 C79.4560671,38.6005587 79.4914396,38.4662011 79.5630201,38.3388268 C79.6348792,38.2100559 79.7340336,38.1117318 79.8613188,38.0421788 C79.9899966,37.9734637 80.1206242,37.9385475 80.254594,37.9385475 M80.254594,38.0712291 C80.142906,38.0712291 80.0337248,38.1002793 79.9270503,38.1581006 C79.8212114,38.2159218 79.7384899,38.2977654 79.6788859,38.4061453 C79.6184463,38.5128492 79.5883658,38.6234637 79.5883658,38.7396648 C79.5883658,38.8547486 79.6178893,38.9659218 79.6761007,39.0715084 C79.7357047,39.1768156 79.8181477,39.2594972 79.9234295,39.3187151 C80.029547,39.3776536 80.1395638,39.4067039 80.2543154,39.4067039 C80.3696242,39.4067039 80.4799195,39.3776536 80.5854799,39.3187151 C80.6907617,39.2594972 80.7729262,39.1768156 80.8316946,39.0715084 C80.889906,38.9659218 80.9188725,38.8550279 80.9188725,38.7396648 C80.9188725,38.6234637 80.889349,38.5125698 80.8294664,38.4061453 C80.7701409,38.2977654 80.6871409,38.2159218 80.5804664,38.1581006 C80.474906,38.1 80.3662819,38.0712291 80.254594,38.0712291 M79.9047685,39.1815642 L79.9047685,38.3206704 L80.2005604,38.3206704 C80.3008289,38.3206704 80.373802,38.3284916 80.4189228,38.3452514 C80.4640436,38.3611732 80.4999732,38.3882682 80.5269899,38.4282123 C80.5534497,38.4675978 80.5670973,38.5094972 80.5670973,38.5541899 C80.5670973,38.6173184 80.5448154,38.672067 80.4996946,38.7184358 C80.4556879,38.7648045 80.3958054,38.7913408 80.3217181,38.7969274 C80.3520772,38.8094972 80.3763087,38.825419 80.3952483,38.8427374 C80.4300638,38.876257 80.4718423,38.9329609 80.5219765,39.0131285 L80.6264228,39.1815642 L80.4576376,39.1815642 L80.3818792,39.0460894 C80.3219966,38.9393855 80.2738121,38.872905 80.2367685,38.8455307 C80.2114228,38.826257 80.1743792,38.8162011 80.1261946,38.8162011 L80.0445872,38.8162011 L80.0445872,39.1824022 L79.9053255,39.1824022 M80.0434732,38.6969274 L80.2117013,38.6969274 C80.2919161,38.6969274 80.3462282,38.6846369 80.3754732,38.6608939 C80.4049966,38.6363128 80.4197584,38.6050279 80.4197584,38.5653631 C80.4197584,38.5396648 80.4130738,38.5167598 80.3988691,38.4972067 C80.3843859,38.4768156 80.3648893,38.4622905 80.3395436,38.4519553 C80.314755,38.4421788 80.2685201,38.4365922 80.2011174,38.4365922 L80.0440302,38.4365922 L80.0440302,38.6969274" id="use9412" fill="#FCB340"></path>
                        </g>
                        <g id="g16480" transform="translate(1.784946, 18.750000)">
                            <g id="g13802" transform="translate(0.071256, 0.589059)" fill="#000066">
                                <path d="M31.3805887,13.8633797 L31.7090967,11.4940257 C31.5295309,11.4940257 31.2656109,11.5764509 31.0323145,11.5764509 C30.11806,11.5764509 30.0039174,11.0579701 30.0757438,10.6792279 L30.9766352,5.9139312 L32.3663912,5.9139312 L32.6528613,3.22462579 L31.3430052,3.22462579 L31.6097091,1.5950302 L28.8697296,1.5950302 C28.8118231,1.65647978 27.3196172,10.7598805 27.3196172,11.8689273 C27.3196172,13.5100446 28.1876579,14.2403493 29.4120462,14.2288275 C30.3702874,14.22026 31.1172255,13.9387145 31.3805887,13.8633797 Z" id="path13804"></path>
                                <path d="M32.2121594,9.34683561 C32.2121594,13.2855173 34.6617713,14.2211463 36.7491892,14.2211463 C38.6759722,14.2211463 39.6862735,13.7472755 39.6862735,13.7472755 L40.1489687,11.0588564 C40.1489687,11.0588564 38.5209053,11.7613905 37.1976861,11.7613905 C34.3772499,11.7613905 34.8716823,9.5297072 34.8716823,9.5297072 L40.2901158,9.54713761 C40.2901158,9.54713761 40.6350492,7.74176077 40.6350492,7.00584296 C40.6350492,5.16915047 39.6921198,2.91442358 36.8084876,2.91442358 C34.1676173,2.91501444 32.2121594,5.93461134 32.2121594,9.34683561 Z M36.8185099,5.4102219 C38.3006935,5.4102219 38.027308,7.17807904 38.027308,7.32136292 L35.1113818,7.32136292 C35.1113818,7.1381959 35.3867161,5.4102219 36.8185099,5.4102219 Z" id="path13806"></path>
                                <path d="M53.4493673,13.8624934 L53.9195792,10.8242844 C53.9195792,10.8242844 52.630046,11.509979 51.7461367,11.509979 C49.8828282,11.509979 49.1353332,10.0003283 49.1353332,8.37811843 C49.1353332,5.08790704 50.738341,3.27750788 52.5228633,3.27750788 C53.8613943,3.27750788 54.93517,4.07487526 54.93517,4.07487526 L55.3639008,1.12263655 C55.3639008,1.12263655 54.0960826,0.150965074 52.7313824,0.145351891 C48.6264242,0.128216912 46.2775919,3.16110819 46.2775919,8.40411633 C46.2775919,11.8792673 48.017014,14.2441899 51.1512032,14.2441899 C52.0373396,14.2441899 53.4493673,13.8624934 53.4493673,13.8624934 Z" id="path13808"></path>
                                <path d="M16.9348665,2.95785189 C15.1339187,2.95785189 13.7536283,3.57205226 13.7536283,3.57205226 L13.3722249,5.97301733 C13.3722249,5.97301733 14.5117023,5.48171612 16.2344206,5.48171612 C17.2124279,5.48171612 17.9279072,5.59841124 17.9279072,6.44186581 C17.9279072,6.95414259 17.8404907,7.14321822 17.8404907,7.14321822 C17.8404907,7.14321822 17.0687752,7.07497374 16.711314,7.07497374 C14.1472811,7.07497374 12.0540169,8.10366334 12.0540169,11.2050945 C12.0540169,13.6491925 13.6194411,14.2096245 14.5896533,14.2096245 C16.4429396,14.2096245 17.1765147,12.9679294 17.218831,12.9643842 L17.1973945,13.9948464 C17.1973945,13.9948464 19.5097568,13.9948464 19.5100352,13.9948464 L20.5417731,6.31955751 C20.5417731,3.06243435 17.8647112,2.95785189 16.9348665,2.95785189 Z M17.3352008,9.19025735 C17.3855906,9.6588104 17.2210582,11.8745404 15.6392086,11.8745404 C14.8235065,11.8745404 14.6116467,11.2127757 14.6116467,10.8222164 C14.6116467,10.0588235 15.0022371,9.14328388 16.9265146,9.14328388 C17.3747331,9.14328388 17.2597553,9.17755383 17.3352008,9.19025735 Z" id="path13810"></path>
                                <path d="M22.9997368,14.1529018 C23.5913297,14.1529018 26.9730134,14.3127298 26.9730134,10.6095063 C26.9730134,7.14676339 23.8427218,7.83127626 23.8427218,6.43979779 C23.8427218,5.74789916 24.3530228,5.52987132 25.2859299,5.52987132 C25.655919,5.52987132 27.0807529,5.6548385 27.0807529,5.6548385 L27.4117665,3.193901 C27.4117665,3.19419643 26.4897169,2.97498687 24.9886023,2.97498687 C23.0456723,2.97498687 21.0735106,3.79805672 21.0735106,6.61410189 C21.0735106,9.80534401 24.3619315,9.48480173 24.3619315,10.8290113 C24.3619315,11.7262342 23.4432227,11.8000919 22.7349817,11.8000919 C21.5097581,11.8000919 20.4067507,11.3536962 20.4028532,11.3752626 L20.0523518,13.8110885 C20.1161046,13.8317686 20.7967844,14.1529018 22.9997368,14.1529018 Z" id="path13812"></path>
                                <path d="M75.1133571,0.7252823 L74.6386909,4.47991071 C74.6386909,4.47991071 73.6495477,3.03082327 72.1019409,3.03082327 C69.1901906,3.03082327 67.6896328,6.11009716 67.6896328,9.6472886 C67.6896328,11.9309677 68.7597894,14.1694459 70.9465949,14.1694459 C72.5198142,14.1694459 73.3920308,13.0051536 73.3920308,13.0051536 L73.2764962,13.9992778 L75.8316204,13.9992778 L77.8380248,0.745667017 L75.1133571,0.7252823 Z M73.985294,8.02271534 C73.985294,9.49484638 73.2982111,11.4615284 71.8747692,11.4615284 C70.9293343,11.4615284 70.4861269,10.6192555 70.4861269,9.29779412 C70.4861269,7.13671875 71.4006598,5.71126576 72.5551706,5.71126576 C73.5000487,5.71126576 73.985294,6.39961922 73.985294,8.02271534 Z" id="path13814"></path>
                                <polygon id="path13816" points="2.71408866 14.0102088 4.31292045 4.0039719 4.5478872 14.0102088 6.35718684 14.0102088 9.73274587 4.0039719 8.23747762 14.0102088 10.9262322 14.0102088 12.9966679 0.738872111 8.72550689 0.704306723 6.18485933 8.82983193 6.11526018 0.738872111 2.20100369 0.738872111 0.100779577 14.0102088"></polygon>
                                <path d="M43.1795943,14.0291163 C43.9440714,9.41596639 44.2163433,5.77271534 46.4457435,6.52724527 C46.7658996,4.74166229 47.5289847,3.18887868 47.8775373,2.43316702 C47.8775373,2.43316702 47.7672922,2.25915835 47.0782606,2.25915835 C45.9020349,2.25915835 44.3315995,4.79218093 44.3315995,4.79218093 L44.5662879,3.22610294 L42.1202952,3.22610294 L40.4822094,14.0288209 L43.1795943,14.0288209 L43.1795943,14.0291163 Z" id="path13818"></path>
                                <g id="use14699" transform="translate(53.814095, 2.954307)">
                                    <path d="M5.13641766,0.00354516807 C3.33463473,0.00354516807 1.95434428,0.617745536 1.95434428,0.617745536 L1.57321931,3.01871061 C1.57321931,3.01871061 2.71325347,2.5274094 4.43513657,2.5274094 C5.41342229,2.5274094 6.12862321,2.64410452 6.12862321,3.48755909 C6.12862321,3.99983587 6.04148507,4.1889115 6.04148507,4.1889115 C6.04148507,4.1889115 5.27004804,4.12066702 4.91258677,4.12066702 C2.3482755,4.12066702 0.255289701,5.14935662 0.255289701,8.25078782 C0.255289701,10.6948858 1.8204355,11.2553178 2.79064773,11.2553178 C4.64337724,11.2553178 5.37750913,10.0136226 5.41954702,10.0100775 L5.39783208,11.0405397 L7.71102961,11.0405397 L8.74248909,3.36525079 C8.74276749,0.108127626 6.06570558,0.00354516807 5.13641766,0.00354516807 Z M5.5361952,6.23595063 C5.5863066,6.70450368 5.42177419,8.92023372 3.84020299,8.92023372 C3.0239441,8.92023372 2.81236267,8.25846901 2.81236267,7.86790966 C2.81236267,7.10451681 3.20267473,6.18897715 5.12723057,6.18897715 C5.57572752,6.18897715 5.46102812,6.22324711 5.5361952,6.23595063 Z" id="path13810_1_"></path>
                                </g>
                                <path d="M65.2188628,14.0291163 C65.6386849,10.6352088 66.4156899,5.87050289 68.4847336,6.52724527 C68.8046113,4.74166229 68.4961478,4.74638918 67.8073946,4.74638918 C66.6303337,4.74638918 66.3697544,4.7918855 66.3697544,4.7918855 L66.6047212,3.22580751 L64.1590069,3.22580751 L62.5209212,14.0288209 L65.2188628,14.0288209 L65.2188628,14.0291163 Z" id="use14701"></path>
                            </g>
                            <g id="g10289" transform="translate(0.835190, 0.000000)" fill="#FFFFFF">
                                <path d="M31.3012457,13.6072413 L31.6300321,11.2381828 C31.4504663,11.2381828 31.1862679,11.3197216 30.9532499,11.3197216 C30.0389954,11.3197216 29.9382158,10.8038997 29.9964007,10.4224987 L30.734987,5.58866203 L32.1244645,5.58866203 L32.4599324,2.96819196 L31.1497979,2.96819196 L31.4165019,1.33859638 L28.7901082,1.33859638 C28.7322017,1.40004596 27.2397174,10.5037421 27.2397174,11.612198 C27.2397174,13.2533154 28.1080364,13.9842109 29.3324248,13.9723936 C30.2912227,13.9638262 31.0378825,13.6822807 31.3012457,13.6072413 Z" id="path4157"></path>
                                <path d="M32.1333732,9.09040179 C32.1333732,13.0290835 34.5832634,13.9650079 36.6704029,13.9650079 C38.5969075,13.9650079 39.4446252,13.5079766 39.4446252,13.5079766 L39.9073204,10.8198529 C39.9073204,10.8198529 38.4418406,11.5049567 37.1183431,11.5049567 C34.2981853,11.5049567 34.7920609,9.2735688 34.7920609,9.2735688 L40.1294809,9.2735688 C40.1294809,9.2735688 40.4741359,7.4676011 40.4741359,6.7316833 C40.4741359,4.89528624 39.6127768,2.65769433 36.7291446,2.65769433 C34.0882743,2.65828519 32.1333732,5.67788209 32.1333732,9.09040179 Z M36.7391669,5.15378808 C38.2213505,5.15378808 37.947965,6.92134979 37.947965,7.06433824 L35.0320388,7.06433824 C35.0320388,6.88176208 35.3076515,5.15378808 36.7391669,5.15378808 Z" id="path4155"></path>
                                <path d="M53.370581,13.6060596 L53.8405145,10.5675551 C53.8405145,10.5675551 52.5518166,11.2532497 51.6673505,11.2532497 C49.8043203,11.2532497 49.0571038,9.743599 49.0571038,8.12168461 C49.0571038,4.83147321 50.6601115,3.02136949 52.4446339,3.02136949 C53.7828864,3.02136949 54.8569406,3.81873687 54.8569406,3.81873687 L55.2856714,0.866498162 C55.2856714,0.866498162 53.6929643,0.182576155 52.3277073,0.182576155 C49.2956897,0.182576155 46.3460775,2.97380515 46.3460775,8.215927 C46.3460775,11.6919643 47.9387845,13.987756 51.0729737,13.987756 C51.9591101,13.9880515 53.370581,13.6060596 53.370581,13.6060596 Z" id="path4151"></path>
                                <path d="M16.8560802,2.70112264 C15.0551325,2.70112264 13.6745636,3.315323 13.6745636,3.315323 L13.2934387,5.71628808 C13.2934387,5.71628808 14.432916,5.22498687 16.1553559,5.22498687 C17.1333632,5.22498687 17.8488426,5.34168199 17.8488426,6.18513655 C17.8488426,6.69741334 17.7611476,6.88648897 17.7611476,6.88648897 C17.7611476,6.88648897 16.9897106,6.81794905 16.6325277,6.81794905 C14.3610897,6.81794905 11.9749523,7.84663866 11.9749523,10.9480699 C11.9749523,13.3918724 13.5403765,13.9525998 14.5105887,13.9525998 C16.3635966,13.9525998 17.1623165,12.6766347 17.2049112,12.6727941 L17.1183298,13.7378217 L19.4309706,13.7378217 L20.4627084,6.06223739 C20.4627084,2.80600053 17.7859249,2.70112264 16.8560802,2.70112264 Z M17.4187198,8.95066308 C17.4688312,9.41951155 17.1417151,11.6172203 15.5604223,11.6172203 C14.7447202,11.6172203 14.532582,10.9560465 14.532582,10.5648963 C14.532582,9.80209428 14.9231725,8.88625919 16.8477283,8.88625919 C17.2953901,8.88685005 17.3432743,8.93766413 17.4187198,8.95066308 Z" id="path4149"></path>
                                <path d="M22.9206722,13.896468 C23.512265,13.896468 26.8942272,14.0560005 26.8942272,10.352777 C26.8942272,6.890625 23.7636572,7.57454701 23.7636572,6.1836594 C23.7636572,5.49116991 24.2739582,5.27314207 25.2065869,5.27314207 C25.5768544,5.27314207 27.0014099,5.39810924 27.0014099,5.39810924 L27.3327019,2.93717174 C27.3327019,2.93746717 26.4106522,2.71825762 24.9095377,2.71825762 C22.9666076,2.71825762 20.994446,3.54132747 20.994446,6.35737264 C20.994446,9.54831933 24.2828669,9.22807248 24.2828669,10.572282 C24.2828669,11.469505 23.364158,11.5424764 22.6561954,11.5424764 C21.4309719,11.5424764 20.3276861,11.0963761 20.3237885,11.1176471 L19.9735656,13.5537684 C20.03704,13.5744485 20.7174413,13.896468 22.9206722,13.896468 Z" id="path4145"></path>
                                <path d="M75.125885,0.492778361 L74.5593478,4.22318146 C74.5593478,4.22318146 73.5707614,2.77409401 72.0231546,2.77409401 C69.6166942,2.77409401 67.6108466,5.85307248 67.6108466,9.39085478 C67.6108466,11.6745339 68.6807248,13.9121258 70.8678086,13.9121258 C72.441028,13.9121258 73.3132446,12.7481289 73.3132446,12.7481289 L73.19771,13.7422532 L75.7522774,13.7422532 L77.7586818,0.488346901 L75.125885,0.492778361 Z M73.9062294,7.76628151 C73.9062294,9.23841255 73.2194249,11.2047991 71.7954262,11.2047991 C70.8502697,11.2047991 70.4073406,10.3628217 70.4073406,9.04136029 C70.4073406,6.88058036 71.3218735,5.45483193 72.4758275,5.45483193 C73.4212625,5.4545365 73.9062294,6.14377626 73.9062294,7.76628151 Z" id="path4139"></path>
                                <polygon id="path4133" points="2.63530241 13.7537749 4.23413421 3.74753808 4.46882256 13.7537749 6.2784006 13.7537749 9.65395963 3.74753808 8.15869137 13.7537749 10.8474459 13.7537749 12.91816 0.482142857 8.76030647 0.482142857 6.1709395 8.62509848 6.03619554 0.482142857 2.20350926 0.482142857 0.10300675 13.7537749"></polygon>
                                <path d="M43.1008081,13.7720916 C43.8652852,9.15864627 44.0069891,5.41258535 45.8313221,6.09827994 C46.150643,4.31269695 46.4588281,3.62198004 46.8073807,2.86626838 C46.8073807,2.86626838 46.6439619,2.82993041 46.3009772,2.82993041 C45.1247515,2.82993041 44.2533701,4.53515625 44.2533701,4.53515625 L44.4875016,2.96907826 L42.0420657,2.96907826 L40.4037016,13.7720916 L43.1008081,13.7720916 Z" id="path4131"></path>
                                <g id="use8523" transform="translate(54.289067, 2.658876)">
                                    <path d="M5.14170719,0.0422465861 C3.34075945,0.0422465861 1.96019061,0.656446954 1.96019061,0.656446954 L1.57934403,3.05741203 C1.57934403,3.05741203 2.7188214,2.56611082 4.44126129,2.56611082 C5.41926862,2.56611082 6.13419115,2.68280593 6.13419115,3.5262605 C6.13419115,4.03853729 6.047053,4.22761292 6.047053,4.22761292 C6.047053,4.22761292 5.27561597,4.159073 4.91815471,4.159073 C2.64699507,4.159073 0.260857634,5.18776261 0.260857634,8.2891938 C0.260857634,10.7329963 1.82600344,11.2937237 2.79621566,11.2937237 C4.64922357,11.2937237 5.44794348,10.0177587 5.49025976,10.0139181 L5.40423521,11.0789456 C5.40423521,11.0789456 7.71604075,11.0789456 7.71687594,11.0789456 L8.74833542,3.40336134 C8.74861381,0.147124475 6.07155191,0.0422465861 5.14170719,0.0422465861 Z M5.70518195,6.29178703 C5.75529335,6.7606355 5.42789892,8.95834428 3.84604932,8.95834428 C3.03034722,8.95834428 2.81876579,8.29717043 2.81876579,7.90602022 C2.81876579,7.14321822 3.20935625,6.22738314 5.13363369,6.22738314 C5.58129546,6.227974 5.62890128,6.27878808 5.70518195,6.29178703 Z" id="path4149_1_"></path>
                                </g>
                                <g id="use8525" transform="translate(62.440381, 2.658876)">
                                    <path d="M2.7107479,11.1132156 C3.47550342,6.49977022 3.6172073,2.7537093 5.44098356,3.43940389 C5.76086128,1.6538209 6.06932473,0.963103992 6.41759891,0.207392332 C6.41759891,0.207392332 6.25418009,0.171054359 5.91119545,0.171054359 C4.73496973,0.171054359 3.86358831,1.8762802 3.86358831,1.8762802 L4.09771986,0.310202206 L1.65228395,0.310202206 L0.013919831,11.1132156 L2.7107479,11.1132156 Z" id="path4131_1_"></path>
                                </g>
                                <path d="M77.7018889,12.1052718 C77.8352409,12.1052718 77.9666441,12.1416098 78.0933145,12.2154674 C78.2210986,12.2869617 78.3204862,12.392135 78.3917557,12.5283285 C78.4633037,12.6636358 78.4983816,12.8045562 78.4983816,12.9519761 C78.4983816,13.0976234 78.4633037,13.2382484 78.3928693,13.3726694 C78.3229918,13.5070903 78.2247178,13.6125591 78.0980473,13.6867122 C77.9716552,13.7605699 77.8391384,13.7977941 77.7016105,13.7977941 C77.562969,13.7977941 77.4304522,13.7605699 77.3037817,13.6867122 C77.1773897,13.6119682 77.0793941,13.5070903 77.0092381,13.3726694 C76.9379686,13.2382484 76.903169,13.0976234 76.903169,12.9519761 C76.903169,12.8045562 76.9385254,12.6636358 77.0100733,12.5283285 C77.0818996,12.392135 77.1815656,12.2875525 77.3087929,12.2154674 C77.4371337,12.1416098 77.5685369,12.1052718 77.7018889,12.1052718 M77.7018889,12.2447151 C77.5902519,12.2447151 77.4811204,12.2754399 77.3744945,12.3371849 C77.268147,12.3974527 77.1854632,12.4846048 77.1256079,12.598641 C77.066031,12.7112001 77.0359642,12.8290769 77.0359642,12.9513852 C77.0359642,13.0736935 77.0649174,13.1906841 77.1231023,13.3023569 C77.1824008,13.4137342 77.2648062,13.5011817 77.3711537,13.5641085 C77.4763876,13.625558 77.5863543,13.6565783 77.7018889,13.6565783 C77.8165883,13.6565783 77.9273902,13.625558 78.0326241,13.5641085 C78.137858,13.5011817 78.2202634,13.4137342 78.2787267,13.3023569 C78.3374684,13.1897978 78.3661432,13.0736935 78.3661432,12.9513852 C78.3661432,12.8290769 78.3363548,12.7112001 78.2767779,12.598641 C78.2174794,12.4846048 78.1347956,12.3974527 78.0278913,12.3371849 C77.9221006,12.2757353 77.8138043,12.2447151 77.7018889,12.2447151 M77.3525011,13.4193474 L77.3525011,12.5085347 L77.64788,12.5085347 C77.7483811,12.5085347 77.8218778,12.5171022 77.8664213,12.5345326 C77.9115216,12.5507812 77.9468779,12.5800289 77.9744392,12.6222755 C78.0014437,12.6642266 78.0150851,12.7082458 78.0150851,12.7555147 C78.0150851,12.8219866 77.9922566,12.8801864 77.9471563,12.9292279 C77.9031697,12.9782694 77.8438712,13.0066308 77.7698177,13.0119485 C77.7993277,13.0255383 77.8238266,13.041787 77.8427576,13.0601037 C77.8770004,13.0961463 77.9193167,13.1564141 77.9694281,13.2406119 L78.0743836,13.419052 L77.90484,13.419052 L77.8293946,13.2757681 C77.7692609,13.1626182 77.7210983,13.0923057 77.6843499,13.0636489 C77.6590158,13.0426733 77.6219891,13.0323332 77.5732697,13.0323332 L77.4922562,13.0323332 L77.4922562,13.4196429 L77.3525011,13.4193474 M77.4911427,12.9067752 L77.6592942,12.9067752 C77.7397508,12.9067752 77.7940382,12.8940717 77.8229914,12.8686647 C77.8522231,12.8438485 77.8675349,12.8098739 77.8675349,12.7676274 C77.8675349,12.7407432 77.860575,12.7165179 77.8466551,12.6961331 C77.8324569,12.6742713 77.8126908,12.6586134 77.7873567,12.6476825 C77.7620226,12.6373424 77.7166439,12.6320247 77.6487151,12.6320247 L77.4914211,12.6320247 L77.4914211,12.9067752" id="text9407"></path>
                            </g>
                        </g>
                    </g>
                </g>
            </g>
        </g>
    </g>
</svg>