<svg width="100" height="30" xmlns="http://www.w3.org/2000/svg"><g fill="none"><path fill="#004686" d="M35.577 30L40.756.682h8.282L43.856 30zM74.038 1.22C72.388.63 69.801 0 66.571 0c-8.232 0-14.032 3.942-14.08 9.591-.047 4.176 4.14 6.506 7.3 7.896 3.243 1.424 4.333 2.333 4.317 3.606-.02 1.947-2.59 2.838-4.984 2.838-3.335 0-5.107-.44-7.843-1.526l-1.073-.463-1.17 6.507c1.947.811 5.545 1.514 9.281 1.551 8.758 0 14.444-3.897 14.508-9.93.032-3.306-2.188-5.822-6.995-7.896-2.912-1.345-4.696-2.242-4.677-3.603 0-1.209 1.51-2.5 4.772-2.5 2.724-.041 4.698.524 6.235 1.113l.747.335 1.13-6.298zm19.46-.538H87.29c-1.922 0-3.362.523-4.206 2.434l-11.93 26.883h8.435s1.38-3.614 1.691-4.407c.923 0 9.117.012 10.288.012.24 1.027.978 4.396.978 4.396H100L93.498.681zM83.592 19.59c.665-1.69 3.2-8.2 3.2-8.2-.046.077.66-1.699 1.066-2.8l.543 2.528 1.86 8.472h-6.669zM28.838.682l-8.006 20.025-.853-4.07C18.49 11.947 13.845 6.865 8.654 4.32L15.974 30l8.652-.01L37.5.682h-8.662z"/><path d="M13.51.682H.106l-.106.6c10.428 2.386 17.328 8.153 20.192 15.082L17.278 3.116C16.775 1.291 15.315.746 13.51.682z" fill="#EF9B11"/></g></svg>