<svg xmlns="http://www.w3.org/2000/svg" width="59.409" height="59.409" viewBox="0 0 59.409 59.409"><path d="M43.014,0H16.394A16.413,16.413,0,0,0,0,16.395V43.014A16.413,16.413,0,0,0,16.394,59.409H43.014a16.413,16.413,0,0,0,16.4-16.395V16.395A16.413,16.413,0,0,0,43.014,0ZM54.138,43.014A11.136,11.136,0,0,1,43.014,54.138H16.394A11.136,11.136,0,0,1,5.271,43.014V16.395A11.136,11.136,0,0,1,16.394,5.271H43.014A11.137,11.137,0,0,1,54.138,16.395V43.014Z" fill="#8457e7"/><path d="M56.276,40.97A15.308,15.308,0,1,0,71.584,56.278,15.325,15.325,0,0,0,56.276,40.97Zm0,25.344A10.037,10.037,0,1,1,66.313,56.278,10.048,10.048,0,0,1,56.276,66.314Z" transform="translate(-26.572 -26.573)" fill="#8457e7"/><path d="M122.786,28.251a3.863,3.863,0,1,0,2.734,1.132A3.881,3.881,0,0,0,122.786,28.251Z" transform="translate(-77.132 -18.324)" fill="#8457e7"/></svg>