<svg xmlns="http://www.w3.org/2000/svg" width="62.151" height="48.832"><g fill="#8457e7"><path d="M5.965 15.052q1.179.832 7.11 4.942t9.087 6.329q.347.243 1.474 1.058t1.873 1.318q.746.5 1.8 1.127a10.464 10.464 0 0 0 1.994.935 5.5 5.5 0 0 0 1.734.312h.07a5.5 5.5 0 0 0 1.734-.312 10.474 10.474 0 0 0 1.994-.935q1.058-.625 1.8-1.127t1.88-1.319q1.127-.816 1.474-1.058 3.19-2.219 16.231-11.272a16.476 16.476 0 0 0 4.231-4.266 9.159 9.159 0 0 0 1.7-5.236A5.6 5.6 0 0 0 56.6 0H5.549a4.953 4.953 0 0 0-4.11 1.8A7 7 0 0 0 0 6.312a8.1 8.1 0 0 0 1.908 4.734 17.215 17.215 0 0 0 4.057 4.006z"/><path d="M58.682 18.762q-11.375 7.7-17.271 11.966-1.977 1.456-3.208 2.271a19.8 19.8 0 0 1-3.277 1.664 9.98 9.98 0 0 1-3.814.85h-.07a9.983 9.983 0 0 1-3.815-.85 19.808 19.808 0 0 1-3.277-1.664q-1.231-.814-3.208-2.271Q16.058 27.294 3.5 18.762A18.371 18.371 0 0 1 0 15.745v27.537a5.342 5.342 0 0 0 1.63 3.919 5.343 5.343 0 0 0 3.919 1.63H56.6a5.566 5.566 0 0 0 5.549-5.55V15.745a19.125 19.125 0 0 1-3.467 3.017z"/></g></svg>