<svg xmlns="http://www.w3.org/2000/svg" width="59.409" height="59.409" viewBox="0 0 59.409 59.409"><g transform="translate(-0.001)"><path d="M29.706,0a29.7,29.7,0,1,0,29.7,29.7A29.706,29.706,0,0,0,29.706,0ZM45.392,43.342l-2.378,2.379a4.384,4.384,0,0,1-1.708.689A28.053,28.053,0,0,1,13,18.036a4.427,4.427,0,0,1,.7-1.631l2.378-2.379a3.973,3.973,0,0,1,3.713-.878l.5.167A4.7,4.7,0,0,1,23,16.187l1.2,4.391a4.307,4.307,0,0,1-.983,3.76l-1.588,1.588A16.869,16.869,0,0,0,33.488,37.792L35.076,36.2a4.3,4.3,0,0,1,3.761-.987l4.39,1.2A4.7,4.7,0,0,1,46.1,39.129l.167.508A3.978,3.978,0,0,1,45.392,43.342Z" fill="#8457e7"/></g></svg>