<svg xmlns="http://www.w3.org/2000/svg" width="59.409" height="59.409"><path d="M29.705 0a29.7 29.7 0 1 0 29.7 29.7A29.706 29.706 0 0 0 29.705 0zm15.686 43.342l-2.378 2.379a4.384 4.384 0 0 1-1.708.689 28.053 28.053 0 0 1-28.306-28.374 4.427 4.427 0 0 1 .7-1.631l2.378-2.379a3.973 3.973 0 0 1 3.713-.878l.5.167a4.7 4.7 0 0 1 2.709 2.872l1.2 4.391a4.307 4.307 0 0 1-.983 3.76l-1.588 1.588a16.869 16.869 0 0 0 11.859 11.866l1.588-1.592a4.3 4.3 0 0 1 3.761-.987l4.39 1.2a4.7 4.7 0 0 1 2.873 2.716l.167.508a3.978 3.978 0 0 1-.875 3.705z" fill="#8457e7"/></svg>