<svg xmlns="http://www.w3.org/2000/svg" width="25" height="25"><path d="M18.1 0H6.9A6.907 6.907 0 0 0 0 6.9v11.2A6.907 6.907 0 0 0 6.9 25h11.2a6.907 6.907 0 0 0 6.9-6.9V6.9A6.907 6.907 0 0 0 18.1 0zm4.681 18.1a4.686 4.686 0 0 1-4.681 4.682H6.9A4.686 4.686 0 0 1 2.218 18.1V6.9A4.686 4.686 0 0 1 6.9 2.218h11.2A4.686 4.686 0 0 1 22.782 6.9v11.2z" fill="#fff"/><path d="M12.5 7.33a5.17 5.17 0 1 0 5.17 5.17 5.176 5.176 0 0 0-5.17-5.17zm0 8.56a3.39 3.39 0 1 1 3.39-3.39 3.394 3.394 0 0 1-3.39 3.39zm6.557-11.809a1.878 1.878 0 1 0 1.329.55 1.886 1.886 0 0 0-1.329-.55z" fill="#fff"/></svg>