<svg width="20" height="15" xmlns="http://www.w3.org/2000/svg" xmlns:xlink="http://www.w3.org/1999/xlink"><defs><linearGradient x1="0%" y1="50%" x2="100%" y2="50%" id="b"><stop stop-color="#4776E6" offset="0%"/><stop stop-color="#8E54E9" offset="100%"/></linearGradient><path d="M20.515 7.849c0 .306-.123.613-.344.834L9.613 19.241a1.19 1.19 0 0 1-.835.344 1.19 1.19 0 0 1-.835-.344L1.83 13.128a1.19 1.19 0 0 1-.344-.835c0-.307.123-.614.344-.835l1.67-1.67a1.19 1.19 0 0 1 .835-.344c.307 0 .614.123.835.344l3.609 3.622 8.053-8.066A1.19 1.19 0 0 1 17.666 5c.307 0 .614.123.835.344l1.67 1.67c.22.22.344.528.344.835z" id="a"/></defs><g transform="translate(-1 -5)" fill="none" fill-rule="evenodd"><use fill="#000" xlink:href="#a"/><use fill="url(#b)" xlink:href="#a"/></g></svg>