<svg width="57" height="57" xmlns="http://www.w3.org/2000/svg"><defs><linearGradient x1="0%" y1="50%" x2="100%" y2="50%" id="a"><stop stop-color="#EC008C" offset="0%"/><stop stop-color="#FC6767" offset="100%"/></linearGradient></defs><g transform="translate(-1039 -1165)" fill="url(#a)"><path d="M1063.255 1167.062l1.024 1.574a11.676 11.676 0 0 1 12.245 0l1.024-1.574a13.414 13.414 0 0 0-14.293 0zm-4.228 11.019h-1.896a12.829 12.829 0 0 0 1.022 5.036l1.75-.722a10.98 10.98 0 0 1-.876-4.314zm15.748 10.351a11.395 11.395 0 0 1-4.372.862v1.869a13.32 13.32 0 0 0 5.106-1.006l-.734-1.725zm7.005-10.351a10.974 10.974 0 0 1-.876 4.311l1.75.722a12.808 12.808 0 0 0 1.021-5.033h-1.896zm-11.377-9.344c-5.236 0-9.48 4.183-9.48 9.344 0 5.16 4.244 9.344 9.48 9.344 5.233-.005 9.475-4.186 9.48-9.344 0-5.16-4.244-9.344-9.48-9.344zm0 16.82c-4.189 0-7.584-3.347-7.584-7.476 0-4.128 3.395-7.475 7.584-7.475s7.584 3.347 7.584 7.475c-.005 4.127-3.397 7.47-7.584 7.475z"/><path d="M1072.489 1177.783l-1.138-.374v-2.398c.528.182.9.652.948 1.201h1.896c-.085-1.577-1.265-2.886-2.844-3.154v-.584h-1.896v.584c-1.579.268-2.76 1.577-2.844 3.154a2.355 2.355 0 0 0 1.706 2.167l1.138.374v2.396a1.405 1.405 0 0 1-.948-1.2h-1.896c.085 1.578 1.265 2.887 2.844 3.156v.583h1.896v-.583c1.579-.269 2.76-1.578 2.844-3.155a2.355 2.355 0 0 0-1.706-2.167zm-3.034-.996l-.54-.18c-.24-.079-.408-.242-.408-.395.049-.549.42-1.019.948-1.2v1.775zm1.896 4.364v-1.776l.54.18c.24.079.408.242.408.395a1.403 1.403 0 0 1-.948 1.2z"/><path d="M1095.722 1203.584l-3.122-3.077 3.122-3.077a.925.925 0 0 0 0-1.321l-12.324-12.148a.958.958 0 0 0-1.341 0l-12.128 11.954-13.076-12.888a.958.958 0 0 0-1.34 0l-12.325 12.147a.925.925 0 0 0 0 1.322l6.914 6.815h-10.984v1.868h12.324a.947.947 0 0 0 .374-.075l6.457-2.728h14.026v3.738h-10.428a.941.941 0 0 0-.948.934c0 .365.215.696.55.849l12.325 5.606a.96.96 0 0 0 .948-.093l16.419-11.679 2.496 2.46-18.869 15.94h-5.167l-17.855-6.484a.963.963 0 0 0-.328-.058h-12.324v1.87h12.155l17.854 6.482a.96.96 0 0 0 .328.058h5.688a.95.95 0 0 0 .616-.225l19.909-16.82a.925.925 0 0 0 .054-1.37zm-37.643-3.077a.945.945 0 0 0-.374.076l-.23.093c.936-2.394 3.664-3.587 6.093-2.664a4.684 4.684 0 0 1 2.633 2.495h-8.122zm10.148 0c-.83-2.776-3.42-4.68-6.356-4.672-3.355.02-6.174 2.49-6.588 5.771l-2.96 1.25-7.124-7.02 10.984-10.827 15.724 15.498h-3.68zm5.863 11.07l-7.903-3.594h7.06a.941.941 0 0 0 .948-.935v-4.285l5.148 5.074-5.253 3.74zm.194-11.369c.36-1.994 2.122-3.446 4.177-3.438 2.351-.005 4.26 1.87 4.265 4.187.003 2.028-1.464 3.768-3.487 4.135l-4.955-4.884zm6.493 6.398c.38-.152.744-.342 1.086-.565l-.963.686-.123-.12zm9.867-6.814l-8.354 5.948a6.015 6.015 0 0 0 .979-8.535c-2.121-2.624-5.998-3.055-8.66-.965a6.083 6.083 0 0 0-1.864 2.453l-1.476-1.456 11.458-11.294 10.984 10.827-3.067 3.022z"/></g></svg>