<svg xmlns="http://www.w3.org/2000/svg" viewBox="0 0 64 64" width="512" height="512"><linearGradient id="a" gradientUnits="userSpaceOnUse" x1="32" y1="63" x2="32" y2="1"><stop offset="0" stop-color="#9f2fff"/><stop offset="1" stop-color="#0bb1d3"/></linearGradient><path d="M16 57h6v2h-6v-2zm23-26c0 6.617-5.383 12-12 12s-12-5.383-12-12 5.383-12 12-12 12 5.383 12 12zm-2 0c0-5.514-4.486-10-10-10s-10 4.486-10 10 4.486 10 10 10 10-4.486 10-10zm26 0c0 2.757-2.243 5-5 5H47v2h-2v-2h-2.811A16.04 16.04 0 0 1 37 43.47V58c0 2.757-2.243 5-5 5H6c-2.757 0-5-2.243-5-5V6c0-2.757 2.243-5 5-5h26c2.757 0 5 2.243 5 5v12.53A16.047 16.047 0 0 1 42.189 26H45v-2h2v2h11c2.757 0 5 2.243 5 5zM3 6v1h32V6c0-1.654-1.346-3-3-3H6C4.346 3 3 4.346 3 6zm32 52v-3H3v3c0 1.654 1.346 3 3 3h26c1.654 0 3-1.346 3-3zm0-13.165c-.641.372-1.307.705-2 .987V51H5V11h28v5.178c.693.282 1.359.615 2 .987V9H3v44h32v-8.165zM27 47v2h4v-2.527A15.905 15.905 0 0 1 27 47zm-2-.139a15.834 15.834 0 0 1-4-1.039V49h4v-2.139zM11 45v-2h5.453C13.118 40.066 11 35.78 11 31c0-2.802.729-5.436 2-7.729V19H7v24h2v2H7v4h12v-4h-8zm4-28v3.453a16.093 16.093 0 0 1 4-3.288V13H7v4h8zm6-.822a15.834 15.834 0 0 1 4-1.039V13h-4v3.178zM27 15c1.383 0 2.719.195 4 .527V13h-4v2zm14 16c0-7.72-6.28-14-14-14s-14 6.28-14 14 6.28 14 14 14 14-6.28 14-14zm4 3v-6h-2.292c.186.973.292 1.974.292 3s-.106 2.027-.292 3H45zm16-3c0-1.654-1.346-3-3-3H47v6h11c1.654 0 3-1.346 3-3z" fill="url(#a)"/></svg>