<svg xmlns="http://www.w3.org/2000/svg" viewBox="0 0 64 64" width="512" height="512"><linearGradient id="a" gradientUnits="userSpaceOnUse" x1="32" y1="1" x2="32" y2="63" gradientTransform="matrix(1 0 0 -1 0 64)"><stop offset="0" stop-color="#9f2fff"/><stop offset="1" stop-color="#0bb1d3"/></linearGradient><path d="M58 11H39.167C37.106 5.078 31.44 1 25.117 1h-.232C16.677 1 10 7.677 10 15.884c0 2.756.767 5.434 2.204 7.778A20.039 20.039 0 0 0 5.251 36H1v6h4.243C6.545 50.608 13.391 57.454 22 58.757V63h6v-4.243C36.615 57.454 43.454 50.612 44.757 42H49v-6h-4.251a20.037 20.037 0 0 0-6.952-12.337c.517-.843.949-1.734 1.29-2.663H58c2.757 0 5-2.243 5-5s-2.243-5-5-5zm-27 7.557l-5.713-2.142a.445.445 0 0 1 .001-.83L31 13.443v5.114zm-6.414-4.845C23.638 14.067 23 14.987 23 16s.638 1.933 1.585 2.288l5.793 2.172A7.013 7.013 0 0 1 25 23c-3.859 0-7-3.14-7-7s3.141-7 7-7c2.096 0 4.06.956 5.378 2.54l-5.792 2.172zM33 17h14v-2H33v-2h18v2h-2v2h2v2H33v-2zm20-4h2v6h-2v-6zM13.291 25.359l2.199 3.383a13.944 13.944 0 0 0-4.154 7.257H7.273a18.04 18.04 0 0 1 6.018-10.64zm16.708 10.324A5.946 5.946 0 0 1 31 39c0 3.309-2.691 6-6 6s-6-2.691-6-6c0-1.201.351-2.343 1.001-3.317l2.615 4.024C23.143 40.517 24.034 41 25 41s1.857-.483 2.384-1.293l2.615-4.024zM25 47c4.411 0 8-3.589 8-8a7.93 7.93 0 0 0-1.839-5.104l2.247-3.458a11.95 11.95 0 0 1 3.281 5.876A2.996 2.996 0 0 0 35 39c0 1.184.695 2.201 1.694 2.688a11.917 11.917 0 0 1-9.006 9.006C27.201 49.696 26.184 49 25 49s-2.201.695-2.688 1.694a11.92 11.92 0 0 1-9.006-9.006A2.993 2.993 0 0 0 15 39a2.996 2.996 0 0 0-1.689-2.686 11.95 11.95 0 0 1 3.281-5.876l2.247 3.458A7.93 7.93 0 0 0 17 39c0 4.411 3.589 8 8 8zM3 38h9a1.001 1.001 0 0 1 0 2H3v-2zm4.263 4h4.068A13.906 13.906 0 0 0 22 52.67v4.067C14.492 55.47 8.53 49.508 7.263 42zM26 61h-2v-9a1.001 1.001 0 0 1 2 0v9zm2-4.264v-4.067a13.905 13.905 0 0 0 10.669-10.67h4.068C41.472 49.511 35.515 55.47 28 56.736zM47 40h-9a1.001 1.001 0 0 1 0-2h9v2zm-4.273-4h-4.063a13.937 13.937 0 0 0-4.154-7.257l2.199-3.383A18.04 18.04 0 0 1 42.727 36zm-6.809-13.094L25.706 38.617c-.311.48-1.102.48-1.412 0L14.082 22.906A12.853 12.853 0 0 1 12 15.884C12 8.78 17.779 3 24.884 3h.232c5.238 0 9.954 3.232 11.916 8H32.46c-1.663-2.475-4.457-4-7.461-4-4.963 0-9 4.038-9 9s4.037 9 9 9c3.004 0 5.797-1.525 7.461-4h4.472a12.888 12.888 0 0 1-1.014 1.906zM58 19h-1v-6h1c1.654 0 3 1.346 3 3s-1.346 3-3 3zM22 29h2v2h-2v-2zm4 0h2v2h-2v-2z" fill="url(#a)"/></svg>