<svg width="57" height="57" xmlns="http://www.w3.org/2000/svg"><defs><linearGradient x1="50%" y1="0%" x2="50%" y2="100%" id="a"><stop stop-color="#B4EC51" offset="0%"/><stop stop-color="#429321" offset="100%"/></linearGradient></defs><g fill="url(#a)"><path d="M56.358 21.162c1.11-1.545.72-3.463-.948-4.665-.699-.503-1.018-1.268-.832-1.996.445-1.737-.686-3.467-2.75-4.208-.864-.31-1.47-.961-1.582-1.698-.266-1.759-2.027-3.132-4.283-3.34-.945-.087-1.78-.56-2.177-1.233-.95-1.609-3.17-2.49-5.397-2.145-.934.146-1.915-.103-2.56-.648C34.288-.072 31.827-.376 29.846.49a3.464 3.464 0 0 1-2.692 0c-1.981-.866-4.441-.562-5.982.739-.646.545-1.627.794-2.56.648-2.228-.345-4.447.536-5.398 2.145-.398.674-1.232 1.146-2.177 1.233-2.256.208-4.017 1.581-4.283 3.34-.112.737-.718 1.387-1.582 1.698-2.063.74-3.194 2.471-2.75 4.208.186.728-.133 1.493-.832 1.996-1.669 1.202-2.058 3.12-.948 4.665a1.752 1.752 0 0 1 0 2.099c-1.11 1.545-.72 3.463.948 4.665.7.503 1.018 1.268.832 1.996-.444 1.737.687 3.467 2.75 4.208.864.31 1.47.961 1.582 1.698.221 1.463 1.477 2.658 3.19 3.139L2.41 51.002a.68.68 0 0 0 .069.825c.208.246.567.39.946.373l7.23-.285 4.159 4.62c.2.223.528.354.874.354.028 0 .057 0 .085-.003.377-.023.71-.2.876-.465l7.528-12.025a6.064 6.064 0 0 0 2.977-.463 3.464 3.464 0 0 1 2.692 0 5.999 5.999 0 0 0 3.034.456l7.532 12.032c.166.265.5.442.876.465l.085.003c.346 0 .673-.131.874-.354l4.16-4.62 7.23.285c.376.015.737-.127.945-.373a.68.68 0 0 0 .069-.825l-7.543-12.05c1.687-.49 2.92-1.676 3.138-3.124.112-.737.718-1.388 1.582-1.698 2.064-.74 3.195-2.471 2.75-4.208-.186-.728.133-1.493.832-1.996 1.669-1.202 2.058-3.12.948-4.665a1.752 1.752 0 0 1 0-2.099zM15.523 54.421l-3.459-3.84c-.21-.235-.56-.37-.928-.354l-6.01.237 6.913-11.044c.509.219.927.561 1.175.981.508.86 1.379 1.512 2.419 1.88l-2.285 3.65c-.26.414-.04.913.491 1.115.151.057.31.084.468.084.396 0 .776-.172.961-.468l2.532-4.044c.269-.007.54-.03.811-.072.934-.146 1.915.103 2.56.648.296.25.627.463.98.638l-6.628 10.589zm36.413-3.957l-6.01-.237c-.368-.016-.718.12-.93.354l-3.458 3.84-6.643-10.613c.336-.17.65-.375.933-.614.646-.545 1.627-.793 2.56-.648a6.3 6.3 0 0 0 .874.073l2.531 4.043c.185.296.565.468.961.468.157 0 .317-.027.468-.084.53-.202.75-.701.492-1.115l-2.297-3.668c1.018-.371 1.87-1.016 2.369-1.862.256-.433.693-.783 1.224-1l6.926 11.063zm2.024-23.762c-1.242.894-1.808 2.253-1.477 3.546.25.977-.387 1.951-1.548 2.368-1.536.552-2.613 1.708-2.81 3.017-.15.99-1.142 1.763-2.412 1.88-1.679.154-3.161.994-3.868 2.191-.535.906-1.785 1.402-3.039 1.207-1.657-.257-3.4.184-4.547 1.152-.868.733-2.253.904-3.368.416a6.007 6.007 0 0 0-2.39-.483c-.828 0-1.654.161-2.392.483-1.115.488-2.5.317-3.367-.416-1.148-.968-2.89-1.41-4.548-1.152-1.254.195-2.503-.301-3.038-1.207-.707-1.197-2.19-2.037-3.869-2.191-1.27-.117-2.26-.89-2.41-1.88-.199-1.31-1.276-2.465-2.811-3.017-1.162-.417-1.798-1.39-1.548-2.369.33-1.292-.236-2.651-1.478-3.546-.939-.676-1.158-1.756-.533-2.625.827-1.15.827-2.579 0-3.729-.626-.87-.406-1.95.533-2.626 1.242-.894 1.808-2.253 1.478-3.546-.25-.978.386-1.952 1.548-2.369C7.6 11.255 8.678 10.1 8.876 8.79c.15-.99 1.142-1.763 2.411-1.88 1.68-.154 3.162-.994 3.869-2.192.535-.905 1.784-1.401 3.038-1.206 1.659.257 3.4-.184 4.548-1.153.867-.732 2.252-.903 3.367-.416 1.475.645 3.307.645 4.782 0 1.115-.487 2.5-.316 3.368.416 1.147.969 2.89 1.41 4.548 1.153 1.254-.196 2.503.301 3.038 1.206.707 1.198 2.19 2.038 3.868 2.192 1.27.117 2.261.89 2.411 1.88.198 1.309 1.275 2.465 2.81 3.016 1.162.417 1.799 1.391 1.549 2.37-.33 1.292.235 2.65 1.477 3.545.94.677 1.159 1.756.534 2.626-.827 1.15-.827 2.579 0 3.729.625.87.405 1.95-.534 2.626z"/><path d="M45.56 18.65c0-1.443-1.504-2.616-3.353-2.616H34.93a21.573 21.573 0 0 0 2.067-3.758c.501-1.188-.34-2.48-1.875-2.878l-.066-.017c-1.406-.366-2.954.152-3.599 1.205-.944 1.54-3.044 4.27-6.595 5.449h-.698c-.615-.546-1.515-.891-2.517-.891h-4.57c-1.848 0-3.352 1.173-3.352 2.614v12.47c0 1.441 1.504 2.614 3.353 2.614h4.569c1.002 0 1.902-.345 2.517-.89H38.78c1.85 0 3.353-1.174 3.353-2.615 0-.486-.17-.94-.467-1.33.965-.46 1.61-1.289 1.61-2.233 0-.485-.17-.94-.468-1.33.965-.46 1.61-1.288 1.61-2.232 0-.486-.17-.94-.467-1.33.964-.46 1.61-1.289 1.61-2.233zm-3.353.947H38.78c-.59 0-1.069.373-1.069.833 0 .46.479.834 1.07.834h2.284c.67 0 1.215.425 1.215.948 0 .522-.545.948-1.215.948h-3.427c-.59 0-1.069.373-1.069.833 0 .46.479.833 1.069.833h2.284c.67 0 1.216.426 1.216.948 0 .523-.545.948-1.216.948h-3.426c-.59 0-1.07.373-1.07.834 0 .46.48.833 1.07.833h2.284c.67 0 1.216.425 1.216.948 0 .523-.546.948-1.216.948H25v-8.073c0-.46-.479-.833-1.069-.833s-1.069.373-1.069.833v8.016c0 .522-.545.948-1.216.948h-4.568c-.67 0-1.216-.426-1.216-.948v-12.47c0-.522.545-.948 1.216-.948h4.568c.67 0 1.216.426 1.216.948v.89c0 .461.479.834 1.069.834S25 19.11 25 18.65v-.95h.073c.136 0 .27-.02.397-.06 4.338-1.353 6.821-4.55 7.916-6.337.18-.296.609-.442.994-.342l.066.017c.422.11.655.458.521.777-1.137 2.697-2.771 4.63-2.787 4.65a.68.68 0 0 0-.053.855c.186.27.548.44.942.44h9.138c.67 0 1.216.425 1.216.948 0 .523-.546.948-1.216.948z"/><ellipse cx="19.38" cy="28.446" rx="1.069" ry="1"/></g></svg>