<svg xmlns="http://www.w3.org/2000/svg" viewBox="0 0 64 64" width="512" height="512"><linearGradient id="a" gradientUnits="userSpaceOnUse" x1="32" y1="63" x2="32" y2=".861"><stop offset="0" stop-color="#9f2fff"/><stop offset="1" stop-color="#0bb1d3"/></linearGradient><path d="M33 58v5h-2v-5h2zm4-3h-2v4h2v-4zm-8 0h-2v4h2v-4zm11-28c0 4.411-3.589 8-8 8s-8-3.589-8-8 3.589-8 8-8 8 3.589 8 8zm-2 0c0-3.309-2.691-6-6-6s-6 2.691-6 6 2.691 6 6 6 6-2.691 6-6zm-2 0c0 2.206-1.794 4-4 4s-4-1.794-4-4 1.794-4 4-4 4 1.794 4 4zm-2 0c0-1.103-.897-2-2-2s-2 .897-2 2 .897 2 2 2 2-.897 2-2zm29 0c0 3.86-3.141 7-7 7H43.053c-.03.187-.062.363-.092.547L52 43.586v6.695L38.879 47h-1.032l-1 6h-9.693l-1-6h-1.032L12 50.281v-6.695l9.039-9.039A77.389 77.389 0 0 1 20.017 23H7c-3.309 0-6-2.691-6-6 0-2.991 2.201-5.47 5.068-5.92C6.521 7.654 9.453 5 13 5c1.814 0 3.463.699 4.708 1.835A6.958 6.958 0 0 1 21 6c1.387 0 2.721.412 3.859 1.167 3.032-4.01 6.407-5.905 6.663-6.044L32 .861l.479.261c.361.197 6.94 3.891 9.99 12.107A8.976 8.976 0 0 1 47 12c4.626 0 8.443 3.509 8.941 8.003.02 0 .039-.003.059-.003 3.859 0 7 3.14 7 7zM24.195 12.098A11.926 11.926 0 0 0 32 15c2.878 0 5.609-1.025 7.78-2.881-2.513-5.192-6.434-8.077-7.785-8.951-1.38.876-5.299 3.722-7.8 8.93zM7 21h13.024c.185-5.109 1.761-9.135 3.695-12.188-1.39-.883-3.197-1.018-4.709-.381A6.934 6.934 0 0 1 20 12h-2c0-2.757-2.243-5-5-5-2.45 0-4.485 1.775-4.909 4.104C10.88 11.619 13 14.064 13 17h-2c0-2.206-1.794-4-4-4s-4 1.794-4 4 1.794 4 4 4zm7 26.719l9.68-2.419a50.91 50.91 0 0 1-.719-2.26l-3.718.93-.484-1.939 3.668-.917a72.285 72.285 0 0 1-.952-4.172L14 44.414v3.305zM35.82 47h-7.64l.666 4h6.307l.667-4zm2.483-2C39.146 42.613 42 33.671 42 22c0-3.042-.554-5.682-1.397-7.96A13.92 13.92 0 0 1 32 17a13.917 13.917 0 0 1-8.623-2.974C22.545 16.301 22 18.945 22 22c0 11.671 2.854 20.613 3.697 23h12.606zm4.224-8.059a72.285 72.285 0 0 1-.952 4.172l3.668.917-.484 1.939-3.718-.93a51.343 51.343 0 0 1-.719 2.26L50 47.719v-3.305l-7.473-7.473zM61 27c0-2.757-2.243-5-5-5s-5 2.243-5 5h-2c0-3.152 2.095-5.822 4.965-6.696C53.614 16.77 50.624 14 47 14a6.986 6.986 0 0 0-3.899 1.194C43.659 17.222 44 19.483 44 22c0 3.645-.266 7.004-.659 10H56c2.757 0 5-2.243 5-5zM27 63h2v-2h-2v2zm8 0h2v-2h-2v2z" fill="url(#a)"/></svg>