<svg xmlns="http://www.w3.org/2000/svg" width="78.576" height="100.403"><path d="M49.11 32.74a3.275 3.275 0 0 1-3.274-3.274V0H3.274A3.275 3.275 0 0 0 0 3.274v93.855a3.275 3.275 0 0 0 3.274 3.274h72.028a3.275 3.275 0 0 0 3.274-3.274V32.74zM16.37 80.758a3.274 3.274 0 1 1 3.278-3.274 3.274 3.274 0 0 1-3.278 3.274zm0-13.1a3.274 3.274 0 1 1 3.278-3.27 3.274 3.274 0 0 1-3.278 3.274zm0-13.1a3.274 3.274 0 1 1 3.278-3.266 3.274 3.274 0 0 1-3.278 3.275zM62.206 80.75h-32.74a3.274 3.274 0 1 1 0-6.548h32.74a3.274 3.274 0 0 1 0 6.548zm0-13.1h-32.74a3.274 3.274 0 1 1 0-6.548h32.74a3.274 3.274 0 0 1 0 6.548zm0-13.1h-32.74a3.274 3.274 0 1 1 0-6.548h32.74a3.274 3.274 0 0 1 0 6.548z" fill="#7d5ae7"/></svg>