<svg xmlns="http://www.w3.org/2000/svg" width="78.576" height="100.403" viewBox="0 0 78.576 100.403"><path d="M104.762,32.74a3.275,3.275,0,0,1-3.274-3.274V0H58.926a3.275,3.275,0,0,0-3.274,3.274V97.129a3.275,3.275,0,0,0,3.274,3.274h72.028a3.275,3.275,0,0,0,3.274-3.274V32.74ZM72.022,80.758A3.274,3.274,0,1,1,75.3,77.484,3.274,3.274,0,0,1,72.022,80.758Zm0-13.1A3.274,3.274,0,1,1,75.3,64.388,3.274,3.274,0,0,1,72.022,67.662Zm0-13.1A3.274,3.274,0,1,1,75.3,51.292,3.274,3.274,0,0,1,72.022,54.567Zm45.836,26.192H85.118a3.274,3.274,0,1,1,0-6.548h32.74a3.274,3.274,0,0,1,0,6.548Zm0-13.1H85.118a3.274,3.274,0,1,1,0-6.548h32.74a3.274,3.274,0,0,1,0,6.548Zm0-13.1H85.118a3.274,3.274,0,1,1,0-6.548h32.74a3.274,3.274,0,0,1,0,6.548Z" transform="translate(-55.652)" fill="#7d5ae7"/></svg>