<svg xmlns="http://www.w3.org/2000/svg" width="100.238" height="99.219" viewBox="0 0 100.238 99.219"><g transform="translate(-0.001 -4.737)"><path d="M6.582,40.953a24.4,24.4,0,0,0,2.183,5.183L6.13,49.459a2.727,2.727,0,0,0,.2,3.613l4.538,4.538a2.715,2.715,0,0,0,3.613.2l3.3-2.613a23.985,23.985,0,0,0,5.387,2.28l.495,4.247a2.72,2.72,0,0,0,2.7,2.409h6.42a2.72,2.72,0,0,0,2.7-2.409l.473-4.1A24.261,24.261,0,0,0,41.734,55.3l3.194,2.527a2.727,2.727,0,0,0,3.613-.2l4.538-4.538a2.715,2.715,0,0,0,.2-3.613L50.8,46.319a23.7,23.7,0,0,0,2.376-5.678L57,40.2a2.72,2.72,0,0,0,2.409-2.7v-6.42A2.72,2.72,0,0,0,57,28.383l-3.774-.441a23.851,23.851,0,0,0-2.28-5.613l2.323-2.936a2.727,2.727,0,0,0-.2-3.613l-4.527-4.527a2.715,2.715,0,0,0-3.613-.2l-2.85,2.258a23.932,23.932,0,0,0-5.9-2.473l-.43-3.688a2.72,2.72,0,0,0-2.7-2.409h-6.42a2.72,2.72,0,0,0-2.7,2.409l-.43,3.688a23.832,23.832,0,0,0-6.054,2.559l-2.957-2.344a2.727,2.727,0,0,0-3.613.2L6.335,15.791a2.715,2.715,0,0,0-.2,3.613L8.6,22.533A23.392,23.392,0,0,0,6.367,28.2l-3.957.452A2.72,2.72,0,0,0,0,31.351v6.42a2.72,2.72,0,0,0,2.409,2.7ZM29.841,23.587A10.613,10.613,0,1,1,19.227,34.2,10.629,10.629,0,0,1,29.841,23.587Z" fill="#6765e7"/><path d="M519.834,295.123l-3.387-2.86a2.679,2.679,0,0,0-3.57.1l-1.871,1.753a19.339,19.339,0,0,0-4.989-1.613l-.527-2.581a2.7,2.7,0,0,0-2.861-2.151l-4.419.376a2.693,2.693,0,0,0-2.462,2.591l-.086,2.624a19.4,19.4,0,0,0-4.764,2.505l-2.237-1.484a2.687,2.687,0,0,0-3.538.505l-2.86,3.409a2.679,2.679,0,0,0,.1,3.57l1.957,2.086a20.04,20.04,0,0,0-1.441,4.774l-2.8.57a2.7,2.7,0,0,0-2.151,2.86l.376,4.42a2.693,2.693,0,0,0,2.592,2.462l3.022.1a19.75,19.75,0,0,0,2.14,4.086l-1.688,2.548a2.687,2.687,0,0,0,.505,3.538l3.387,2.86a2.68,2.68,0,0,0,3.57-.1l2.215-2.075a19.415,19.415,0,0,0,4.548,1.484l.613,3.032a2.7,2.7,0,0,0,2.86,2.151l4.42-.376a2.693,2.693,0,0,0,2.462-2.591l.1-2.968a19.877,19.877,0,0,0,4.548-2.3l2.441,1.613a2.687,2.687,0,0,0,3.538-.505l2.86-3.387a2.679,2.679,0,0,0-.1-3.57l-1.968-2.086a19.363,19.363,0,0,0,1.548-4.8l2.688-.548a2.7,2.7,0,0,0,2.151-2.86l-.376-4.419a2.693,2.693,0,0,0-2.591-2.462l-2.7-.086a19.529,19.529,0,0,0-2.247-4.43l1.473-2.215A2.673,2.673,0,0,0,519.834,295.123Zm-16.656,25.549a8.687,8.687,0,1,1,7.925-9.387A8.688,8.688,0,0,1,503.178,320.672Z" transform="translate(-426.529 -252.589)" fill="#6765e7"/><path d="M184.738,574.4a2.686,2.686,0,0,0-2.409,2.645l-.032,2.721a2.68,2.68,0,0,0,2.344,2.7l2,.258a15.514,15.514,0,0,0,1.419,3.473l-1.29,1.591a2.681,2.681,0,0,0,.161,3.57l1.9,1.946a2.685,2.685,0,0,0,3.57.247l1.6-1.237a15.7,15.7,0,0,0,3.57,1.559l.215,2.065a2.686,2.686,0,0,0,2.645,2.409l2.721.032a2.68,2.68,0,0,0,2.7-2.344l.247-1.957a16.153,16.153,0,0,0,3.871-1.505l1.505,1.215a2.681,2.681,0,0,0,3.57-.161l1.946-1.9a2.685,2.685,0,0,0,.247-3.57l-1.151-1.495a15.594,15.594,0,0,0,1.635-3.764l1.785-.183a2.686,2.686,0,0,0,2.409-2.645l.032-2.721a2.68,2.68,0,0,0-2.344-2.7l-1.742-.226a16.2,16.2,0,0,0-1.473-3.764l1.086-1.333a2.681,2.681,0,0,0-.161-3.57l-1.9-1.946a2.685,2.685,0,0,0-3.57-.247l-1.3,1a15.816,15.816,0,0,0-3.914-1.7l-.172-1.688a2.686,2.686,0,0,0-2.645-2.409l-2.721-.032a2.68,2.68,0,0,0-2.7,2.344l-.215,1.678a16.244,16.244,0,0,0-4.054,1.656l-1.344-1.1a2.681,2.681,0,0,0-3.57.161l-1.957,1.914a2.685,2.685,0,0,0-.247,3.57l1.151,1.484a15.738,15.738,0,0,0-1.538,3.764Zm17.56-3.075a7.076,7.076,0,1,1-7.162,6.989A7.082,7.082,0,0,1,202.3,571.326Z" transform="translate(-162.693 -494.425)" fill="#6765e7"/></g></svg>