<svg xmlns="http://www.w3.org/2000/svg" width="100" height="100.002"><path d="M99.687 44.449a3.255 3.255 0 0 0-3.214-2.462 11.041 11.041 0 0 1-7.557-19.216 2.777 2.777 0 0 0 .3-3.77A49.478 49.478 0 0 0 81.297 11a2.783 2.783 0 0 0-3.8.307 11.524 11.524 0 0 1-12.471 2.8 11.107 11.107 0 0 1-6.753-10.853A2.774 2.774 0 0 0 55.819.333 49.92 49.92 0 0 0 44.57.3a2.783 2.783 0 0 0-2.473 2.864 11.125 11.125 0 0 1-6.847 10.668 11.556 11.556 0 0 1-12.378-2.818 2.788 2.788 0 0 0-3.775-.314 49.665 49.665 0 0 0-8.089 8 2.782 2.782 0 0 0 .3 3.8 11.08 11.08 0 0 1 2.8 12.476 11.56 11.56 0 0 1-10.88 6.759 2.718 2.718 0 0 0-2.894 2.449 50.089 50.089 0 0 0-.021 11.371c.157 1.412 1.846 2.459 3.279 2.459a10.966 10.966 0 0 1 10.288 6.852 11.118 11.118 0 0 1-2.8 12.364 2.779 2.779 0 0 0-.3 3.768 49.657 49.657 0 0 0 7.91 8 2.78 2.78 0 0 0 3.806-.3 11.507 11.507 0 0 1 12.465-2.8 11.088 11.088 0 0 1 6.765 10.852 2.777 2.777 0 0 0 2.454 2.921 49.763 49.763 0 0 0 11.249.03 2.783 2.783 0 0 0 2.475-2.864 11.113 11.113 0 0 1 6.841-10.663 11.539 11.539 0 0 1 12.383 2.816 2.794 2.794 0 0 0 3.774.316 49.779 49.779 0 0 0 8.089-8 2.776 2.776 0 0 0-.3-3.8 11.08 11.08 0 0 1-2.8-12.474 11.194 11.194 0 0 1 10.229-6.778l.618.016a2.783 2.783 0 0 0 2.926-2.451 50.046 50.046 0 0 0 .023-11.37zM50.079 66.785a16.678 16.678 0 1 1 16.678-16.678 16.7 16.7 0 0 1-16.678 16.678z" fill="#6765e7" fill-rule="evenodd"/></svg>