<?xml version="1.0" standalone="no"?>
<!DOCTYPE svg PUBLIC "-//W3C//DTD SVG 20010904//EN"
 "http://www.w3.org/TR/2001/REC-SVG-20010904/DTD/svg10.dtd">
<svg version="1.0" xmlns="http://www.w3.org/2000/svg"
 width="114.000000pt" height="114.000000pt" viewBox="0 0 114.000000 114.000000"
 preserveAspectRatio="xMidYMid meet">
<metadata>
Created by potrace 1.11, written by Peter Selinger 2001-2013
</metadata>
<g transform="translate(0.000000,114.000000) scale(0.100000,-0.100000)"
fill="#000000" stroke="none">
<path d="M725 842 c-72 -25 -131 -62 -204 -128 -46 -42 -71 -58 -87 -56 -13 2
-39 -4 -58 -13 -40 -19 -109 -91 -104 -107 2 -6 26 -17 52 -23 26 -7 54 -19
63 -28 13 -13 13 -18 -3 -41 -17 -26 -16 -28 4 -49 l22 -21 24 23 24 22 20
-26 c11 -14 23 -43 27 -65 4 -22 11 -43 17 -46 5 -4 32 15 59 42 47 47 77 103
64 124 -3 5 22 42 57 82 35 40 74 89 86 109 30 50 62 145 62 186 0 32 -2 33
-37 33 -21 -1 -61 -8 -88 -18z m-6 -134 c14 -24 14 -28 -3 -47 -34 -37 -86
-22 -86 25 0 55 63 70 89 22z"/>
</g>
</svg>
