<svg version="1.0" xmlns="http://www.w3.org/2000/svg" width="152" height="152" viewBox="0 0 114 114"><path d="M72.5 29.8c-7.2 2.5-13.1 6.2-20.4 12.8-4.6 4.2-7.1 5.8-8.7 5.6-1.3-.2-3.9.4-5.8 1.3-4 1.9-10.9 9.1-10.4 10.7.2.6 2.6 1.7 5.2 2.3 2.6.7 5.4 1.9 6.3 2.8 1.3 1.3 1.3 1.8-.3 4.1-1.7 2.6-1.6 2.8.4 4.9l2.2 2.1 2.4-2.3 2.4-2.2 2 2.6c1.1 1.4 2.3 4.3 2.7 6.5.4 2.2 1.1 4.3 1.7 4.6.5.4 3.2-1.5 5.9-4.2 4.7-4.7 7.7-10.3 6.4-12.4-.3-.5 2.2-4.2 5.7-8.2 3.5-4 7.4-8.9 8.6-10.9 3-5 6.2-14.5 6.2-18.6 0-3.2-.2-3.3-3.7-3.3-2.1.1-6.1.8-8.8 1.8zm-.6 13.4c1.4 2.4 1.4 2.8-.3 4.7-3.4 3.7-8.6 2.2-8.6-2.5 0-5.5 6.3-7 8.9-2.2z"/></svg>