<svg width="120" height="22" xmlns="http://www.w3.org/2000/svg"><g fill="none"><path d="M31.91 16.367v-5.634h2.496v.504c0 .277.014.504.03.504.017 0 .182-.134.367-.3.395-.352 1.062-.725 1.557-.87.527-.156 1.776-.137 2.357.035.741.22 1.193.503 1.713 1.074.538.59.801 1.11.984 1.943.133.606.156 1.658.05 2.27-.293 1.698-1.422 2.928-3.021 3.29-1.283.29-2.788-.045-3.557-.792-.139-.135-.267-.245-.285-.245-.018 0-.032.867-.032 1.927V22h-2.66v-5.633zm5.601 1.142c.798-.393 1.235-1.333 1.235-2.655 0-1.288-.371-2.126-1.127-2.543-.803-.443-1.818-.303-2.438.337-.48.496-.719 1.23-.719 2.206 0 1.46.577 2.495 1.539 2.764.093.026.413.04.711.032.416-.011.603-.044.8-.14zm7.315 1.753c-1.101-.095-1.845-.595-2.232-1.5-.3-.7-.317-.912-.318-4.108l-.001-2.92h2.652l.018 2.83c.018 2.786.02 2.838.141 3.168.16.432.293.615.572.778.196.114.309.132.85.132.574 0 .646-.013.903-.161.345-.2.632-.558.792-.991.12-.324.123-.385.139-3.044l.016-2.713h2.708v8.243h-2.713V18.5c0-.26-.012-.474-.027-.474s-.18.135-.366.3c-.84.741-1.86 1.046-3.134.935zm19.183.003c-.904-.072-1.681-.414-2.087-.919-.667-.83-.63-2.142.081-2.898.615-.652 1.596-.958 3.906-1.217 1.484-.166 1.707-.292 1.708-.965.001-.37-.1-.623-.342-.855-.46-.441-1.612-.487-2.28-.09-.287.17-.491.488-.553.858l-.038.223H61.86l.038-.282c.05-.384.209-.832.41-1.163.63-1.041 2.196-1.593 4.253-1.5 1.27.058 2.101.29 2.755.77.422.31.704.717.856 1.233.116.393.118.46.099 3.118-.019 2.592-.015 2.726.085 2.948.064.14.166.256.258.294.084.035.153.084.153.11 0 .025-.633.046-1.407.046h-1.406l-.118-.386c-.064-.212-.142-.385-.172-.385s-.15.089-.266.198c-.453.423-1.362.786-2.112.843-.224.017-.48.038-.57.047a6.527 6.527 0 0 1-.706-.028zm2.478-1.764a1.88 1.88 0 0 0 .95-.942c.126-.281.155-.432.173-.917.011-.322-.001-.58-.028-.58s-.19.054-.361.12c-.172.066-.696.185-1.165.264-.933.157-1.244.255-1.506.474-.426.355-.467 1.041-.085 1.42a1.5 1.5 0 0 0 .399.223c.392.152 1.188.122 1.623-.062zm27.343 1.764c-1.223-.092-2.053-.572-2.425-1.404-.208-.464-.24-1.201-.074-1.684.316-.916 1.208-1.458 2.906-1.764a35.83 35.83 0 0 1 1.384-.18c1.22-.138 1.4-.183 1.594-.395.127-.14.142-.201.142-.584 0-.543-.12-.763-.542-.994-.584-.318-1.649-.258-2.144.12-.257.198-.46.561-.46.829l-.001.193h-2.566l.035-.341c.021-.205.111-.51.225-.765.54-1.206 1.935-1.859 3.977-1.86 2.26 0 3.613.663 4.06 1.991.09.267.099.542.1 3.15.003 2.805.005 2.859.116 3.023a.872.872 0 0 0 .232.233.83.83 0 0 1 .153.104c.02.021-.612.039-1.404.039H97.7l-.095-.386c-.053-.212-.119-.385-.147-.385-.027 0-.177.103-.333.23-.807.658-1.9.934-3.294.83zm2.469-1.792c.363-.183.746-.555.893-.87.054-.113.125-.348.159-.521.071-.369.08-1.02.015-1.02-.025 0-.19.054-.366.12-.176.067-.718.186-1.204.265-.954.156-1.29.28-1.574.58-.375.397-.336 1.074.08 1.355.331.224.609.289 1.156.271.427-.014.571-.044.841-.18zm-87.29.51c-.001-3.46-.507-5.325-1.841-6.779-.855-.93-1.902-1.488-3.41-1.813-.296-.064-.912-.1-2.09-.122L0 9.24V0h17.42v19.035H9.01v-1.053zm4.87-8.48l-.013-5.619-5.142-.015-5.142-.015V5.45l.203.036c2.21.394 3.615.994 5.007 2.14 1.823 1.5 3.055 3.82 3.514 6.614l.144.881h1.443l-.014-5.618zm5.929 3.78V7.59h10.636v11.386h-2.93V9.784h-4.776v9.192h-2.93v-5.693zm32.452 1.57v-4.128l3.243.022c3.108.022 3.26.028 3.659.149.528.16.778.301 1.042.587.309.334.431.674.436 1.207.003.371-.021.5-.147.78-.247.553-.73.937-1.408 1.121-.142.039-.258.089-.258.111 0 .023.18.088.399.145.77.198 1.333.578 1.555 1.048.14.296.23.908.19 1.267-.1.854-.565 1.354-1.538 1.652-.402.123-.535.128-3.794.148l-3.379.02v-4.128zm5.39 2.409c.349-.123.536-.352.563-.691.047-.593-.286-.93-1.022-1.034-.22-.03-.808-.057-1.308-.058l-.91-.002v1.907l1.235-.025c.761-.015 1.314-.052 1.441-.097zm-.17-3.427c.629-.313.533-1.164-.156-1.38-.114-.036-.689-.082-1.278-.102l-1.072-.037v1.691l1.126-.023c1.007-.02 1.153-.036 1.38-.149zm16.162 1.82v-3.32h-2.985v-1.601h8.683v1.6h-2.985v6.641h-2.713v-3.32zm6.295-2.372V7.59h9.714v2.194h-6.838v2.064l2.158.03c2.272.03 2.507.054 3.322.345 1.251.446 2.075 1.376 2.276 2.568.271 1.613-.286 2.874-1.57 3.55-1.123.593-1.491.634-5.657.634l-3.405.001v-5.693zm6.515 3.427c.71-.201 1.03-.577 1.027-1.208-.002-.64-.255-1.012-.877-1.289-.271-.12-.391-.13-2.038-.147l-1.75-.02v2.808l1.668-.03c1.202-.02 1.753-.052 1.97-.114zm14.813-1.856v-4.12h2.713v3.141h3.31v-3.143h2.66v8.243h-2.66v-3.499h-3.31v3.499h-2.713v-4.122zm9.93 0v-4.12h2.66v1.66c0 1.326.014 1.66.07 1.66.04 0 .726-.747 1.525-1.66l1.453-1.66h2.947l-.298.316c-.163.174-1 1.044-1.859 1.934l-1.561 1.617.72.823c.396.452 1.266 1.437 1.934 2.187L120 18.976h-3.1l-1.47-1.809c-.81-.995-1.495-1.808-1.523-1.808-.032 0-.052.694-.052 1.808v1.809h-2.66v-4.122z" fill="#75B028"/><path fill="#000" d="M0 15.349v-3.582h6.755v7.163H0z"/></g></svg>