<svg xmlns="//www.w3.org/2000/svg" viewBox="0 0 335.6 126.2"><path d="M233.1 43.9h-18.6c-2 0-2.8.7-3.2 2.7L206 77h12.5l1-5.8h7.3c2.7 0 3.9 1.1 3.4 3.7-.1.9-.4 1.6-.8 2.1H243v-.1c.9-5.5-.6-9.6-4.4-11.4l.1-.3c3.6-2.2 5.4-4.6 6.2-8.9 1.5-7.4-3-12.4-11.8-12.4zM232 57.7c-.4 2.5-2 3.4-4.5 3.4h-6.1l1.2-7h6.1c2.6 0 3.7 1.1 3.3 3.6zM86.3 55.1h9.4l-5.5 31.2c-.4 2 .2 2.7 2.2 2.7h7.2c2 0 2.8-.7 3.2-2.7l5.5-31.2h9.4c2 0 2.8-.7 3.2-2.7l1-5.7c.4-2-.2-2.7-2.2-2.7H88.3c-2 0-2.8.7-3.2 2.7l-1 5.7c-.3 2 .2 2.7 2.2 2.7zm51.6-8.4c.4-2-.2-2.7-2.2-2.7h-7.2c-2 0-2.8.7-3.2 2.7L121 71.4C119.1 82 124.5 90 137.1 90c2 0 3.9-.2 5.6-.5l1.8-10.4c0-1.1.9-1.9 1.9-1.9h11.4c.4-1.1.7-2.3.9-3.6l4.7-26.8c.4-2-.3-2.7-2.2-2.7H154c-2 0-2.8.7-3.1 2.7L146.3 73c-.6 3.7-3.2 5.8-7.5 5.8-4.4 0-6.2-2.1-5.6-5.8l4.7-26.3zm135.9 26.1c-.3 1.9-1.2 3.3-2.4 4.3h13.8c.5-1.3.8-2.6 1.1-4.1l2-11.5c1.9-11-3.9-18.5-16.4-18.5s-20.4 6.2-22.3 17.1l-2 11.5c-.3 1.9-.4 3.8-.2 5.5h13.4c-.9-1-1.2-2.5-.8-4.3l2.2-12.5c.7-4 3.6-6.1 8-6.1s6.5 2.1 5.8 6.1l-2.2 12.5zM220.5 6.9c27.3-1.6 52.2-3.3 72.1 3.9 8.4 3 12.5 6.3 14.4 9.1.5 1.1.7 3-.8 5.5-2.2 3.8-20.5 16.2-20.5 16.2l2.4 2.9s16-12.1 20.2-18.5c-.1.2-.1.4-.1.4.6-.9 1-1.7 1.4-2.5.9-1.8 1.5-3.6 1.5-5.3h-.2c-.1-15.3-37.6-21.3-91.3-17.5-30.8 2.2-63.8 9-89.4 16.4-26.5 7.6-45 15.8-45 15.8l3.9 4.9C120 21.8 193.2 8.5 220.5 6.9zm-16.7 52.9c1.8-9.8-3.5-15.8-13-15.8h-18c-2 0-2.8.7-3.2 2.7l-5.3 30.4h12.5l.5-3.1h1.6c2.7 0 3.2 1 3.9 3.1h13.9l-.7-2c-.4-1-.8-1.9-1.2-2.7 4.6-2.5 7.9-6.5 9-12.6zm-13-.6c-.4 2.6-2.2 4.2-4.9 4.2h-6.8l1.5-8.4h6.8c2.7.1 3.9 1.7 3.4 4.2zm10.7 19.9h-6.6c-2 0-2.8.7-3.1 2.7L190 92.2c-1.1 6.5-.8 9.5 0 16h-.5c-.9-4.2-1.5-7.7-3.3-11.6l-7.5-16.2c-.4-.9-1.1-1.3-2.5-1.3H169c-2 0-2.8.7-3.2 2.7l-7 39.6c-.4 2 .2 2.7 2.2 2.7h6.6c2 0 2.8-.7 3.2-2.7l1.8-10.3c1.2-7 1.1-10.3.8-16.3h.5c.7 5.7 1.3 8.8 3.3 13l7 15c.4.9 1 1.3 2.3 1.3h7c2 0 2.8-.7 3.2-2.7l7-39.6c.4-2-.2-2.7-2.2-2.7zm-44.2 0h-7.5c-1.9 0-2.6.6-3 2.5l-7 39.9c-.3 1.9.2 2.5 2.1 2.5h7.5c1.9 0 2.7-.6 3-2.5l7-39.9c.4-1.9-.2-2.5-2.1-2.5zm126.1 8.3l1-5.7c.4-2-.2-2.7-2.2-2.7h-31.3c-2 0-2.8.7-3.2 2.7l-1 5.7c-.3 2 .2 2.7 2.2 2.7h9.4l-5.5 31.2c-.4 2 .2 2.7 2.2 2.7h7.2c2 0 2.8-.7 3.2-2.7l5.5-31.2h9.4c2 .1 2.8-.6 3.1-2.7zm-55.6-9.3c-12.1 0-19.2 4.7-20.7 13.1-2.1 12.3 7.7 14.7 14.9 15.7 4.1.6 7.2 1.3 6.8 3.7-.5 2.7-3.2 3.6-7.5 3.6-3.5 0-5.8-1.1-6.5-3.4-.6-1.8-1.5-2-3.5-1.4l-6.3 2.2c-2 .7-2.7 1.6-2.3 3.5 1.3 6.5 8 9.8 17.4 9.8 11.7 0 19.6-4 21.3-13.3 2.1-11.6-7-14.9-14.1-15.9-4.6-.6-8.1-1.1-7.7-3.9.4-2.2 2.3-3.3 6.6-3.3 2.9 0 5 .9 5.8 3.3.7 1.8 1.3 2.1 3.2 1.3l6.3-2.5c2-.8 2.5-1.5 1.9-3.3-1.8-5.7-6.2-9.2-15.6-9.2zm-206 16.5c-3.1-1.7-5.6-6.8-4.9-8.8v-.1c2.5-5.1 9.6-13.5 29.2-25.2 0 0 .7-4.5-2.9-3.9 0 0-25.5 15.2-27.8 29.3-.4 1.3-.2 2.9 0 4 0 .2.1.4.1.6.1.4.2.8.3 1 0 .1.1.2.1.2 8.8 23.2 123.7 8.8 123.7 8.8l-1-5.8c-71.8 12-104.4 6.7-116.8-.1zm24.3-47.4l3.1 1.4c.9.4 1.6 1.1 2.1 1.9l1 1.8-2.4 1.4c-.4.3-.6.8-.3 1.2l.8 1.4c.3.4.8.6 1.3.3l2.4-1.4 1 1.8c.5.8.7 1.8.6 2.7l-.2 3.4c0 .3.1.6.4.8.3.2.7.2.9 0l4.9-2.9c1.8-1 2.9-2.9 3.1-4.9l.1-1 4.1-2.4c9.2-5.4 12.6-12.5 13.6-15.2.1-.3.1-.6-.1-.9-.2-.3-.4-.4-.7-.5-2.9-.5-10.7-1.1-20 4.3l-4.1 2.4-1-.4c-1.8-.8-4-.7-5.8.3L46 45.6c-.3.2-.5.5-.5.8.1.4.3.7.6.8zm23-6.3c1.5-.9 3.5-.4 4.3 1.1.9 1.5.3 3.4-1.2 4.3-1.5.9-3.4.4-4.3-1.1s-.4-3.4 1.2-4.3zM316 121.4l-7.5-40.3c-.3-1.6-1.1-2.1-3-2.1h-7.2c-1.8 0-2.7.4-3.7 2.2L273 121.4c-.9 1.7-.8 2.6 1.2 2.6h7c3.2 0 4.1-.7 5.1-2.7l2.2-4.6h13.7l.6 4.6c.2 2 1 2.7 4.2 2.7h6.6c2.1 0 2.7-.9 2.4-2.6zm-22.8-14.5l3.6-7.5c2-4.2 2.8-8.8 2.8-8.8h.6s-.7 4.6-.2 8.9l1 7.4h-7.8z" fill="#fff"/></svg>