<svg width="1347" height="651" xmlns="http://www.w3.org/2000/svg"><g fill="none" opacity=".154"><path d="M574.266 15.011l-3.323-1.671a.921.921 0 0 1-.508-.828v-1.184a6.5 6.5 0 0 0 .25-.332 8.029 8.029 0 0 0 1.027-2.03 1.39 1.39 0 0 0 .81-1.266V6.3a1.4 1.4 0 0 0-.348-.919V3.52c.02-.193.096-1.339-.728-2.284C570.732.416 569.573 0 568 0c-1.573 0-2.732.416-3.446 1.236-.824.945-.747 2.091-.728 2.284v1.86a1.4 1.4 0 0 0-.348.919v1.4c0 .426.193.823.521 1.088a7.363 7.363 0 0 0 1.218 2.533v1.158c0 .34-.183.65-.479.812l-3.103 1.703A3.16 3.16 0 0 0 560 17.767V18.9c0 1.661 5.233 2.1 8 2.1 2.767 0 8-.439 8-2.1v-1.065a3.143 3.143 0 0 0-1.734-2.824zm1.038 3.889c0 .475-2.578 1.4-7.304 1.4-4.726 0-7.304-.925-7.304-1.4v-1.133c0-.9.487-1.727 1.272-2.158l3.103-1.703c.52-.285.842-.832.842-1.427v-1.406l-.081-.098a6.623 6.623 0 0 1-1.186-2.472l-.032-.139-.118-.077a.7.7 0 0 1-.322-.587V6.3c0-.196.083-.38.233-.516l.115-.104V3.5l-.003-.046c-.001-.01-.12-.98.558-1.757.576-.662 1.56-.997 2.923-.997 1.358 0 2.34.333 2.917.99.677.77.565 1.756.564 1.764l-.003 2.226.115.104c.15.137.233.32.233.516v1.4a.695.695 0 0 1-.495.665l-.173.053-.055.173a7.345 7.345 0 0 1-.986 2 4.602 4.602 0 0 1-.291.378l-.087.1v1.443c0 .62.342 1.176.893 1.453l3.322 1.672a2.445 2.445 0 0 1 1.35 2.198V18.9zm-17.038 582.111l-3.323-1.671a.921.921 0 0 1-.508-.828v-1.184a6.5 6.5 0 0 0 .25-.332 8.029 8.029 0 0 0 1.027-2.03 1.39 1.39 0 0 0 .81-1.266v-1.4a1.4 1.4 0 0 0-.348-.919v-1.861c.02-.193.096-1.339-.728-2.284-.714-.82-1.873-1.236-3.446-1.236-1.573 0-2.732.416-3.446 1.236-.824.945-.747 2.091-.728 2.284v1.86a1.4 1.4 0 0 0-.348.919v1.4c0 .426.193.823.521 1.088a7.363 7.363 0 0 0 1.218 2.533v1.158c0 .34-.183.65-.479.812l-3.103 1.703a3.16 3.16 0 0 0-1.635 2.774v1.133c0 1.661 5.233 2.1 8 2.1 2.767 0 8-.439 8-2.1v-1.065a3.143 3.143 0 0 0-1.734-2.824zm1.038 3.889c0 .475-2.578 1.4-7.304 1.4-4.726 0-7.304-.925-7.304-1.4v-1.133c0-.9.487-1.727 1.272-2.158l3.103-1.703c.52-.285.842-.832.842-1.427v-1.406l-.081-.098a6.623 6.623 0 0 1-1.186-2.472l-.032-.139-.118-.077a.7.7 0 0 1-.322-.587v-1.4c0-.196.083-.38.233-.516l.115-.104v-2.18l-.003-.046c-.001-.01-.12-.98.558-1.757.576-.662 1.56-.997 2.923-.997 1.358 0 2.34.333 2.917.99.677.77.565 1.756.564 1.764l-.003 2.226.115.104c.15.137.233.32.233.516v1.4a.695.695 0 0 1-.495.665l-.173.053-.055.173a7.345 7.345 0 0 1-.986 2 4.602 4.602 0 0 1-.291.378l-.087.1v1.443c0 .62.342 1.176.893 1.453l3.322 1.672a2.445 2.445 0 0 1 1.35 2.198v1.065z" fill="#FFF"/><path d="M749.667 35.667v-2.334h-2.334V31H732v11.333h2.333v2.334h2.334V47H752V35.667h-2.333zm-17 6v-10h14v1.666h-12.334v8.334h-1.666zM735 44V34h14v1.667h-12.333V44H735zm16.333 2.333h-14v-10h14v10zM29.667 468.667v-2.334h-2.334V464H12v11.333h2.333v2.334h2.334V480H32v-11.333h-2.333zm-17 6v-10h14v1.666H14.333v8.334h-1.666zM15 477v-10h14v1.667H16.667V477H15zm16.333 2.333h-14v-10h14v10z" fill="#D74758"/><path d="M300.083 90.833v-2.916h-2.916V85H278v14.167h2.917v2.916h2.916V105H303V90.833h-2.917zm-21.25 7.5v-12.5h17.5v2.084h-15.416v10.416h-2.084zm2.917 2.917v-12.5h17.5v2.083h-15.417v10.417h-2.083zm20.417 2.917h-17.5v-12.5h17.5v12.5zM34.083 289.833v-2.916h-2.916V284H12v14.167h2.917v2.916h2.916V304H37v-14.167h-2.917zm-21.25 7.5v-12.5h17.5v2.084H14.917v10.416h-2.084zm2.917 2.917v-12.5h17.5v2.083H17.833v10.417H15.75zm20.417 2.917h-17.5v-12.5h17.5v12.5zm251.916 268.666v-2.916h-2.916V566H266v14.167h2.917v2.916h2.916V586H291v-14.167h-2.917zm-21.25 7.5v-12.5h17.5v2.084h-15.416v10.416h-2.084zm2.917 2.917v-12.5h17.5v2.083h-15.417v10.417h-2.083zm20.417 2.917h-17.5v-12.5h17.5v12.5zM1338.083 12.833V9.917h-2.916V7H1316v14.167h2.917v2.916h2.916V27H1341V12.833h-2.917zm-21.25 7.5v-12.5h17.5v2.084h-15.416v10.416h-2.084zm2.917 2.917v-12.5h17.5v2.083h-15.417V23.25h-2.083zm20.417 2.917h-17.5v-12.5h17.5v12.5zm-20.652 607.157c-.956 0-1.732.77-1.732 1.719 0 .948.776 1.718 1.732 1.718s1.733-.77 1.733-1.718c0-.949-.777-1.719-1.733-1.719zm9.282-6.008a12.143 12.143 0 0 0-9.282-4.302 12.144 12.144 0 0 0-9.281 4.302.854.854 0 0 0 .106 1.21.868.868 0 0 0 1.22-.105 10.41 10.41 0 0 1 7.955-3.689 10.41 10.41 0 0 1 7.955 3.689.868.868 0 0 0 1.22.105.854.854 0 0 0 .107-1.21zm-9.282-.865a8.674 8.674 0 0 0-6.629 3.072.854.854 0 0 0 .106 1.21.867.867 0 0 0 1.22-.104 6.938 6.938 0 0 1 5.303-2.46 6.94 6.94 0 0 1 5.304 2.46.866.866 0 0 0 1.22.104.854.854 0 0 0 .106-1.21 8.676 8.676 0 0 0-6.63-3.072zm0 3.436a5.203 5.203 0 0 0-3.977 1.844.854.854 0 0 0 .106 1.21.867.867 0 0 0 1.22-.105 3.47 3.47 0 0 1 5.303 0 .866.866 0 0 0 1.22.105.854.854 0 0 0 .106-1.21 5.203 5.203 0 0 0-3.978-1.844zm-1304-609.563c-.956 0-1.732.77-1.732 1.719 0 .948.776 1.718 1.732 1.718s1.733-.77 1.733-1.718c0-.949-.777-1.719-1.733-1.719zm9.282-6.008a12.143 12.143 0 0 0-9.282-4.302 12.144 12.144 0 0 0-9.281 4.302.854.854 0 0 0 .106 1.21.868.868 0 0 0 1.22-.105 10.41 10.41 0 0 1 7.955-3.689 10.41 10.41 0 0 1 7.955 3.689.868.868 0 0 0 1.22.105.854.854 0 0 0 .107-1.21zm-9.282-.865a8.674 8.674 0 0 0-6.629 3.072.854.854 0 0 0 .106 1.21.867.867 0 0 0 1.22-.104 6.938 6.938 0 0 1 5.303-2.46 6.94 6.94 0 0 1 5.304 2.46.866.866 0 0 0 1.22.104.854.854 0 0 0 .106-1.21 8.676 8.676 0 0 0-6.63-3.072zm0 3.436a5.203 5.203 0 0 0-3.977 1.844.854.854 0 0 0 .106 1.21.867.867 0 0 0 1.22-.105 3.47 3.47 0 0 1 5.303 0 .866.866 0 0 0 1.22.105.854.854 0 0 0 .106-1.21 5.203 5.203 0 0 0-3.978-1.844zm1329.751 278.124l-3.323-1.671a.921.921 0 0 1-.508-.828v-1.184a6.5 6.5 0 0 0 .25-.332 8.029 8.029 0 0 0 1.027-2.03 1.39 1.39 0 0 0 .81-1.266v-1.4a1.4 1.4 0 0 0-.348-.919v-1.861c.02-.193.096-1.339-.728-2.284-.714-.82-1.873-1.236-3.446-1.236-1.573 0-2.732.416-3.446 1.236-.824.945-.747 2.091-.728 2.284v1.86a1.4 1.4 0 0 0-.348.919v1.4c0 .426.193.823.521 1.088a7.363 7.363 0 0 0 1.218 2.533v1.158c0 .34-.183.65-.479.812l-3.103 1.703a3.16 3.16 0 0 0-1.635 2.774v1.133c0 1.661 5.233 2.1 8 2.1 2.767 0 8-.439 8-2.1v-1.065a3.143 3.143 0 0 0-1.734-2.824zm1.038 3.889c0 .475-2.578 1.4-7.304 1.4-4.726 0-7.304-.925-7.304-1.4v-1.133c0-.9.487-1.727 1.272-2.158l3.103-1.703c.52-.285.842-.832.842-1.427v-1.406l-.081-.098a6.623 6.623 0 0 1-1.186-2.472l-.032-.139-.118-.077a.7.7 0 0 1-.322-.587v-1.4c0-.196.083-.38.233-.516l.115-.104v-2.18l-.003-.046c-.001-.01-.12-.98.558-1.757.576-.662 1.56-.997 2.923-.997 1.358 0 2.34.333 2.917.99.677.77.565 1.756.564 1.764l-.003 2.226.115.104c.15.137.233.32.233.516v1.4a.695.695 0 0 1-.495.665l-.173.053-.055.173a7.345 7.345 0 0 1-.986 2 4.602 4.602 0 0 1-.291.378l-.087.1v1.443c0 .62.342 1.176.893 1.453l3.322 1.672a2.445 2.445 0 0 1 1.35 2.198v1.065zm-78.338-183.108c-.292-3.175-2.566-5.478-5.413-5.478a5.393 5.393 0 0 0-4.609 2.624c-.968-1.637-2.633-2.624-4.499-2.624-2.845 0-5.12 2.303-5.412 5.478-.023.14-.117.878.17 2.081.415 1.736 1.373 3.315 2.77 4.565l6.967 6.247 7.087-6.246c1.396-1.251 2.354-2.83 2.768-4.566.288-1.203.193-1.94.17-2.081zm-.92 1.907c-.378 1.586-1.255 3.03-2.534 4.174l-6.568 5.79-6.455-5.788c-1.279-1.147-2.158-2.59-2.537-4.176-.272-1.14-.16-1.782-.16-1.787l.006-.038c.25-2.781 2.204-4.8 4.647-4.8 1.803 0 3.39 1.094 4.143 2.856l.354.83.355-.83c.74-1.735 2.411-2.856 4.257-2.856 2.443 0 4.397 2.02 4.652 4.837 0 .006.113.65-.16 1.788zM21.962 636.402c-.32-3.509-2.822-6.055-5.952-6.055-2.086 0-3.996 1.115-5.07 2.9-1.065-1.808-2.897-2.9-4.95-2.9-3.13 0-5.631 2.546-5.952 6.053-.026.155-.13.97.187 2.301.456 1.919 1.51 3.664 3.046 5.045l7.664 6.905 7.795-6.904c1.536-1.382 2.59-3.127 3.046-5.046.316-1.33.212-2.145.187-2.3zm-1.01 2.108c-.417 1.752-1.382 3.348-2.789 4.613l-7.224 6.399-7.1-6.397c-1.41-1.268-2.375-2.864-2.791-4.616-.3-1.259-.178-1.969-.176-1.974l.006-.043c.275-3.074 2.425-5.305 5.112-5.305 1.983 0 3.729 1.21 4.557 3.156l.39.917.39-.917c.814-1.917 2.652-3.156 4.682-3.156 2.687 0 4.837 2.232 5.118 5.346 0 .006.124.718-.176 1.977z" fill="#FFF"/></g></svg>