<svg width="20" height="15" xmlns="http://www.w3.org/2000/svg" xmlns:xlink="http://www.w3.org/1999/xlink"><defs><path d="M20.515 7.092c0 .306-.123.613-.344.834L9.613 18.484a1.19 1.19 0 0 1-.835.344 1.19 1.19 0 0 1-.835-.344L1.83 12.371a1.19 1.19 0 0 1-.344-.835c0-.307.123-.614.344-.835L3.5 9.03a1.19 1.19 0 0 1 .835-.344c.307 0 .614.123.835.344l3.609 3.622 8.053-8.066a1.19 1.19 0 0 1 .835-.344c.307 0 .614.123.835.344l1.67 1.67c.22.22.344.528.344.835z" id="a"/></defs><g transform="translate(-1 -4)" fill="none" fill-rule="evenodd"><use fill="#000" xlink:href="#a"/><use fill="#FFF" xlink:href="#a"/></g></svg>