<svg xmlns="http://www.w3.org/2000/svg" viewBox="0 0 335.6 126.2"><path d="M210.5 7.1c28-1.6 53.6-3.3 74 4 8.7 3.1 12.8 6.5 14.8 9.3.5 1.2.7 3.1-.8 5.7-3.1 5.2-12.9 13.3-37 25l2 5s28-15.5 37.2-29.4c-.1.3-.2.4-.2.4.6-.9 1-1.7 1.4-2.5 1-1.9 1.5-3.7 1.6-5.5h-.2c-.1-15.7-38.6-21.9-93.8-18-31.6 2.2-65.5 9.2-91.8 16.8-27.2 7.8-46.2 16.2-46.2 16.2l4 5c31.8-16.7 107-30.4 135-32zm-179 41.3l3.2 1.5c.9.4 1.6 1.1 2.1 1.9l1.1 1.8-2.5 1.4c-.5.3-.6.8-.3 1.3l.9 1.5c.3.4.8.6 1.3.3l2.5-1.4 1.1 1.8c.5.8.7 1.8.6 2.8l-.2 3.5c0 .3.1.7.4.8.3.2.7.2 1 0l5.1-3c1.8-1.1 3-3 3.2-5l.1-1.1 4.3-2.5c9.5-5.6 12.9-12.8 14-15.6.1-.3.1-.6-.1-.9s-.4-.5-.7-.5c-3-.5-11-1.1-20.5 4.5L43.8 44l-1-.5c-1.9-.9-4.1-.8-5.9.3l-5.1 3c-.3.2-.5.5-.5.8-.3.4-.1.7.2.8zM55 42c1.6-.9 3.5-.4 4.4 1.1s.3 3.5-1.2 4.4c-1.6.9-3.5.4-4.4-1.1-.9-1.6-.3-3.5 1.2-4.4zm95.3-1.7c.3-2-.3-2.7-2.3-2.7h-6.7c-2.1 0-2.8.7-3.1 2.7l-1.9 10.5c-1.2 6.5-.8 9.6 0 16.2h-.5c-.9-4.3-1.5-7.8-3.3-11.7l-7.6-16.4c-.4-.9-1.1-1.3-2.5-1.3H115c-2.1 0-2.8.7-3.2 2.7l-7.1 40.1c-.4 2 .2 2.7 2.2 2.7h6.7c2.1 0 2.8-.7 3.2-2.7l1.9-10.5c1.2-7.1 1.1-10.4.8-16.5h.5c.7 5.8 1.3 8.9 3.3 13.2l4.9 10.4h15.5l6.6-36.7zm62.9 36.8l5-28.2h9.5c2.1 0 2.9-.7 3.2-2.8l1-5.8c.4-2-.2-2.7-2.2-2.7H198c-2.1 0-2.8.7-3.2 2.7l-1 5.8c-.3 2.1.2 2.8 2.2 2.8h9.6l-5 28.2h12.6zM95.7 37.7c-1.9 0-2.6.6-3 2.6l-7.1 40.4c-.3 1.9.2 2.6 2.1 2.6h7.6c1.9 0 2.7-.6 3-2.6l7.1-40.4c.4-1.9-.2-2.6-2.1-2.6h-7.6zm77.4 9.6c2.9 0 5.1.9 5.9 3.3.7 1.9 1.3 2.1 3.2 1.3l6.3-2.5c2.1-.8 2.6-1.5 1.9-3.3-1.9-6-6.3-9.5-15.8-9.5-12.2 0-19.4 4.8-21 13.3-2.1 12.5 7.8 14.9 15.1 15.9 4.1.6 7.3 1.3 6.9 3.8-.5 2.8-3.2 3.7-7.6 3.7-3.6 0-5.8-1.2-6.6-3.4-.6-1.9-1.5-2.1-3.5-1.4l-6.4 2.2c-2 .7-2.7 1.6-2.4 3.5.2 1.1.6 2 1.1 2.9h35.5c1.3-1.8 2.2-3.9 2.7-6.4 2.1-11.7-7.1-15.1-14.2-16.1-4.6-.6-8.2-1.2-7.8-3.9.4-2.3 2.3-3.4 6.7-3.4zm63.4 32.4h-18.3c-2.1 0-2.8.7-3.2 2.7l-7.1 40.1c-.4 2 .2 2.7 2.2 2.7h7.2c2.1 0 2.8-.7 3.2-2.7l2.2-12.4h1.7c2.8 0 3.3 1.1 4 3.3l2.6 8.8c.6 2.2 2 3.1 5.4 3.1h6.9c2.1 0 2.8-1.4 2.2-3.1l-3.8-11c-.4-1-.8-1.9-1.2-2.8 4.7-2.4 8.1-6.5 9.2-12.7 1.8-10-3.5-16-13.2-16zm.1 15.3c-.4 2.6-2.2 4.3-4.9 4.3h-6.9l1.5-8.5h6.9c2.7.1 3.9 1.7 3.4 4.2zm19.7-55.2c-.3-1.7-1.2-2.1-3-2.1H246c-1.9 0-2.8.4-3.7 2.2l-20.1 37.2h13.2l.6-1.2h14l.2 1.2h13.2l-7.1-37.3zm-15.4 26l3.7-7.6c2.1-4.3 2.9-8.9 2.9-8.9h.6s-.7 4.6-.2 9l1 7.5h-8zm38.5 13.8h-18.8c-2.1 0-2.8.7-3.2 2.8l-7.1 40.1c-.4 2 .2 2.7 2.2 2.7h19.2c9 0 16.2-3.9 17.7-12.2 1-5.6-.6-9.7-4.4-11.5l.1-.3c3.7-2.2 5.4-4.7 6.3-9 1.4-7.6-3.1-12.6-12-12.6zm-2.8 31.4c-.4 2.7-2.1 3.8-4.7 3.8h-7.4l1.3-7.5h7.4c2.7 0 3.9 1.1 3.4 3.7zm1.6-17.5c-.4 2.5-2 3.5-4.6 3.5h-6.2l1.2-7.1h6.2c2.7 0 3.9 1.1 3.4 3.6zm40.5-14.8c-12.7 0-20.6 6.3-22.6 17.3l-2.1 11.6c-1.9 11.1 4 18.5 16.7 18.5s20.6-6.1 22.6-17.1l2-11.6c1.9-11.1-4-18.7-16.6-18.7zm4.1 17.4l-2.2 12.7c-.7 4-3.7 6.2-8.1 6.2-4.5 0-6.7-2.1-6-6.2l2.2-12.7c.7-4 3.7-6.2 8.1-6.2 4.6 0 6.7 2.1 6 6.2zM166.7 82.3c.4-2-.2-2.7-2.2-2.7h-31.7c-2.1 0-2.8.7-3.2 2.7l-1 5.8c-.3 2.1.2 2.8 2.2 2.8h9.6l-5.6 31.6c-.4 2 .2 2.7 2.2 2.7h7.2c2.1 0 2.8-.7 3.2-2.7l5.6-31.6h9.5c2.1 0 2.9-.7 3.2-2.8l1-5.8zm40-2.6h-7.3c-2 0-2.8.7-3.1 2.7l-4.7 26.7c-.6 3.8-3.2 5.9-7.6 5.9-4.4 0-6.3-2.1-5.6-5.9l4.7-26.7c.4-2-.2-2.7-2.2-2.7h-7.2c-2.1 0-2.8.7-3.2 2.7l-4.4 25c-1.9 10.8 3.6 18.8 16.3 18.8 12.6 0 20.1-5.9 22-16.7l4.8-27.1c.1-2-.5-2.7-2.5-2.7zM6.5 97.1c-3.2-1.8-5.8-7-5-9V88c2.5-5.3 9.8-13.9 30-25.9 0 0 .7-4.6-3-4 0 0-26.1 15.6-28.5 30.1-.4 1.3-.2 2.9 0 4.1 0 .2.1.4.1.6.1.5.2.8.3 1 0 .1.1.2.1.2 9 23.8 127 9 127 9l-1-6c-73.8 12.4-107.3 7-120 0z" fill="#fff"/></svg>