<svg id="Слой_1" data-name="Слой 1" xmlns="http://www.w3.org/2000/svg" viewBox="0 0 1349.9 490.64"><defs><style>.cls-1{fill:#fff;}</style></defs><title>Logo_Turbotarget</title><path class="cls-1" d="M409.66,292l-42.33-.09c-9.66,0-13.58-4.83-12-14.7l1.74-10.66c1.62-9.87,7.1-14.66,16.77-14.64l130.38.27c9.66,0,13.58,4.83,12,14.7l-1.74,10.67c-1.61,9.86-7.1,14.65-16.77,14.63l-42.33-.09-22.22,136c-1.61,9.87-7.1,14.66-16.76,14.64l-17,0c-9.67,0-13.58-4.83-12-14.69Zm247.75,95.8a94.43,94.43,0,0,0,3.74-15.1l17.29-105.87c1.62-9.86-2.3-14.67-12-14.69l-17,0c-9.67,0-15.16,4.77-16.77,14.64l-17.3,105.86a38.57,38.57,0,0,1-5.74,15.2Zm-150.29,0h44.32a31.61,31.61,0,0,1-.81-15.33l17.3-105.87c1.61-9.86-2.31-14.67-12-14.7l-17,0c-9.67,0-15.16,4.77-16.77,14.64L504.9,372.39a87.56,87.56,0,0,0-1.19,15.75A18.49,18.49,0,0,1,507.12,387.82Zm206,0,1.55-9.46,21.42,0,3.3,9.42h49.35l-4.44-11.72a75,75,0,0,0-5.18-11.48l.09-.53c19.29-9.3,33-30.61,36.45-51.94,4.49-27.47-5.14-47-25.43-55.54-7.09-3-19.11-4.58-35.57-4.61L704,251.89c-9.67,0-15.16,4.77-16.77,14.64L667.42,387.82ZM728.83,292l15.41,0c7.58,0,13.2.83,16.81,2.7,6.84,2.95,9.36,9.89,7.66,20.29-2.44,14.94-12.72,23.45-27.61,23.42l-19.86,0ZM862.9,387.82l4-24.66,27.7.06c12.8,0,18.29,8,16.41,19.5a26.39,26.39,0,0,1-1.37,5.1H957c.11-.6.24-1.19.34-1.8,3.09-18.93-3.39-36.82-22.25-43l.09-.54c14.93-8.23,25.65-24.22,28.31-40.48,5.23-32-16.94-49.92-55.34-50l-54.35-.12c-9.67,0-15.15,4.77-16.77,14.64L817.16,387.82ZM878.57,292l22.73.05c11.49,0,16.15,6.7,14.58,16.3-1.61,9.87-8.62,17.59-19.33,17.56l-23.52,0Zm141.63,95.86c-.24-.32-.5-.64-.74-1Q1008,370.42,1012,346c2.57-15.73,9.36-28.52,20.47-38.9,11.36-10.38,24.25-15.69,38.88-15.66s25.78,5.39,33.49,15.81c8,10.42,10.58,23.23,8,39-2.66,16.27-9.59,29.86-21,40.77-.29.29-.59.55-.89.83h54.62a120.87,120.87,0,0,0,14.6-41.5c4.53-27.73-.82-50.95-16.11-69.39-15.23-18.7-37.22-28.09-65.7-28.15s-53.52,9.23-74.86,27.86c-21.3,18.36-34.23,41.54-38.76,69.27q-3.76,23,1.1,41.91ZM881.07,124c111.51-5.44,213.21-11.22,294.49,13.27,34.31,10.21,51.06,21.43,58.82,31,2,3.74,2.85,10.2-3.27,18.71-9,12.92-83.73,55.1-83.73,55.1l9.8,9.87s65.35-41.16,82.51-62.93a2.91,2.91,0,0,0-.41,1.36,71.52,71.52,0,0,0,5.72-8.51,36.43,36.43,0,0,0,6.12-18h-.82c-.4-52-153.57-72.45-372.91-59.53-125.8,7.49-260.58,30.62-365.15,55.79a1789.8,1789.8,0,0,0-183.8,53.75l15.93,16.67C470.58,174.71,769.57,129.47,881.07,124ZM91.43,448.66c-9.42-6.63-17-26.52-14.89-34.32V414c7.6-19.89,29.17-52.65,88.72-98.29,0,0,2.12-17.55-8.81-15.21,0,0-77.48,59.29-84.46,114.28a44.43,44.43,0,0,0,0,15.6c0,.78.3,1.56.3,2.34a29.87,29.87,0,0,0,.91,3.9,1.58,1.58,0,0,0,.3.78c26.74,90.48,375.82,34.32,375.82,34.32l-3-22.62c-218.13,46.8-317.18,26.13-354.85-.39ZM316.58,228.55a4.49,4.49,0,0,0-2.5-2.15c-10.94-2.9-40.62-7.86-78.08,9.66l-16.53,7.81L215.78,242a25.33,25.33,0,0,0-22.33-.83l-19.76,9.44a3.9,3.9,0,0,0-2.18,2.9,4,4,0,0,0,2,3.26l11.41,6.43a18.55,18.55,0,0,1,7.4,8l3.21,7.23L185.88,283a3.3,3.3,0,0,0-1.62,4.37l.06.12,2.59,5.64a3.66,3.66,0,0,0,4.88,1.59l9.67-4.54,3.22,7.23a16.66,16.66,0,0,1,1.38,10.56l-1.93,12.94a3.52,3.52,0,0,0,1.26,3.21,2.88,2.88,0,0,0,3.45.3L228.6,315a24.19,24.19,0,0,0,13.54-17.72l.73-3.79,16.52-7.8c37.08-17.56,52.52-43.6,57.27-53.6A3.72,3.72,0,0,0,316.58,228.55Zm-46.27,34.1a12.94,12.94,0,1,1,14-11.74A12.93,12.93,0,0,1,270.31,262.65ZM1100.4,411c6.4,5.62,6.61,12.29.34,20.28l-8.58,10.92c-5.62,7.19-12.63,8.51-20.51,4-10.75-6.16-22-9.39-33.22-9.41-17.51,0-32,5.27-42.81,15.65s-17.38,23.17-19.91,38.64c-2.78,17.06.18,30.94,8.62,41.63,8.49,10.42,20.16,15.78,35.06,15.81,15.67,0,30.83-6.34,36.66-11.66l4.27-3.72,2.14-13.07-12,0c-9.67,0-13.59-4.83-12-14.69l1.7-10.4c1.62-9.87,7.1-14.66,16.77-14.64l38.15.08c9.66,0,13.58,4.83,12,14.7l-12.81,78.4c-1.61,9.86-7.1,14.65-16.77,14.63l-8.62,0c-9.15,0-13.59-4.83-12.5-11.49l.09-.54.7-2.66h-.52c-1.22,1.06-2.18,2.13-9.15,6.38a84.26,84.26,0,0,1-43.42,11.38c-25.08,0-45.28-9.16-60.39-27.07S923.24,522.7,928,493.64s17.77-52.78,39.37-71.41c21.65-18.9,46.69-28.18,75.16-28.12C1068.91,394.16,1091.21,403.28,1100.4,411Zm-432-3.3c3.67-8.15,9.8-12.23,18.1-12.22h24.12c8.3,0,13.43,4.08,15.11,12.23L761,572.65c2.25,10.05-3.43,17.11-14.15,17.11H729.14c-8.31,0-13.44-4.08-15.08-12.51L709.48,549l-59.74,0-11.5,28.25c-3.45,8.42-9.3,12.49-17.88,12.49H602.68c-10.72,0-14.67-7.07-10-17.12Zm-3,103.23h37.78l-6.09-37.77-3.68-33.41h-.53c-4.68,14.13-8.46,25.26-11.87,33.41Zm644.87-74.16H1266c-10.1,0-14.32-4.91-12.89-15l1.55-10.93c1.42-10.1,7-15,17.13-15H1408c10.1,0,14.32,4.91,12.89,15l-1.54,10.93c-1.43,10.1-7,15-17.14,15H1358L1338.34,576c-1.43,10.1-7,15-17.14,15h-17.75c-10.1,0-14.32-4.91-12.89-15Zm-782.41,0H483.62c-10.1,0-14.32-4.91-12.89-15l1.54-10.93c1.43-10.1,7-15,17.14-15H625.63c10.1,0,14.32,4.91,12.9,15L637,421.79c-1.43,10.1-7,15-17.14,15H575.62L555.93,576c-1.43,10.1-7,15-17.14,15H521.05c-10.1,0-14.32-4.91-12.89-15Zm264.34-25.94c1.43-10.1,7-15,17.13-15h53c17.2,0,29.8,1.64,37.3,4.64,21.42,8.74,32,28.67,28,56.78-3.09,21.84-16.82,43.68-36.74,53.24l-.07.54a77.83,77.83,0,0,1,5.71,11.74L917.21,573c4.3,10.1-1.18,18-12.92,18H883.54c-7.92,0-13.15-3.55-16.24-10.65l-21.14-55.14H823.78L816.6,576c-1.43,10.1-7,15-17.14,15H781.71c-10.1,0-14.32-4.91-12.89-15Zm37.39,73.44h20.74c15.56,0,26.08-8.74,28.24-24,1.51-10.65-1.31-17.75-8.53-20.75-3.82-1.91-9.71-2.73-17.63-2.73H836.28Zm297.48-73.44c1.43-10.1,7-15,17.14-15h92.27c10.1,0,14.32,4.91,12.89,15l-1.54,10.93c-1.43,10.1-7,15-17.14,15h-59.52l-5,35.49h44.49c10.1,0,14.32,4.91,12.9,15L1222,498.22c-1.43,10.1-7,15-17.14,15h-44.49l-5.22,36.85h63.34c10.1,0,14.32,4.92,12.89,15L1229.82,576c-1.43,10.1-7,15-17.14,15h-96.1c-10.1,0-14.32-4.91-12.89-15Z" transform="translate(-71.3 -100.52)"/></svg>