<svg xmlns="http://www.w3.org/2000/svg" width="103.456" height="42.947"><path d="M74.925 15.097h-6.4c-.688 0-.963.241-1.1.928L65.61 26.478h4.3l.344-1.994h2.51c.928 0 1.341.378 1.169 1.272a1.386 1.386 0 0 1-.275.722h4.676v-.034c.309-1.891-.206-3.3-1.513-3.92l.034-.1a4.08 4.08 0 0 0 2.132-3.06c.516-2.544-1.031-4.263-4.057-4.263zm-.378 4.745c-.138.86-.688 1.169-1.547 1.169h-2.1l.413-2.407h2.1c.896.005 1.274.378 1.136 1.238zm-50.1-.894h3.232l-1.884 10.727c-.138.688.069.928.756.928h2.474c.688 0 .963-.241 1.1-.928l1.891-10.727h3.232c.688 0 .963-.241 1.1-.928l.344-1.96c.138-.688-.069-.928-.756-.928h-10.8c-.688 0-.963.241-1.1.928l-.344 1.96c-.1.688.069.928.756.928zm17.741-2.888c.138-.688-.069-.928-.756-.928h-2.468c-.688 0-.963.241-1.1.928l-1.479 8.492c-.653 3.645 1.2 6.4 5.536 6.4a11.137 11.137 0 0 0 1.925-.172l.619-3.576a.653.653 0 0 1 .653-.653h3.92a6.518 6.518 0 0 0 .309-1.238l1.616-9.214c.138-.688-.1-.928-.756-.928h-2.476c-.688 0-.963.241-1.066.928l-1.582 9.008a2.316 2.316 0 0 1-2.579 1.994c-1.513 0-2.132-.722-1.925-1.994l1.616-9.043zm46.737 8.974a2.343 2.343 0 0 1-.825 1.478h4.745a8.441 8.441 0 0 0 .378-1.41l.688-3.954c.653-3.782-1.341-6.361-5.639-6.361s-7.014 2.132-7.667 5.879l-.688 3.954a7.076 7.076 0 0 0-.069 1.891h4.607a1.619 1.619 0 0 1-.275-1.478l.756-4.3a2.486 2.486 0 0 1 2.751-2.1c1.513 0 2.235.722 1.994 2.1zM70.595 2.376c9.386-.55 17.948-1.135 24.79 1.341 2.888 1.031 4.3 2.166 4.951 3.129a2.016 2.016 0 0 1-.275 1.891c-.756 1.307-7.048 5.57-7.048 5.57l.825 1s5.5-4.16 6.945-6.361a.344.344 0 0 0-.034.138 7.478 7.478 0 0 0 .481-.86 4.191 4.191 0 0 0 .516-1.822h-.069c-.034-5.26-12.928-7.323-31.391-6.017A156.628 156.628 0 0 0 39.548 6.02a131.894 131.894 0 0 0-15.472 5.432l1.341 1.685C36.041 7.499 61.209 2.926 70.595 2.376zm-5.742 18.188c.619-3.369-1.2-5.432-4.47-5.432h-6.188c-.688 0-.963.241-1.1.928l-1.823 10.449h4.3l.172-1.066h.55c.928 0 1.1.344 1.341 1.066h4.779l-.241-.688q-.206-.516-.413-.928a5.871 5.871 0 0 0 3.094-4.332zm-4.47-.206a1.6 1.6 0 0 1-1.685 1.444h-2.337l.516-2.888h2.338a1.1 1.1 0 0 1 1.169 1.444zm3.679 6.842h-2.269c-.688 0-.963.241-1.066.928l-.619 3.576a15.565 15.565 0 0 0 0 5.5h-.172a17.65 17.65 0 0 0-1.135-3.988l-2.576-5.569c-.138-.309-.378-.447-.86-.447h-2.477c-.688 0-.963.241-1.1.928l-2.407 13.615c-.138.688.069.928.756.928h2.269c.688 0 .963-.241 1.1-.928l.619-3.541a21.106 21.106 0 0 0 .275-5.6h.172a12.71 12.71 0 0 0 1.135 4.47l2.407 5.157a.727.727 0 0 0 .791.447h2.407c.688 0 .963-.241 1.1-.928l2.407-13.615c.138-.688-.069-.928-.756-.928zm-15.2 0h-2.575c-.653 0-.894.206-1.031.86l-2.407 13.718c-.1.653.069.86.722.86h2.579c.653 0 .928-.206 1.031-.86l2.407-13.719c.137-.65-.069-.859-.722-.859zm43.363 2.853l.344-1.96c.138-.688-.069-.928-.756-.928H81.048c-.688 0-.963.241-1.1.928l-.344 1.96c-.1.688.069.928.756.928h3.232l-1.891 10.728c-.138.688.069.928.756.928h2.476c.688 0 .963-.241 1.1-.928l1.892-10.727h3.232c.687.034.962-.207 1.068-.929zm-19.117-3.2c-4.16 0-6.6 1.616-7.117 4.5-.722 4.229 2.647 5.054 5.123 5.4 1.41.206 2.476.447 2.338 1.272-.172.928-1.1 1.238-2.579 1.238-1.2 0-1.994-.378-2.235-1.169-.206-.619-.516-.688-1.2-.481l-2.166.756c-.688.241-.928.55-.791 1.2.447 2.235 2.751 3.369 5.983 3.369 4.023 0 6.739-1.375 7.323-4.573.722-3.988-2.407-5.123-4.848-5.467-1.582-.206-2.785-.378-2.647-1.341.138-.756.791-1.135 2.269-1.135 1 0 1.719.309 1.994 1.135.241.619.447.722 1.1.447l2.166-.86c.688-.275.86-.516.653-1.135-.619-1.96-2.132-3.163-5.364-3.163zm-70.83 5.676C1.212 31.945.353 30.191.593 29.503v-.034c.86-1.753 3.3-4.642 10.04-8.664 0 0 .241-1.547-1-1.341 0 0-8.768 5.226-9.558 10.074a3.091 3.091 0 0 0 0 1.375c0 .069.034.138.034.206a2.136 2.136 0 0 0 .1.344.12.12 0 0 0 .034.069c3.026 7.977 42.531 3.026 42.531 3.026l-.344-1.994c-24.687 4.126-35.9 2.3-40.159-.034zm8.355-16.3l1.066.481a1.663 1.663 0 0 1 .722.653l.344.619-.825.481a.294.294 0 0 0-.1.413l.275.481a.327.327 0 0 0 .447.1l.825-.481.344.619a1.483 1.483 0 0 1 .206.928l-.069 1.169a.313.313 0 0 0 .138.275.256.256 0 0 0 .309 0l1.685-1a2.164 2.164 0 0 0 1.066-1.685l.034-.344 1.41-.825a10.546 10.546 0 0 0 4.676-5.226.334.334 0 0 0-.034-.309.4.4 0 0 0-.241-.172 10.355 10.355 0 0 0-6.876 1.478l-1.41.825-.344-.138a2.266 2.266 0 0 0-1.994.1l-1.685 1a.351.351 0 0 0-.172.275.357.357 0 0 0 .206.275zm7.908-2.166a1.066 1.066 0 0 1 1.478.378 1.083 1.083 0 0 1-.413 1.478 1.072 1.072 0 0 1-1.478-.378 1.055 1.055 0 0 1 .413-1.478zm84.89 27.678l-2.579-13.856c-.1-.55-.378-.722-1.031-.722h-2.476a1.21 1.21 0 0 0-1.272.756l-7.427 13.822c-.309.584-.275.894.413.894h2.407c1.1 0 1.41-.241 1.754-.928l.756-1.582h4.71l.206 1.582c.069.688.344.928 1.444.928h2.269c.722 0 .928-.309.825-.894zm-7.839-4.985l1.233-2.577a13.344 13.344 0 0 0 .963-3.026h.206a13.29 13.29 0 0 0-.069 3.06l.344 2.544z" fill="#fff"/></svg>