<svg xmlns="http://www.w3.org/2000/svg" width="53.953" height="38.678" viewBox="0 0 53.953 38.678"><g transform="translate(0 -72.477)"><g transform="translate(30.277 91.827)"><path d="M289.447,256.378a1.218,1.218,0,0,0-.861-.276h-1.272v2.39h1.272a1.294,1.294,0,0,0,.861-2.114Z" transform="translate(-287.314 -256.102)" fill="#fff"/></g><g transform="translate(0 72.477)"><path d="M0,76.72v30.194a4.247,4.247,0,0,0,4.242,4.242h6.377V72.478H4.242A4.247,4.247,0,0,0,0,76.72Z" transform="translate(0 -72.478)" fill="#fff"/></g><g transform="translate(13.783 72.477)"><path d="M166.721,72.477H130.792v6.318h40.171V76.719A4.247,4.247,0,0,0,166.721,72.477Z" transform="translate(-130.792 -72.477)" fill="#fff"/></g><g transform="translate(13.783 81.958)"><path d="M130.792,162.446v29.2h35.929a4.247,4.247,0,0,0,4.242-4.242V162.446Zm10.339,15.844a1.362,1.362,0,0,0,.6-.116.685.685,0,0,0,.34-.353,2.157,2.157,0,0,0,.135-.392,4.149,4.149,0,0,0,.058-.424q.051-.6.989-.6a1.206,1.206,0,0,1,.784.2.968.968,0,0,1,.231.752,2.375,2.375,0,0,1-.906,1.966,3.613,3.613,0,0,1-2.319.72,3.3,3.3,0,0,1-2.229-.732,2.869,2.869,0,0,1-.855-2.3V173.6a2.868,2.868,0,0,1,.855-2.3,3.305,3.305,0,0,1,2.229-.732,3.755,3.755,0,0,1,2.319.681,2.218,2.218,0,0,1,.906,1.876.967.967,0,0,1-.231.752,1.18,1.18,0,0,1-.771.2q-.964,0-1-.6a1.038,1.038,0,0,0-1.144-1.157q-1.157,0-1.157,1.285v3.405Q139.961,178.29,141.131,178.29Zm10.261,1.413a1.323,1.323,0,0,1-.855.334.667.667,0,0,1-.643-.373l-1.76-3.418h-.848v3.1a.5.5,0,0,1-.3.456,1.635,1.635,0,0,1-1.414,0,.5.5,0,0,1-.3-.456v-8.173a.6.6,0,0,1,.617-.6h2.66q3.161,0,3.161,2.75a2.5,2.5,0,0,1-1.555,2.609l1.568,2.84a.39.39,0,0,1,.064.231A.933.933,0,0,1,151.392,179.7Zm8.86.1a1.635,1.635,0,0,1-1.414,0,.5.5,0,0,1-.3-.456v-4.819l-1.234,2.107a.723.723,0,0,1-.668.373.657.657,0,0,1-.63-.373L154.79,174.4v4.947a.5.5,0,0,1-.3.456,1.635,1.635,0,0,1-1.414,0,.5.5,0,0,1-.3-.456V171.57a.937.937,0,0,1,.289-.758,1.068,1.068,0,0,1,.713-.244,1.8,1.8,0,0,1,.88.173,2.24,2.24,0,0,1,.675.829l1.324,2.313,1.324-2.313a2.232,2.232,0,0,1,.675-.829,1.8,1.8,0,0,1,.88-.173,1.068,1.068,0,0,1,.713.244.938.938,0,0,1,.289.758v7.774h0A.5.5,0,0,1,160.252,179.8Z" transform="translate(-130.792 -162.446)" fill="#fff"/></g></g></svg>