<svg xmlns="http://www.w3.org/2000/svg" width="53.883" height="42.336" viewBox="0 0 53.883 42.336"><g transform="translate(0 -54.82)"><g transform="translate(0 54.82)"><path d="M5.172,67.87q1.022.721,6.164,4.285t7.878,5.487q.3.211,1.278.917T22.115,79.7q.647.436,1.564.977a9.072,9.072,0,0,0,1.729.811,4.764,4.764,0,0,0,1.5.271h.061a4.768,4.768,0,0,0,1.5-.271,9.081,9.081,0,0,0,1.729-.811q.917-.542,1.563-.977t1.624-1.143q.977-.707,1.278-.917,2.766-1.924,14.072-9.772a14.284,14.284,0,0,0,3.668-3.7,7.941,7.941,0,0,0,1.474-4.54,4.852,4.852,0,0,0-4.811-4.811H4.811a4.294,4.294,0,0,0-3.563,1.563A6.069,6.069,0,0,0,0,60.292a7.024,7.024,0,0,0,1.654,4.1A14.925,14.925,0,0,0,5.172,67.87Z" transform="translate(0 -54.82)" fill="#fff"/><path d="M50.876,187.053q-9.861,6.675-14.974,10.374-1.714,1.262-2.781,1.969a17.163,17.163,0,0,1-2.841,1.443,8.652,8.652,0,0,1-3.307.737h-.061a8.655,8.655,0,0,1-3.307-.737,17.172,17.172,0,0,1-2.841-1.443q-1.067-.706-2.781-1.969-4.06-2.977-14.944-10.374A15.927,15.927,0,0,1,0,184.437v23.874a4.631,4.631,0,0,0,1.413,3.4,4.632,4.632,0,0,0,3.4,1.414H49.072a4.826,4.826,0,0,0,4.811-4.812V184.437A16.581,16.581,0,0,1,50.876,187.053Z" transform="translate(0 -170.786)" fill="#fff"/></g></g></svg>