<svg xmlns="http://www.w3.org/2000/svg" width="53.699" height="53.699"><path d="M25.074 29.64a1.147 1.147 0 0 0-1.021-.613h-3.44V16.419a1.12 1.12 0 0 0-1.129-1.15h-6.875a1.151 1.151 0 0 0-1.15 1.15v12.608h-3.44a1.16 1.16 0 0 0-1.021.613 1.142 1.142 0 0 0 .075 1.182l8.029 11.469a1.143 1.143 0 0 0 .935.494 1.129 1.129 0 0 0 .935-.494l8.029-11.469a1.12 1.12 0 0 0 .073-1.182zm16.409-11.756H27.724a1.15 1.15 0 1 0 0 2.3h13.759a1.15 1.15 0 0 0 0-2.3zm0 6.705H27.724a1.15 1.15 0 1 0 0 2.3h13.759a1.15 1.15 0 0 0 0-2.3zm11.345 13.094l-2.193-.548 1.161-1.945a1.138 1.138 0 0 0-.172-1.4l-3.246-3.246a1.141 1.141 0 0 0-1.4-.172l-1.946 1.161-.548-2.193a1.149 1.149 0 0 0-1.107-.871h-4.59a1.128 1.128 0 0 0-1.107.871l-.548 2.193-1.945-1.161a1.138 1.138 0 0 0-1.4.172l-3.246 3.246a1.139 1.139 0 0 0-.172 1.4l1.161 1.945-2.193.548a1.149 1.149 0 0 0-.871 1.107v4.59a1.128 1.128 0 0 0 .871 1.107l2.193.548-1.159 1.946a1.138 1.138 0 0 0 .172 1.4l3.246 3.246a1.154 1.154 0 0 0 1.4.172l1.945-1.161.548 2.193a1.149 1.149 0 0 0 1.107.871h4.59a1.128 1.128 0 0 0 1.107-.871l.548-2.193 1.946 1.161a1.138 1.138 0 0 0 1.4-.172l3.246-3.246a1.139 1.139 0 0 0 .172-1.4l-1.161-1.946 2.193-.548a1.149 1.149 0 0 0 .871-1.107v-4.59a1.137 1.137 0 0 0-.873-1.107zM41.09 46.82a5.729 5.729 0 1 1 5.729-5.729 5.734 5.734 0 0 1-5.729 5.728z" fill="#fff"/><path d="M44.641 0H4.458A4.464 4.464 0 0 0 0 4.468v40.183a4.473 4.473 0 0 0 4.468 4.469h22.917a1.174 1.174 0 0 0 .827-.356 1.141 1.141 0 0 0 .293-.848 3.193 3.193 0 0 1 .01-.712 1.117 1.117 0 0 0-.415-1.014 3.387 3.387 0 0 1-.837-.984 1.107 1.107 0 0 0-.963-.555H4.468V11.165h40.183V26.3a1.107 1.107 0 0 0 .555.963 3.474 3.474 0 0 1 .973.816 1.981 1.981 0 0 0 2.574.136 1.115 1.115 0 0 0 .356-.827V4.468A4.473 4.473 0 0 0 44.641 0zM5.577 6.7A1.114 1.114 0 1 1 6.7 5.588 1.121 1.121 0 0 1 5.577 6.7zm4.468.01a1.12 1.12 0 1 1 1.12-1.12 1.121 1.121 0 0 1-1.119 1.118zm4.468 0a1.13 1.13 0 0 1-1.12-1.13 1.12 1.12 0 1 1 1.12 1.13z" fill="#fff"/></svg>