<svg xmlns="http://www.w3.org/2000/svg" width="53.699" height="53.699" viewBox="0 0 53.699 53.699"><g transform="translate(6.868 15.269)"><path d="M82.1,163.671a1.147,1.147,0,0,0-1.021-.613h-3.44V150.45a1.12,1.12,0,0,0-1.129-1.15H69.635a1.151,1.151,0,0,0-1.15,1.15v12.608h-3.44a1.16,1.16,0,0,0-1.021.613,1.142,1.142,0,0,0,.075,1.182l8.029,11.469a1.143,1.143,0,0,0,.935.494,1.129,1.129,0,0,0,.935-.494l8.029-11.469A1.12,1.12,0,0,0,82.1,163.671Z" transform="translate(-63.894 -149.3)" fill="#fff"/></g><g transform="translate(26.574 17.884)"><path d="M270.909,170.7H257.15a1.15,1.15,0,1,0,0,2.3h13.759a1.15,1.15,0,0,0,0-2.3Z" transform="translate(-256 -170.7)" fill="#fff"/></g><g transform="translate(26.574 24.589)"><path d="M270.909,234.7H257.15a1.15,1.15,0,1,0,0,2.3h13.759a1.15,1.15,0,0,0,0-2.3Z" transform="translate(-256 -234.7)" fill="#fff"/></g><g transform="translate(28.471 28.471)"><path d="M301.657,286.512l-2.193-.548,1.161-1.945a1.138,1.138,0,0,0-.172-1.4l-3.246-3.246a1.141,1.141,0,0,0-1.4-.172l-1.946,1.161-.548-2.193a1.149,1.149,0,0,0-1.107-.871h-4.59a1.128,1.128,0,0,0-1.107.871l-.548,2.193-1.945-1.161a1.138,1.138,0,0,0-1.4.172l-3.246,3.246a1.139,1.139,0,0,0-.172,1.4l1.161,1.945-2.193.548a1.149,1.149,0,0,0-.871,1.107v4.59a1.128,1.128,0,0,0,.871,1.107l2.193.548L279.2,295.81a1.138,1.138,0,0,0,.172,1.4l3.246,3.246a1.154,1.154,0,0,0,1.4.172l1.945-1.161.548,2.193a1.149,1.149,0,0,0,1.107.871h4.59a1.128,1.128,0,0,0,1.107-.871l.548-2.193,1.946,1.161a1.138,1.138,0,0,0,1.4-.172l3.246-3.246a1.139,1.139,0,0,0,.172-1.4l-1.161-1.946,2.193-.548a1.149,1.149,0,0,0,.871-1.107v-4.59A1.137,1.137,0,0,0,301.657,286.512Zm-11.738,9.137a5.729,5.729,0,1,1,5.729-5.729A5.734,5.734,0,0,1,289.919,295.648Z" transform="translate(-277.3 -277.3)" fill="#fff"/></g><g transform="translate(0 0)"><path d="M44.641,0H4.458A4.464,4.464,0,0,0,0,4.468V44.651A4.473,4.473,0,0,0,4.468,49.12H27.385a1.174,1.174,0,0,0,.827-.356,1.141,1.141,0,0,0,.293-.848,3.193,3.193,0,0,1,.01-.712A1.117,1.117,0,0,0,28.1,46.19a3.387,3.387,0,0,1-.837-.984,1.107,1.107,0,0,0-.963-.555H4.468V11.165H44.651V26.3a1.107,1.107,0,0,0,.555.963,3.474,3.474,0,0,1,.973.816,1.981,1.981,0,0,0,2.574.136,1.115,1.115,0,0,0,.356-.827V4.468A4.473,4.473,0,0,0,44.641,0ZM5.577,6.7A1.114,1.114,0,1,1,6.7,5.588,1.121,1.121,0,0,1,5.577,6.7Zm4.468.01a1.12,1.12,0,1,1,1.12-1.12A1.121,1.121,0,0,1,10.046,6.708Zm4.468,0a1.13,1.13,0,0,1-1.12-1.13,1.12,1.12,0,1,1,1.12,1.13Z" transform="translate(0 0)" fill="#fff"/></g></svg>