<svg xmlns="http://www.w3.org/2000/svg" width="54.089" height="41.978"><path d="M48.25 0H5.84a3.376 3.376 0 0 0-3.372 3.372v29.6h49.153v-29.6A3.376 3.376 0 0 0 48.25 0zm-.913 28.686H6.753v-24.4h40.584zM0 36.184v2.422a3.376 3.376 0 0 0 3.372 3.372h47.345a3.376 3.376 0 0 0 3.372-3.372v-2.422z" fill="#fff"/><path d="M31.934 8.436l-11.35 4.6h-6.943v6.052h2.672l.881 6.052h4.268l-.881-6.052 11.35 4.6zm4.318 6.018h4.197v3.213h-4.197zm-2.402-3.655l2.968-2.968 2.272 2.272-2.968 2.968zm0 10.52l2.272-2.272 2.968 2.968-2.272 2.272z" fill="#fff"/></svg>