<svg xmlns="http://www.w3.org/2000/svg" width="54.089" height="41.978" viewBox="0 0 54.089 41.978"><g transform="translate(0 -57.323)"><g transform="translate(2.468 57.323)"><g transform="translate(0 0)"><path d="M69.143,57.323H26.733a3.376,3.376,0,0,0-3.372,3.372v29.6H72.514v-29.6A3.376,3.376,0,0,0,69.143,57.323ZM68.23,86.009H27.646v-24.4H68.23Z" transform="translate(-23.361 -57.323)" fill="#fff"/></g></g><g transform="translate(0 93.507)"><path d="M0,399.838v2.422a3.376,3.376,0,0,0,3.372,3.372H50.717a3.376,3.376,0,0,0,3.372-3.372v-2.422Z" transform="translate(0 -399.838)" fill="#fff"/></g><g transform="translate(13.641 65.759)"><g transform="translate(0 0)"><path d="M147.421,137.18l-11.35,4.6h-6.943v6.052H131.8l.881,6.052h4.268l-.881-6.052,11.35,4.6Z" transform="translate(-129.128 -137.18)" fill="#fff"/></g></g><g transform="translate(36.252 71.777)"><g transform="translate(0 0)"><rect width="4.197" height="3.213" fill="#fff"/></g></g><g transform="translate(33.85 65.155)"><g transform="translate(0 0)"><rect width="4.197" height="3.213" transform="translate(0 2.967) rotate(-45)" fill="#fff"/></g></g><g transform="translate(33.85 76.37)"><g transform="translate(0 0)"><rect width="3.213" height="4.197" transform="translate(0 2.272) rotate(-45)" fill="#fff"/></g></g></g></svg>