<svg xmlns="http://www.w3.org/2000/svg" width="53.993" height="53.993" viewBox="0 0 53.993 53.993"><g transform="translate(20.466 9.491)"><path d="M207.135,95.22a6.695,6.695,0,0,0-13.061,0h4.949V93.427h3.164V95.22Z" transform="translate(-194.074 -90)" fill="#fff"/></g><g transform="translate(10.877)"><path d="M119.264,0a16.209,16.209,0,0,0-16.119,14.711h6.37a9.861,9.861,0,0,1,19.5,0h6.37A16.209,16.209,0,0,0,119.264,0Z" transform="translate(-103.145)" fill="#fff"/></g><g transform="translate(0 17.875)"><rect width="53.993" height="6.327" fill="#fff"/></g><g transform="translate(0.976 27.366)"><path d="M9.255,259.5l18.111,16.26v10.367H43.185V275.76L61.3,259.5Z" transform="translate(-9.255 -259.5)" fill="#fff"/></g></svg>