<?xml version="1.0" encoding="UTF-8"?>
<svg width="20px" height="11px" viewBox="0 0 20 11" version="1.1" xmlns="http://www.w3.org/2000/svg" xmlns:xlink="http://www.w3.org/1999/xlink">
    <!-- Generator: Sketch 50.2 (55047) - http://www.bohemiancoding.com/sketch -->
    <title>Arrow-down - simple-line-icons</title>
    <desc>Created with Sketch.</desc>
    <defs>
        <linearGradient x1="0%" y1="0%" x2="101.999998%" y2="100.999999%" id="linearGradient-1">
            <stop stop-color="#3023AE" offset="0%"></stop>
            <stop stop-color="#C86DD7" offset="100%"></stop>
        </linearGradient>
    </defs>
    <g id="Page-1" stroke="none" stroke-width="1" fill="none" fill-rule="evenodd">
        <g id="Artboard" transform="translate(-734.000000, -37.000000)" fill="url(#linearGradient-1)">
            <path d="M734.15625,37.6210938 C734.15625,37.5429684 734.172526,37.461589 734.205078,37.3769531 C734.23763,37.2923173 734.286458,37.2174482 734.351562,37.1523438 C734.481771,37.0351557 734.63802,36.9765625 734.820312,36.9765625 C735.002605,36.9765625 735.158854,37.0351557 735.289062,37.1523438 L744.117188,45.9804688 L752.808594,37.2890625 C752.938803,37.1588535 753.095051,37.09375 753.277344,37.09375 C753.459636,37.09375 753.615885,37.1588535 753.746094,37.2890625 C753.876303,37.4192715 753.941406,37.5755199 753.941406,37.7578125 C753.941406,37.9401051 753.876303,38.0963535 753.746094,38.2265625 L744.585938,47.3867188 C744.455729,47.5169277 744.29948,47.5820312 744.117188,47.5820312 C743.934895,47.5820312 743.778646,47.5169277 743.648438,47.3867188 L734.351562,38.109375 C734.286458,38.0442705 734.23763,37.9694015 734.205078,37.8847656 C734.172526,37.8001298 734.15625,37.71224 734.15625,37.6210938 Z" id="Arrow-down---simple-line-icons"></path>
        </g>
    </g>
</svg>