<svg xmlns="http://www.w3.org/2000/svg" width="119.798" height="119.83"><g fill="#6964e7"><path d="M91.176 55.034c-.234.237-.453.487-.687.718a50.97 50.97 0 0 1-9.17 7.259 66.918 66.918 0 0 1 9.17 18.847c2.684 9.37 1.8 17.158-2.413 21.376-2.621 2.618-6.46 3.952-11.411 3.952-12.582 0-28.764-8.367-42.22-21.828-21.073-21.073-26.338-45.18-17.884-53.639 2.621-2.621 6.46-3.947 11.411-3.947 8.6 0 18.879 3.907 28.822 10.68a51.359 51.359 0 0 1 7.249-9.146c.239-.242.495-.466.734-.7-12.332-8.596-25.349-13.479-36.805-13.479-8.307 0-15.342 2.647-20.35 7.654C-7.415 37.819.442 69.229 25.507 94.297c15.982 15.99 35.11 25.533 51.158 25.533 8.3 0 15.342-2.65 20.347-7.654 7.667-7.667 9.67-19.668 5.631-33.792a80.014 80.014 0 0 0-11.467-23.35z"/><path d="M37.13 38.842a11.842 11.842 0 0 0-8.667 3.326c-2.352 2.352-5.6 7.872-.955 18.439 2.631 5.978 7.336 12.519 13.248 18.434 9.63 9.635 20.442 15.621 28.209 15.621a11.841 11.841 0 0 0 8.664-3.323c2.352-2.355 5.61-7.875.96-18.442a48.227 48.227 0 0 0-3.171-5.9 48.888 48.888 0 0 1-17.876 5.141 9.484 9.484 0 0 1-9.88-9.88 48.547 48.547 0 0 1 5.118-17.854c-5.683-3.523-11.17-5.562-15.65-5.562z"/><path d="M119.708 20.282a3.16 3.16 0 0 0-2.131-2.255l-12.025-3.776-3.78-12.037a3.163 3.163 0 0 0-5.255-1.29L85.552 11.9a3.161 3.161 0 0 0-.866 2.844l1.355 6.875c-6.4 3.1-14.493 9.125-21.363 15.992a44.38 44.38 0 0 0-13.026 27.24 3.163 3.163 0 0 0 3.294 3.292 44.38 44.38 0 0 0 27.239-13.027c6.867-6.873 12.89-14.966 15.987-21.362l6.88 1.352a3.146 3.146 0 0 0 2.842-.866l10.972-10.972a3.155 3.155 0 0 0 .842-2.986z"/></g></svg>