<svg xmlns="http://www.w3.org/2000/svg" width="119.798" height="119.83" viewBox="0 0 119.798 119.83"><g transform="translate(0)"><path d="M91.182,47.115c-.234.237-.453.487-.687.718a50.97,50.97,0,0,1-9.17,7.259,66.918,66.918,0,0,1,9.17,18.847c2.684,9.37,1.8,17.158-2.413,21.376-2.621,2.618-6.46,3.952-11.411,3.952-12.582,0-28.764-8.367-42.22-21.828C13.378,56.366,8.113,32.259,16.567,23.8c2.621-2.621,6.46-3.947,11.411-3.947,8.6,0,18.879,3.907,28.822,10.68a51.359,51.359,0,0,1,7.249-9.146c.239-.242.495-.466.734-.7C52.451,12.091,39.434,7.208,27.978,7.208c-8.307,0-15.342,2.647-20.35,7.654C-7.409,29.9.448,61.31,25.513,86.378c15.982,15.99,35.11,25.533,51.158,25.533,8.3,0,15.342-2.65,20.347-7.654,7.667-7.667,9.67-19.668,5.631-33.792A80.014,80.014,0,0,0,91.182,47.115Z" transform="translate(-0.006 7.919)" fill="#6964e7"/><path d="M22.12,15.647a11.842,11.842,0,0,0-8.667,3.326c-2.352,2.352-5.6,7.872-.955,18.439,2.631,5.978,7.336,12.519,13.248,18.434,9.63,9.635,20.442,15.621,28.209,15.621a11.841,11.841,0,0,0,8.664-3.323c2.352-2.355,5.61-7.875.96-18.442a48.227,48.227,0,0,0-3.171-5.9,48.888,48.888,0,0,1-17.876,5.141,9.484,9.484,0,0,1-9.88-9.88A48.547,48.547,0,0,1,37.77,21.209C32.087,17.686,26.6,15.647,22.12,15.647Z" transform="translate(15.01 23.195)" fill="#6964e7"/><path d="M89.156,20.282a3.16,3.16,0,0,0-2.131-2.255L75,14.251,71.22,2.214A3.163,3.163,0,0,0,65.965.924L55,11.9a3.161,3.161,0,0,0-.866,2.844l1.355,6.875c-6.4,3.1-14.493,9.125-21.363,15.992A44.38,44.38,0,0,0,21.1,64.851a3.163,3.163,0,0,0,3.294,3.292A44.38,44.38,0,0,0,51.633,55.116C58.5,48.243,64.523,40.15,67.62,33.754L74.5,35.106a3.146,3.146,0,0,0,2.842-.866L88.314,23.268A3.155,3.155,0,0,0,89.156,20.282Z" transform="translate(30.552 0)" fill="#6964e7"/></g></svg>