<svg xmlns="http://www.w3.org/2000/svg" width="120" height="119.994"><path d="M118.949 3.571a4.224 4.224 0 0 0-2.526-2.526 23.366 23.366 0 0 0-7.6-1.045 41.749 41.749 0 0 0-10.587 1.452c-4.576 1.2-10.012 3.8-16.157 7.73a70.471 70.471 0 0 0-11.854 9.545l-15.226 15.23-6.49-1.689 5.9-5.9a9.445 9.445 0 0 0 0-13.341l-.493-.493a9.435 9.435 0 0 0-13.341 0l-35.6 35.6a4.224 4.224 0 0 0 0 5.974l7.86 7.86a4.224 4.224 0 0 0 5.973 0l22.771-22.773 6.49 1.689-6.058 6.058a4.224 4.224 0 0 0-.983 1.543l-4.129 11.361-7.391 7.389-13.8 3.81a4.224 4.224 0 0 0-1.862 7.058l1.037 1.037a42 42 0 0 0-6.87 5.62C-2.001 94.773.164 115.146.261 116.008a4.224 4.224 0 0 0 3.726 3.726 55.625 55.625 0 0 0 5.667.261c8.012 0 18.954-1.391 25.579-8.016a42.289 42.289 0 0 0 5.627-6.863l1.031 1.031a4.224 4.224 0 0 0 7.058-1.862l3.81-13.8 7.391-7.39 11.359-4.129a4.233 4.233 0 0 0 1.543-.983l6.059-6.059 1.688 6.491-22.773 22.774a4.224 4.224 0 0 0 0 5.974l7.861 7.86a4.224 4.224 0 0 0 5.973 0l35.6-35.6a9.444 9.444 0 0 0 0-13.341l-.493-.493a9.435 9.435 0 0 0-13.341 0l-5.9 5.9-1.689-6.494 15.229-15.229a70.4 70.4 0 0 0 9.546-11.855c3.925-6.147 6.526-11.582 7.73-16.157 2.865-10.882.668-17.468.407-18.183zM29.26 106.005c-4.823 4.823-14.354 5.543-19.607 5.542-.424 0-.828 0-1.208-.012-.124-6.106.742-16 5.544-20.8a31.447 31.447 0 0 1 7.052-5.44l13.671 13.67a31.79 31.79 0 0 1-5.452 7.04z" fill="#6765e7"/><g transform="translate(60.327 24)" fill="#6566e7" stroke="#fff" stroke-width="9"><circle cx="18" cy="18" r="18" stroke="none"/><circle cx="18" cy="18" r="13.5" fill="none"/></g></svg>