<svg xmlns="http://www.w3.org/2000/svg" width="120" height="120.001" viewBox="0 0 120 120.001"><path d="M89.9,6.063A155.8,155.8,0,0,1,109.019.241,9,9,0,0,1,111.084,0a8.939,8.939,0,0,1,8.677,10.982A155.823,155.823,0,0,1,113.939,30.1Zm7.437,76.844a4.278,4.278,0,0,1-.759,3.387L72.861,118.271a4.278,4.278,0,0,1-7.459-4.006c.055-.153,4.684-13.112,3.6-22.049a32.47,32.47,0,0,0-2.38-8.831,28.245,28.245,0,0,1-4.509.5l-2.62,8.646a4.278,4.278,0,0,1-7.119,1.784L51.7,93.64A36.738,36.738,0,0,1,41.2,106.8c-8.351,6.213-24.833,6.7-29.687,6.7h0c-.52,0-.8-.006-.8-.006A4.281,4.281,0,0,1,6.514,109.3c-.044-2.141-.234-21.187,6.69-30.493A36.734,36.734,0,0,1,26.361,68.3l-.678-.678a4.277,4.277,0,0,1,1.785-7.119l8.639-2.618a28.178,28.178,0,0,1,.517-4.506A32.429,32.429,0,0,0,27.786,51a23.987,23.987,0,0,0-2.872-.16c-8.706,0-19.072,3.722-19.175,3.76a4.278,4.278,0,0,1-4.007-7.458L33.707,23.426a4.28,4.28,0,0,1,3.387-.759,60.238,60.238,0,0,1,7.536,2.48,67.188,67.188,0,0,1,7.557,3.468,106.8,106.8,0,0,1,29.157-19l29.047,29.046a106.8,106.8,0,0,1-19,29.157,67.153,67.153,0,0,1,3.468,7.558A60.191,60.191,0,0,1,97.335,82.907ZM45.222,87.166,32.832,74.775c-3.206,1.289-9.069,4.174-12.763,9.138-3.462,4.654-4.635,14.52-4.928,20.944,7.675-.335,16.68-1.749,20.947-4.924C41.026,96.259,43.925,90.378,45.222,87.166ZM87.919,55.8a16.773,16.773,0,1,0-11.861,4.913A16.663,16.663,0,0,0,87.919,55.8ZM76.058,35.726a8.218,8.218,0,1,0,5.81,2.407A8.165,8.165,0,0,0,76.058,35.726Z" transform="translate(-0.002)" fill="#6665e7"/></svg>