<svg xmlns="http://www.w3.org/2000/svg" width="120" height="119.994" viewBox="0 0 120 119.994"><g transform="translate(-181 -1349)"><path d="M118.95,3.576a4.224,4.224,0,0,0-2.526-2.526,23.366,23.366,0,0,0-7.6-1.045A41.749,41.749,0,0,0,98.237,1.457c-4.576,1.2-10.012,3.8-16.157,7.73a70.471,70.471,0,0,0-11.854,9.545L55,33.962l-6.49-1.689,5.9-5.9a9.445,9.445,0,0,0,0-13.341l-.493-.493a9.435,9.435,0,0,0-13.341,0l-35.6,35.6a4.224,4.224,0,0,0,0,5.974l7.86,7.86a4.224,4.224,0,0,0,5.973,0L41.58,39.2l6.49,1.689-6.058,6.058a4.224,4.224,0,0,0-.983,1.543L36.9,59.851,29.509,67.24l-13.8,3.81a4.224,4.224,0,0,0-1.862,7.058l1.037,1.037a42,42,0,0,0-6.87,5.62C-2,94.778.165,115.151.262,116.013a4.224,4.224,0,0,0,3.726,3.726A55.625,55.625,0,0,0,9.655,120h0c8.012,0,18.954-1.391,25.579-8.016a42.289,42.289,0,0,0,5.627-6.863l1.031,1.031a4.224,4.224,0,0,0,7.058-1.862l3.81-13.8L60.151,83.1,71.51,78.971a4.233,4.233,0,0,0,1.543-.983l6.059-6.059L80.8,78.42,58.027,101.194a4.224,4.224,0,0,0,0,5.974l7.861,7.86a4.224,4.224,0,0,0,5.973,0l35.6-35.6a9.444,9.444,0,0,0,0-13.341l-.493-.493a9.435,9.435,0,0,0-13.341,0l-5.9,5.9L86.038,65l15.229-15.229a70.4,70.4,0,0,0,9.546-11.855c3.925-6.147,6.526-11.582,7.73-16.157C121.408,10.877,119.211,4.291,118.95,3.576ZM29.261,106.01c-4.823,4.823-14.354,5.543-19.607,5.542-.424,0-.828,0-1.208-.012-.124-6.106.742-16,5.544-20.8A31.447,31.447,0,0,1,21.042,85.3l13.671,13.67A31.79,31.79,0,0,1,29.261,106.01Z" transform="translate(180.999 1348.995)" fill="#6765e7"/><g transform="translate(241.327 1373)" fill="#6566e7" stroke="#fff" stroke-width="9"><circle cx="18" cy="18" r="18" stroke="none"/><circle cx="18" cy="18" r="13.5" fill="none"/></g></g></svg>