<svg xmlns="http://www.w3.org/2000/svg" viewBox="0 0 111.498 142.469"><defs><style>.a{fill:#7d5ae7;}</style></defs><g transform="translate(0 0)"><g transform="translate(0)"><g transform="translate(0)"><path class="a" d="M125.338,46.457a4.647,4.647,0,0,1-4.646-4.646V0H60.3a4.647,4.647,0,0,0-4.646,4.646V137.823a4.647,4.647,0,0,0,4.646,4.646H162.5a4.647,4.647,0,0,0,4.646-4.646V46.457ZM78.881,114.595a4.646,4.646,0,1,1,4.646-4.646A4.646,4.646,0,0,1,78.881,114.595Zm0-18.583a4.646,4.646,0,1,1,4.646-4.646A4.646,4.646,0,0,1,78.881,96.012Zm0-18.583a4.646,4.646,0,1,1,4.646-4.646A4.646,4.646,0,0,1,78.881,77.429Zm65.04,37.166H97.464a4.646,4.646,0,1,1,0-9.292h46.457a4.646,4.646,0,0,1,0,9.292Zm0-18.583H97.464a4.646,4.646,0,0,1,0-9.292h46.457a4.646,4.646,0,0,1,0,9.292Zm0-18.583H97.464a4.646,4.646,0,0,1,0-9.292h46.457a4.646,4.646,0,0,1,0,9.292Z" transform="translate(-55.652)"/></g></g><g transform="translate(74.332 2.722)"><path class="a" d="M322.783,9.783V44.227h34.444Z" transform="translate(-322.783 -9.783)"/></g></g></svg>