<svg xmlns="http://www.w3.org/2000/svg" xmlns:xlink="http://www.w3.org/1999/xlink" width="146.004" height="147.421" viewBox="0 0 146.004 147.421"><defs><filter id="a" x="47" y="26.259" width="58.502" height="79.016" filterUnits="userSpaceOnUse"><feOffset dy="3" input="SourceAlpha"/><feGaussianBlur stdDeviation="3" result="b"/><feFlood flood-opacity="0.161"/><feComposite operator="in" in2="b"/><feComposite in="SourceGraphic"/></filter><filter id="c" x="92.565" y="6.267" width="53.439" height="88.878" filterUnits="userSpaceOnUse"><feOffset dy="3" input="SourceAlpha"/><feGaussianBlur stdDeviation="3" result="d"/><feFlood flood-opacity="0.161"/><feComposite operator="in" in2="d"/><feComposite in="SourceGraphic"/></filter></defs><g transform="translate(-90.921 -40.317)"><g transform="translate(146.905 52.583)"><g transform="translate(0.016 19.993)"><g transform="matrix(1, 0, 0, 1, -56, -32.26)" filter="url(#a)"><path d="M40.518,157.261V126.368c-.876.081-1.742.218-2.623.258H12.673a2.532,2.532,0,0,0-2.531,2.531v2.531H2.547A2.532,2.532,0,0,0,.016,134.22v15.188a2.532,2.532,0,0,0,2.531,2.531h7.594v2.531A2.532,2.532,0,0,0,12.673,157h1.534l10.176,27.126a5.035,5.035,0,0,0,3.726,3.149,4.955,4.955,0,0,0,4.572-1.392l6.08-6.03A5.051,5.051,0,0,0,39.693,174l-8.5-17h6.723C38.792,157.043,39.652,157.18,40.518,157.261Z" transform="translate(55.98 -94.11)" fill="#7d5ae7"/></g></g><g transform="translate(45.581)"><g transform="matrix(1, 0, 0, 1, -101.56, -12.27)" filter="url(#c)"><path d="M323.04,1.225a1.8,1.8,0,0,0-.162-.238,2.5,2.5,0,0,0-1.058-.81c-.015-.005-.025-.025-.04-.03-.051-.015-.1.01-.147-.005A2.518,2.518,0,0,0,320.924,0a2.352,2.352,0,0,0-.491.1,2.806,2.806,0,0,0-.284.056,2.513,2.513,0,0,0-1.109.719c-.02.02-.051.025-.071.046a53.272,53.272,0,0,1-30.954,18.342V51.62A53.264,53.264,0,0,1,318.97,69.957c.02.025.056.035.081.066a2.457,2.457,0,0,0,.628.486c.076.046.137.111.213.147a2.6,2.6,0,0,0,1.033.223,2.644,2.644,0,0,0,.856-.147c.015-.005.025-.025.04-.03a2.461,2.461,0,0,0,1.058-.81c.061-.081.106-.152.162-.238a2.45,2.45,0,0,0,.415-1.306V2.531A2.45,2.45,0,0,0,323.04,1.225Z" transform="translate(-186.45 12.27)" fill="#7d5ae7"/></g></g></g><g transform="translate(83.587 40.317)"><path d="M83.016,0H17.291A9.985,9.985,0,0,0,7.334,9.957v127.5a9.988,9.988,0,0,0,9.957,9.961H83.016a9.982,9.982,0,0,0,9.957-9.957V9.957A9.985,9.985,0,0,0,83.016,0ZM39.64,7.177H60.667a1.207,1.207,0,0,1,0,2.413H39.64a1.207,1.207,0,0,1,0-2.413ZM50.153,142.442a4.981,4.981,0,1,1,4.979-4.983A4.978,4.978,0,0,1,50.153,142.442Zm35.891-13.449H14.263V15.791H86.044Z" transform="translate(0)" fill="#7d5ae7"/></g><path d="M17.636,6.724c-.258-2.838-2.267-4.9-4.781-4.9A4.752,4.752,0,0,0,8.784,4.172,4.58,4.58,0,0,0,4.81,1.826C2.3,1.826.287,3.885.03,6.723A5.05,5.05,0,0,0,.18,8.584a7.982,7.982,0,0,0,2.446,4.081L8.78,18.25l6.26-5.584a7.983,7.983,0,0,0,2.446-4.081A5.061,5.061,0,0,0,17.636,6.724Z" transform="translate(126.921 103.734)" fill="#7d5ae7"/><g transform="translate(104.921 66.416)"><g transform="translate(16.191)"><path d="M331.127,4.478h-3.642V.836a.836.836,0,0,0-1.672,0V4.478H322.17a.836.836,0,1,0,0,1.672h3.642V9.793a.836.836,0,1,0,1.672,0V6.151h3.642a.836.836,0,1,0,0-1.672Z" transform="translate(-321.334)" fill="#7d5ae7"/></g><g transform="translate(0 15.329)"><path d="M9.793,321.334A9.8,9.8,0,0,0,0,331.127a.836.836,0,0,0,.836.836H18.749a.836.836,0,0,0,.836-.836A9.8,9.8,0,0,0,9.793,321.334Z" transform="translate(0 -321.334)" fill="#7d5ae7"/></g><g transform="translate(4.478 3.583)"><path d="M85.648,64.267a5.314,5.314,0,1,0,5.314,5.314A5.32,5.32,0,0,0,85.648,64.267Z" transform="translate(-80.334 -64.267)" fill="#7d5ae7"/></g></g><g transform="translate(135.248 139.56)"><g transform="translate(2.006)"><path d="M20.172,14.268a4.064,4.064,0,0,0-3.2,1.567L10.03,12.283a4.064,4.064,0,0,0,.156-1.059A4.031,4.031,0,0,0,10,10.077L16.917,6.54a4.073,4.073,0,1,0-.833-2.451,4.046,4.046,0,0,0,.157,1.062L9.3,8.7a4.087,4.087,0,1,0,.06,4.969l6.913,3.536a4.04,4.04,0,0,0-.187,1.151,4.091,4.091,0,1,0,4.09-4.091Z" transform="translate(-2.006)" fill="#7b59e4"/></g></g><g transform="translate(107.921 93.053)"><path d="M16.3,39.612A7.9,7.9,0,0,0,13.12,37.34a11.331,11.331,0,0,0-4.386-.833A11.591,11.591,0,0,0,5.342,37a9.487,9.487,0,0,0-2.788,1.33A6.649,6.649,0,0,0,.692,40.323,4.643,4.643,0,0,0,0,42.745a4.73,4.73,0,0,0,.882,2.739,7.157,7.157,0,0,0,2.413,2.144,6.2,6.2,0,0,1-.254.741q-.146.351-.263.575a3.96,3.96,0,0,1-.317.5q-.2.273-.3.385l-.336.37q-.234.259-.3.336a.682.682,0,0,0-.078.088l-.068.083-.058.088q-.049.073-.044.092a.26.26,0,0,1-.019.1.129.129,0,0,0,0,.117v.01a.49.49,0,0,0,.171.283.382.382,0,0,0,.3.088,7.318,7.318,0,0,0,1.111-.214A10.654,10.654,0,0,0,7.32,48.905a13.335,13.335,0,0,0,1.413.078,11.328,11.328,0,0,0,4.386-.834A7.9,7.9,0,0,0,16.3,45.879a4.783,4.783,0,0,0,0-6.267Z" transform="translate(0)" fill="#7759e1"/></g></g></svg>