<svg xmlns="http://www.w3.org/2000/svg" viewBox="0 0 198.849 153.093"><defs><style>.a{fill:#7d5ae7;}.b{fill:#7c5ae7;stroke:#fff;stroke-width:5px;}.c{fill:#fff;}.d{stroke:none;}.e{fill:none;}</style></defs><g transform="translate(-33.637 -32.902)"><g transform="translate(84.348 32.902)"><path class="a" d="M88.562,117.424A30.47,30.47,0,0,0,97.269,138.8a28.9,28.9,0,0,0,41.925,0,30.435,30.435,0,0,0,8.663-21.378V87.371H114.3c-9.251,11.67-20.372,13.27-25.734,13.294Zm37.954-8.812a2.522,2.522,0,0,1,2.523,2.523,2.986,2.986,0,1,0,5.972,0,2.523,2.523,0,0,1,5.047,0,8.032,8.032,0,1,1-16.065,0,2.523,2.523,0,0,1,2.523-2.523Zm-27.543,0a2.522,2.522,0,0,1,2.523,2.523,2.986,2.986,0,0,0,5.971,0,2.523,2.523,0,1,1,5.046,0,8.031,8.031,0,0,1-16.063,0,2.522,2.522,0,0,1,2.523-2.523Zm0,0" transform="translate(-66.169 -65.293)"/><path class="a" d="M88.563,48.907v.237a27.788,27.788,0,0,0,20.006-9.214,13.4,13.4,0,0,1-8.187-14.758A29.888,29.888,0,0,0,88.563,48.907Zm0,0" transform="translate(-66.169 -18.812)"/><path class="a" d="M343.188,181.93a4.223,4.223,0,0,0,0-6.707Zm0,0" transform="translate(-256.453 -130.946)"/><path class="a" d="M185.6,0H162.9a8.516,8.516,0,1,0,0,17.032h42.065A19.682,19.682,0,0,0,185.6,0Zm0,0" transform="translate(-115.357)"/><path class="a" d="M63.089,181.485v-6.868a3.918,3.918,0,0,0-1.861,3.507A3.845,3.845,0,0,0,63.089,181.485Zm0,0" transform="translate(-45.742 -130.493)"/><path class="a" d="M19.564,369.457A19.752,19.752,0,0,0-.059,389.121v16.922H49.774V379.458l-15.137-10Zm0,0" transform="translate(0.059 -276.099)"/><path class="a" d="M243.333,369.457H232.978l-15.853,10.037v26.549h23.622a39.148,39.148,0,0,1,2.584-36.587Zm0,0" transform="translate(-162.245 -276.099)"/><path class="a" d="M179.37,331.871a34.2,34.2,0,0,1-29.648.627v5.123l14.441,9.391,15.207-9.426Zm0,0" transform="translate(-111.875 -248.011)"/><path class="a" d="M351.281,317.367a33.972,33.972,0,1,0,33.972,33.972A33.971,33.971,0,0,0,351.281,317.367Zm21.082,36.5a2.524,2.524,0,0,1-2.524,2.521h0a2.523,2.523,0,0,1-2.522-2.523l.008-8.888-14.2,13.745a2.525,2.525,0,0,1-3.518,0l-6.312-6.156-12.238,11.488a2.523,2.523,0,1,1-3.455-3.678l14-13.142a2.524,2.524,0,0,1,3.489.034l6.288,6.132,12.231-11.843-8.906.013h0a2.523,2.523,0,0,1,0-5.047h15.152a2.5,2.5,0,0,1,2.523,2.5Zm0,0" transform="translate(-237.114 -237.172)"/></g><g class="b" transform="translate(33.637 106.848)"><circle class="d" cx="39.573" cy="39.573" r="39.573"/><circle class="e" cx="39.573" cy="39.573" r="37.073"/></g><g transform="translate(55.561 128.772)"><path class="c" d="M25.561,0H9.742A9.753,9.753,0,0,0,0,9.742V25.561A9.753,9.753,0,0,0,9.742,35.3H25.561A9.754,9.754,0,0,0,35.3,25.561V9.742A9.753,9.753,0,0,0,25.561,0Zm6.611,25.561a6.618,6.618,0,0,1-6.61,6.61H9.742a6.617,6.617,0,0,1-6.61-6.61V9.742a6.618,6.618,0,0,1,6.61-6.61H25.561a6.618,6.618,0,0,1,6.61,6.61V25.561Z"/><path class="c" d="M50.065,40.97a9.1,9.1,0,1,0,9.1,9.1A9.107,9.107,0,0,0,50.065,40.97Zm0,15.061a5.964,5.964,0,1,1,5.964-5.964A5.971,5.971,0,0,1,50.065,56.031Z" transform="translate(-32.413 -32.415)"/><path class="c" d="M121.218,28.251a2.3,2.3,0,1,0,1.625.672A2.306,2.306,0,0,0,121.218,28.251Z" transform="translate(-94.088 -22.352)"/></g></g></svg>