<svg xmlns="http://www.w3.org/2000/svg" viewBox="0 0 120.01 139.295"><defs><style>.a{fill:#7f59e7;}</style></defs><g transform="translate(0 0)"><g transform="translate(0 0)"><path class="a" d="M138.364,305.637A136.4,136.4,0,0,1,114.892,294.3l-11.309,35.778-1.538,4.843-5.07-14.357c11.651-16.237-.883-17.006-3.048-17.035h-.114c-2.165.029-14.7.8-3.048,17.035l-5.07,14.357-1.538-4.843L72.847,294.3a136.4,136.4,0,0,1-23.472,11.337c-16.208,5.868-15.211,19.171-15.525,44.124H153.86C153.519,324.808,154.516,311.505,138.364,305.637Z" transform="translate(-33.85 -210.466)"/><path class="a" d="M185.781,83.81l6.58-6.58A23.144,23.144,0,1,0,206.832,91.7l-6.58,6.58A15.369,15.369,0,1,1,185.781,83.81Z" transform="translate(-125.335 -54.356)"/><path class="a" d="M172.56,86.835a39.017,39.017,0,0,0,6.267-47l-6.3,6.3a30.536,30.536,0,1,1-14.471-14.471l6.3-6.3a39.034,39.034,0,1,0,8.2,61.472Z" transform="translate(-85.394 -14.453)"/><path class="a" d="M225.062,37.117a7.585,7.585,0,0,0-2.136-.285,7.976,7.976,0,1,0,7.976,7.976,8.783,8.783,0,0,0-.285-2.136l22.247-22.247,3.589.484L267.706,9.657l-8.517-1.139L258.049,0,246.826,11.252l.484,3.589Z" transform="translate(-163.362 0)"/></g></g></svg>