<?xml version="1.0" encoding="UTF-8"?>
<svg width="20px" height="20px" viewBox="0 0 20 20" version="1.1" xmlns="http://www.w3.org/2000/svg" xmlns:xlink="http://www.w3.org/1999/xlink">
    <!-- Generator: Sketch 50.2 (55047) - http://www.bohemiancoding.com/sketch -->
    <title></title>
    <desc>Created with Sketch.</desc>
    <defs>
        <path d="M18.75,3.98046875 C19.0885434,3.98046875 19.3815092,4.10416543 19.6289062,4.3515625 C19.8763033,4.59895957 20,4.89192539 20,5.23046875 L20,18.3554688 C20,18.6940121 19.8763033,18.9869779 19.6289062,19.234375 C19.3815092,19.4817721 19.0885434,19.6054688 18.75,19.6054688 L1.25,19.6054688 C0.911456641,19.6054688 0.61849082,19.4817721 0.37109375,19.234375 C0.12369668,18.9869779 0,18.6940121 0,18.3554688 L0,5.23046875 C0,4.89192539 0.12369668,4.59895957 0.37109375,4.3515625 C0.61849082,4.10416543 0.911456641,3.98046875 1.25,3.98046875 L6.25,3.98046875 L6.25,2.76953125 C6.25,2.26171621 6.43228984,1.82226748 6.796875,1.45117188 C7.16146016,1.08007627 7.60416406,0.89453125 8.125,0.89453125 L11.875,0.89453125 C12.3958359,0.89453125 12.8385398,1.08007627 13.203125,1.45117188 C13.5677102,1.82226748 13.75,2.26171621 13.75,2.76953125 L13.75,3.98046875 L18.75,3.98046875 Z M7.5,2.76953125 L7.5,3.98046875 L12.5,3.98046875 L12.5,2.76953125 C12.5,2.60025957 12.4414068,2.45377666 12.3242188,2.33007812 C12.2070307,2.20637959 12.0572926,2.14453125 11.875,2.14453125 L8.125,2.14453125 C7.95572832,2.14453125 7.80924541,2.20637959 7.68554688,2.33007812 C7.56184834,2.45377666 7.5,2.60025957 7.5,2.76953125 Z M1.25,5.23046875 L1.25,9.625 L8.125,9.625 L8.125,8.98046875 C8.125,8.64192539 8.2454415,8.34895957 8.48632812,8.1015625 C8.72721475,7.85416543 9.02343574,7.73046875 9.375,7.73046875 L10.625,7.73046875 C10.9635434,7.73046875 11.2565092,7.85416543 11.5039062,8.1015625 C11.7513033,8.34895957 11.875,8.64192539 11.875,8.98046875 L11.875,9.625 L18.75,9.625 L18.75,5.23046875 L1.25,5.23046875 Z M10.625,12.125 L10.625,8.98046875 L9.375,8.98046875 L9.375,12.125 L10.625,12.125 Z M1.25,18.3554688 L18.75,18.3554688 L18.75,10.875 L11.875,10.875 L11.875,12.125 C11.875,12.4765643 11.7513033,12.7727853 11.5039062,13.0136719 C11.2565092,13.2545585 10.9635434,13.375 10.625,13.375 L9.375,13.375 C9.02343574,13.375 8.72721475,13.2545585 8.48632812,13.0136719 C8.2454415,12.7727853 8.125,12.4765643 8.125,12.125 L8.125,10.875 L1.25,10.875 L1.25,18.3554688 Z" id="path-1"></path>
    </defs>
    <g id="Page-1" stroke="none" stroke-width="1" fill="none" fill-rule="evenodd">
        <g id="bags">
            <g id="">
                <use fill="#000000" xlink:href="#path-1"></use>
                <use fill="#FFFFFF" xlink:href="#path-1"></use>
            </g>
        </g>
    </g>
</svg>