<?xml version="1.0" encoding="UTF-8"?>
<svg width="19px" height="20px" viewBox="0 0 19 20" version="1.1" xmlns="http://www.w3.org/2000/svg" xmlns:xlink="http://www.w3.org/1999/xlink">
    <!-- Generator: Sketch 50.2 (55047) - http://www.bohemiancoding.com/sketch -->
    <title></title>
    <desc>Created with Sketch.</desc>
    <defs>
        <path d="M12.5714436,11.1428478 C12.5714436,9.41181893 11.1596115,7.99998689 9.42858267,7.99998689 C7.69755382,7.99998689 6.28572178,9.41181893 6.28572178,11.1428478 C6.28572178,12.8738766 7.69755382,14.2857087 9.42858267,14.2857087 C11.1596115,14.2857087 12.5714436,12.8738766 12.5714436,11.1428478 Z M14.265642,11.1428478 C14.265642,13.8191903 12.1049251,15.9799071 9.42858267,15.9799071 C6.75224019,15.9799071 4.59152333,13.8191903 4.59152333,11.1428478 C4.59152333,8.4665053 6.75224019,6.30578844 9.42858267,6.30578844 C12.1049251,6.30578844 14.265642,8.4665053 14.265642,11.1428478 Z M15.5915364,6.10935963 C15.5915364,6.73547645 15.0881876,7.23882527 14.4620708,7.23882527 C13.835954,7.23882527 13.3326052,6.73547645 13.3326052,6.10935963 C13.3326052,5.48324282 13.835954,4.979894 14.4620708,4.979894 C15.0881876,4.979894 15.5915364,5.48324282 15.5915364,6.10935963 Z M9.42858267,3.40846356 C8.05358103,3.40846356 5.10714895,3.29797235 3.86719211,3.78904437 C3.4375041,3.96091957 3.11830729,4.16962518 2.78683368,4.50109879 C2.45536007,4.8325724 2.24665446,5.15176921 2.07477926,5.58145722 C1.58370725,6.82141405 1.69419845,9.76784614 1.69419845,11.1428478 C1.69419845,12.5178494 1.58370725,15.4642815 2.07477926,16.7042383 C2.24665446,17.1339263 2.45536007,17.4531232 2.78683368,17.7845968 C3.11830729,18.1160704 3.4375041,18.324776 3.86719211,18.4966512 C5.10714895,18.9877232 8.05358103,18.877232 9.42858267,18.877232 C10.8035843,18.877232 13.7500164,18.9877232 14.9899732,18.4966512 C15.4196612,18.324776 15.738858,18.1160704 16.0703317,17.7845968 C16.4018053,17.4531232 16.6105109,17.1339263 16.7823861,16.7042383 C17.2734581,15.4642815 17.1629669,12.5178494 17.1629669,11.1428478 C17.1629669,9.76784614 17.2734581,6.82141405 16.7823861,5.58145722 C16.6105109,5.15176921 16.4018053,4.8325724 16.0703317,4.50109879 C15.738858,4.16962518 15.4196612,3.96091957 14.9899732,3.78904437 C13.7500164,3.29797235 10.8035843,3.40846356 9.42858267,3.40846356 Z M18.8571653,11.1428478 C18.8571653,12.4441886 18.8694421,13.7332527 18.7957813,15.0345935 C18.7221205,16.5446399 18.3783701,17.8828112 17.2734581,18.9877232 C16.1685461,20.0926352 14.8303748,20.4363856 13.3203284,20.5100464 C12.0189875,20.5837072 10.7299235,20.5714304 9.42858267,20.5714304 C8.12724183,20.5714304 6.83817779,20.5837072 5.53683696,20.5100464 C4.02679051,20.4363856 2.68861928,20.0926352 1.58370725,18.9877232 C0.478795214,17.8828112 0.135044804,16.5446399 0.0613840017,15.0345935 C-0.0122768003,13.7332527 0,12.4441886 0,11.1428478 C0,9.84150694 -0.0122768003,8.5524429 0.0613840017,7.25110207 C0.135044804,5.74105562 0.478795214,4.40288438 1.58370725,3.29797235 C2.68861928,2.19306032 4.02679051,1.84930991 5.53683696,1.77564911 C6.83817779,1.70198831 8.12724183,1.71426511 9.42858267,1.71426511 C10.7299235,1.71426511 12.0189875,1.70198831 13.3203284,1.77564911 C14.8303748,1.84930991 16.1685461,2.19306032 17.2734581,3.29797235 C18.3783701,4.40288438 18.7221205,5.74105562 18.7957813,7.25110207 C18.8694421,8.5524429 18.8571653,9.84150694 18.8571653,11.1428478 Z" id="path-1"></path>
    </defs>
    <g id="Page-1" stroke="none" stroke-width="1" fill="none" fill-rule="evenodd">
        <g id="insta" transform="translate(0.000000, -1.000000)">
            <g id="">
                <use fill="#000000" xlink:href="#path-1"></use>
                <use fill="#FFFFFF" xlink:href="#path-1"></use>
            </g>
        </g>
    </g>
</svg>