<?xml version="1.0" encoding="UTF-8"?>
<svg width="20px" height="17px" viewBox="0 0 20 17" version="1.1" xmlns="http://www.w3.org/2000/svg" xmlns:xlink="http://www.w3.org/1999/xlink">
    <!-- Generator: Sketch 50.2 (55047) - http://www.bohemiancoding.com/sketch -->
    <title>Envelope Outlined - FontAwesome</title>
    <desc>Created with Sketch.</desc>
    <defs></defs>
    <g id="Page-1" stroke="none" stroke-width="1" fill="none" fill-rule="evenodd">
        <g id="Artboard" transform="translate(-5.000000, -6.000000)" fill="#FFFFFF">
            <path d="M23.5714507,20.6428567 L23.5714507,12.0714179 C23.3370754,12.3392754 23.0803787,12.5848114 22.8013605,12.8080259 C21.2053765,14.035706 19.5982317,15.2857075 18.0468906,16.5803519 C17.209836,17.2834777 16.1718883,18.1428537 15.0111726,18.1428537 L14.9888512,18.1428537 C13.8281355,18.1428537 12.7901879,17.2834777 11.9531333,16.5803519 C10.4017922,15.2857075 8.79464738,14.035706 7.19866334,12.8080259 C6.91964515,12.5848114 6.66294841,12.3392754 6.42857313,12.0714179 L6.42857313,20.6428567 C6.42857313,20.8325891 6.59598405,21 6.78571641,21 L23.2143074,21 C23.4040398,21 23.5714507,20.8325891 23.5714507,20.6428567 Z M23.5714507,8.91293202 C23.5714507,8.63391383 23.6384151,8.14284182 23.2143074,8.14284182 L6.78571641,8.14284182 C6.59598405,8.14284182 6.42857313,8.31025273 6.42857313,8.4999851 C6.42857313,9.77230804 7.0647346,10.8772201 8.06920009,11.6696317 C9.56473758,12.8415081 11.0602751,14.0245453 12.5446519,15.2075824 C13.1361704,15.6874937 14.2076003,16.7142806 14.9888512,16.7142806 L15.0111726,16.7142806 C15.7924236,16.7142806 16.8638534,15.6874937 17.455372,15.2075824 C18.9397488,14.0245453 20.4352863,12.8415081 21.9308238,11.6696317 C22.656271,11.1004346 23.5714507,9.86159386 23.5714507,8.91293202 Z M25.0000238,8.4999851 L25.0000238,20.6428567 C25.0000238,21.6250007 24.1964515,22.4285731 23.2143074,22.4285731 L6.78571641,22.4285731 C5.80357239,22.4285731 5,21.6250007 5,20.6428567 L5,8.4999851 C5,7.51784107 5.80357239,6.71426868 6.78571641,6.71426868 L23.2143074,6.71426868 C24.1964515,6.71426868 25.0000238,7.51784107 25.0000238,8.4999851 Z" id="Envelope-Outlined---FontAwesome"></path>
        </g>
    </g>
</svg>