<?xml version="1.0" encoding="UTF-8"?>
<svg width="22px" height="22px" viewBox="0 0 22 22" version="1.1" xmlns="http://www.w3.org/2000/svg" xmlns:xlink="http://www.w3.org/1999/xlink">
    <!-- Generator: Sketch 50.2 (55047) - http://www.bohemiancoding.com/sketch -->
    <title></title>
    <desc>Created with Sketch.</desc>
    <defs>
        <path d="M5.62890625,1.16992188 C6.02994992,1.72851842 6.47037521,2.36588184 6.95019531,3.08203125 C7.43001542,3.79818066 7.94921596,4.59309459 8.5078125,5.46679688 C8.65104238,5.69596469 8.71191417,5.95377461 8.69042969,6.24023438 C8.66894521,6.52669414 8.5651051,6.83463377 8.37890625,7.1640625 C8.30729131,7.30729238 8.18554773,7.53645676 8.01367188,7.8515625 C7.84179602,8.16666824 7.61979303,8.57486729 7.34765625,9.07617188 C7.648439,9.50586152 8.03157319,9.98567443 8.49707031,10.515625 C8.96256743,11.0455756 9.50325213,11.6184865 10.1191406,12.234375 C10.7493521,12.8645865 11.3258437,13.4124326 11.8486328,13.8779297 C12.3714219,14.3434268 12.8404927,14.726561 13.2558594,15.0273437 C13.742841,14.740884 14.1474593,14.5081389 14.4697266,14.3291016 C14.7919938,14.1500642 15.0247389,14.0247399 15.1679688,13.953125 C15.3398446,13.8528641 15.5152986,13.7776695 15.6943359,13.7275391 C15.8733733,13.6774086 16.0416659,13.6523438 16.1992188,13.6523438 C16.3281256,13.6523438 16.4462885,13.6666665 16.5537109,13.6953125 C16.6611333,13.7239585 16.7649735,13.7669268 16.8652344,13.8242188 C17.5097688,14.2109394 18.1901006,14.6442033 18.90625,15.1240234 C19.6223994,15.6038435 20.3886678,16.1302055 21.2050781,16.703125 C21.348308,16.8033859 21.4628902,16.9322909 21.5488281,17.0898438 C21.6347661,17.2473966 21.6920571,17.4192699 21.7207031,17.6054688 C21.7350261,17.8059906 21.713542,18.0100901 21.65625,18.2177734 C21.598958,18.4254568 21.4986986,18.6367177 21.3554688,18.8515625 C21.2981768,18.9518234 21.2122402,19.073567 21.0976562,19.2167969 C20.9830723,19.3600268 20.847006,19.5247387 20.6894531,19.7109375 C20.5462232,19.8971363 20.3600272,20.1083973 20.1308594,20.3447266 C19.9016916,20.5810559 19.6295589,20.8424465 19.3144531,21.1289062 C19.0136704,21.415366 18.737957,21.6302076 18.4873047,21.7734375 C18.2366524,21.9166674 18.0182301,21.9882812 17.8320312,21.9882812 L17.7890625,21.9882812 C17.0442671,21.9596353 16.263676,21.7985041 15.4472656,21.5048828 C14.6308553,21.2112616 13.7714889,20.7923204 12.8691406,20.2480469 C11.9667924,19.7037733 11.0214893,19.0234416 10.0332031,18.2070312 C9.04491693,17.3906209 8.01367725,16.4524793 6.93945312,15.3925781 C5.865229,14.318354 4.92350665,13.2871143 4.11425781,12.2988281 C3.30500897,11.3105419 2.62467724,10.3652389 2.07324219,9.46289062 C1.52180714,8.56054236 1.10286602,7.69759526 0.81640625,6.87402344 C0.529946484,6.05045161 0.372395977,5.27344115 0.34375,4.54296875 C0.34375,4.34244691 0.415363867,4.11686323 0.55859375,3.86621094 C0.701823633,3.61555864 0.916665234,3.33268387 1.203125,3.01757812 C1.48958477,2.70247238 1.74739469,2.43392038 1.9765625,2.21191406 C2.20573031,1.98990774 2.41341053,1.80729238 2.59960938,1.6640625 C2.77148523,1.53515561 2.93619713,1.41341203 3.09375,1.29882812 C3.25130287,1.18424422 3.38736922,1.0839848 3.50195312,0.998046875 C3.659506,0.883462969 3.82421789,0.801107021 3.99609375,0.750976562 C4.16796961,0.700846104 4.35416566,0.67578125 4.5546875,0.67578125 C4.78385531,0.67578125 4.98795483,0.715168877 5.16699219,0.793945312 C5.34602954,0.872721748 5.49999936,0.998046016 5.62890625,1.16992188 Z M4.25390625,2.05078125 C3.96744648,2.25130309 3.6881524,2.46972538 3.41601562,2.70605469 C3.14387885,2.94238399 2.87890754,3.18945184 2.62109375,3.44726562 C2.36327996,3.70507941 2.15918044,3.9270824 2.00878906,4.11328125 C1.85839769,4.2994801 1.76171896,4.45703061 1.71875,4.5859375 C1.74739598,5.23047197 1.8977851,5.9179651 2.16992188,6.6484375 C2.44205865,7.3789099 2.83593492,8.15592036 3.3515625,8.97949219 C3.86719008,9.80306401 4.5045535,10.6695918 5.26367188,11.5791016 C6.02279025,12.4886113 6.90364082,13.4446564 7.90625,14.4472656 C8.90885918,15.4498748 9.86490431,16.3307254 10.7744141,17.0898438 C11.6839238,17.8489621 12.5504516,18.4863255 13.3740234,19.0019531 C14.1975953,19.5175807 14.9781864,19.911457 15.7158203,20.1835938 C16.4534542,20.4557305 17.144528,20.613281 17.7890625,20.65625 C17.8893234,20.613281 18.0325512,20.5130216 18.21875,20.3554688 C18.4049488,20.1979159 18.6269518,19.9902357 18.8847656,19.7324219 C19.1425794,19.4746081 19.3860666,19.2060561 19.6152344,18.9267578 C19.8444022,18.6474595 20.0664052,18.3645848 20.28125,18.078125 C20.324219,18.020833 20.3528645,17.9671226 20.3671875,17.9169922 C20.3815105,17.8668617 20.3815105,17.8203127 20.3671875,17.7773438 C19.5364542,17.1901012 18.7737665,16.66732 18.0791016,16.2089844 C17.3844366,15.7506487 16.7578153,15.3424497 16.1992188,14.984375 C16.1419268,14.984375 16.0774743,14.9951171 16.0058594,15.0166016 C15.9342444,15.038086 15.8554692,15.0703123 15.7695312,15.1132812 C15.6549473,15.1848962 15.4401057,15.3066398 15.125,15.4785156 C14.8098943,15.6503915 14.4016952,15.8723945 13.9003906,16.1445312 L13.1914062,16.5742188 L12.4824219,16.1015625 C12.0240862,15.7864568 11.5192085,15.3818384 10.9677734,14.8876953 C10.4163384,14.3935522 9.81120121,13.8170606 9.15234375,13.1582031 C8.50780928,12.4993457 7.94205973,11.8942085 7.45507812,11.3427734 C6.96809652,10.7913384 6.56705887,10.2864606 6.25195312,9.828125 L5.73632812,9.16210938 L6.16601562,8.41015625 C6.4381524,7.90885166 6.66015539,7.50423331 6.83203125,7.19628906 C7.00390711,6.88834481 7.12565068,6.66992252 7.19726562,6.54101562 C7.24023459,6.4550777 7.27246083,6.37630244 7.29394531,6.3046875 C7.31542979,6.23307256 7.32617187,6.16862008 7.32617187,6.11132812 C6.82486729,5.32356377 6.34863507,4.58594094 5.89746094,3.8984375 C5.44628681,3.21093406 5.01302291,2.56640926 4.59765625,1.96484375 L4.5546875,1.96484375 C4.49739555,1.96484375 4.44368515,1.97200514 4.39355469,1.98632812 C4.34342423,2.00065111 4.29687521,2.02213527 4.25390625,2.05078125 Z" id="path-1"></path>
    </defs>
    <g id="Page-1" stroke="none" stroke-width="1" fill="none" fill-rule="evenodd">
        <g id="phone">
            <g id="">
                <use fill="#000000" xlink:href="#path-1"></use>
                <use fill="#FFFFFF" xlink:href="#path-1"></use>
            </g>
        </g>
    </g>
</svg>