<svg xmlns="http://www.w3.org/2000/svg" xmlns:xlink="http://www.w3.org/1999/xlink" width="211.749" height="218.165" viewBox="0 0 211.749 218.165"><defs><filter id="a" x="73.873" y="41.74" width="77.938" height="108.297" filterUnits="userSpaceOnUse"><feOffset dy="3" input="SourceAlpha"/><feGaussianBlur stdDeviation="3" result="b"/><feFlood flood-opacity="0.161"/><feComposite operator="in" in2="b"/><feComposite in="SourceGraphic"/></filter><filter id="c" x="141.303" y="12.153" width="70.446" height="122.891" filterUnits="userSpaceOnUse"><feOffset dy="3" input="SourceAlpha"/><feGaussianBlur stdDeviation="3" result="d"/><feFlood flood-opacity="0.161"/><feComposite operator="in" in2="d"/><feComposite in="SourceGraphic"/></filter></defs><g transform="translate(-90.921 -40.317)"><g transform="translate(173.795 58.47)"><g transform="translate(0 29.587)"><g transform="matrix(1, 0, 0, 1, -82.87, -47.74)" filter="url(#a)"><path d="M59.954,172.086V126.368c-1.3.12-2.577.322-3.881.382H18.747A3.747,3.747,0,0,0,15,130.5v3.746H3.762a3.747,3.747,0,0,0-3.746,3.746v22.477a3.747,3.747,0,0,0,3.746,3.746H15v3.746a3.747,3.747,0,0,0,3.746,3.746h2.27l15.059,40.143a7.451,7.451,0,0,0,5.514,4.66,7.333,7.333,0,0,0,6.766-2.06l9-8.923a7.475,7.475,0,0,0,1.379-8.669L46.161,171.7h9.95C57.4,171.764,58.673,171.966,59.954,172.086Z" transform="translate(82.86 -78.63)" fill="#7d5ae7"/></g></g><g transform="translate(67.43)"><g transform="matrix(1, 0, 0, 1, -150.3, -18.15)" filter="url(#c)"><path d="M339.847,1.813a2.656,2.656,0,0,0-.24-.352,3.7,3.7,0,0,0-1.566-1.2c-.023-.007-.038-.037-.06-.045-.075-.022-.142.015-.217-.007A3.728,3.728,0,0,0,336.716,0a3.48,3.48,0,0,0-.727.15,4.151,4.151,0,0,0-.42.082A3.719,3.719,0,0,0,333.928,1.3c-.03.03-.075.037-.1.067a78.836,78.836,0,0,1-45.808,27.144V76.391a78.825,78.825,0,0,1,45.808,27.137c.03.037.082.052.12.1a3.637,3.637,0,0,0,.929.719c.112.067.2.165.315.217a3.855,3.855,0,0,0,1.528.33,3.913,3.913,0,0,0,1.266-.217c.022-.007.037-.037.06-.045a3.642,3.642,0,0,0,1.566-1.2c.09-.12.157-.225.24-.352a3.626,3.626,0,0,0,.614-1.933V3.746A3.626,3.626,0,0,0,339.847,1.813Z" transform="translate(-137.71 18.15)" fill="#7d5ae7"/></g></g></g><g transform="translate(90.921 40.317)"><path d="M119.333,0H22.069A14.776,14.776,0,0,0,7.334,14.735V203.423a14.782,14.782,0,0,0,14.735,14.742h97.264a14.772,14.772,0,0,0,14.736-14.735V14.735A14.776,14.776,0,0,0,119.333,0ZM55.143,10.622H86.26a1.786,1.786,0,0,1,0,3.572H55.143a1.786,1.786,0,0,1,0-3.572ZM70.7,210.8a7.371,7.371,0,1,1,7.368-7.374A7.367,7.367,0,0,1,70.7,210.8Zm53.114-19.9H17.588V23.369H123.815Z" transform="translate(-7.334)" fill="#7d5ae7"/></g><path d="M26.1,9.074c-.382-4.2-3.354-7.247-7.075-7.247A7.033,7.033,0,0,0,13,5.3,6.777,6.777,0,0,0,7.118,1.826C3.4,1.826.425,4.873.044,9.073a7.473,7.473,0,0,0,.222,2.754,11.813,11.813,0,0,0,3.619,6.04l9.107,8.265,9.264-8.264a11.814,11.814,0,0,0,3.619-6.04A7.489,7.489,0,0,0,26.1,9.074Z" transform="translate(144.197 135.043)" fill="#7d5ae7"/><g transform="translate(111.64 78.941)"><g transform="translate(23.96)"><path d="M335.826,6.627h-5.39V1.237a1.237,1.237,0,0,0-2.475,0v5.39h-5.39a1.237,1.237,0,1,0,0,2.475h5.39v5.39a1.237,1.237,0,0,0,2.475,0V9.1h5.39a1.237,1.237,0,1,0,0-2.475Z" transform="translate(-321.334)" fill="#7d5ae7"/></g><g transform="translate(0 22.686)"><path d="M14.492,321.334A14.508,14.508,0,0,0,0,335.826a1.238,1.238,0,0,0,1.237,1.238H27.746a1.238,1.238,0,0,0,1.237-1.238A14.508,14.508,0,0,0,14.492,321.334Z" transform="translate(0 -321.334)" fill="#7d5ae7"/></g><g transform="translate(6.627 5.302)"><path d="M88.2,64.267a7.865,7.865,0,1,0,7.865,7.865A7.874,7.874,0,0,0,88.2,64.267Z" transform="translate(-80.334 -64.267)" fill="#7d5ae7"/></g></g><g transform="translate(159.487 187.185)"><g transform="translate(0)"><path d="M28.89,21.115a6.014,6.014,0,0,0-4.728,2.32L13.88,18.177a6.015,6.015,0,0,0,.231-1.567,5.965,5.965,0,0,0-.275-1.7L24.072,9.679A6.027,6.027,0,1,0,22.84,6.051a5.988,5.988,0,0,0,.233,1.571L12.793,12.88a6.048,6.048,0,1,0,.089,7.353l10.231,5.233a5.979,5.979,0,0,0-.277,1.7,6.054,6.054,0,1,0,6.053-6.054Z" transform="translate(-2.006)" fill="#7b59e4"/></g></g><g transform="translate(116.079 172.386)"><path d="M24.119,41.1a11.693,11.693,0,0,0-4.7-3.361,16.769,16.769,0,0,0-6.491-1.233,17.153,17.153,0,0,0-5.02.728A14.04,14.04,0,0,0,3.78,39.2a9.84,9.84,0,0,0-2.755,2.95A6.871,6.871,0,0,0,0,45.739a7,7,0,0,0,1.305,4.054,10.592,10.592,0,0,0,3.57,3.174,9.167,9.167,0,0,1-.375,1.1q-.216.519-.389.851a5.861,5.861,0,0,1-.469.736q-.3.4-.447.57l-.5.548q-.346.383-.447.5a1.009,1.009,0,0,0-.115.13l-.1.122-.087.13q-.072.108-.065.137a.384.384,0,0,1-.029.144.191.191,0,0,0,.007.173v.014a.725.725,0,0,0,.253.418.565.565,0,0,0,.44.13A10.83,10.83,0,0,0,4.2,58.346a15.767,15.767,0,0,0,6.636-3.491,19.733,19.733,0,0,0,2.092.116,16.764,16.764,0,0,0,6.491-1.234,11.691,11.691,0,0,0,4.7-3.361,7.078,7.078,0,0,0,0-9.275Z" transform="translate(0 -36.507)" fill="#7759e1"/></g></g></svg>