<svg xmlns="http://www.w3.org/2000/svg" width="211.749" height="218.165"><defs><filter id="a" x="73.873" y="41.74" width="77.938" height="108.297" filterUnits="userSpaceOnUse"><feOffset dy="3"/><feGaussianBlur stdDeviation="3" result="b"/><feFlood flood-opacity=".161"/><feComposite operator="in" in2="b"/><feComposite in="SourceGraphic"/></filter><filter id="c" x="141.303" y="12.153" width="70.446" height="122.891" filterUnits="userSpaceOnUse"><feOffset dy="3"/><feGaussianBlur stdDeviation="3" result="d"/><feFlood flood-opacity=".161"/><feComposite operator="in" in2="d"/><feComposite in="SourceGraphic"/></filter></defs><g transform="translate(.004)" filter="url(#a)"><path d="M142.814 93.456V47.738c-1.3.12-2.577.322-3.881.382h-37.326a3.747 3.747 0 0 0-3.747 3.75v3.746H86.622a3.747 3.747 0 0 0-3.746 3.746v22.477a3.747 3.747 0 0 0 3.746 3.746H97.86v3.746a3.747 3.747 0 0 0 3.746 3.746h2.27l15.059 40.143a7.451 7.451 0 0 0 5.514 4.66 7.333 7.333 0 0 0 6.766-2.06l9-8.923a7.475 7.475 0 0 0 1.379-8.669L129.021 93.07h9.95c1.289.064 2.562.266 3.843.386z" fill="#7d5ae7"/></g><g transform="translate(.004 .003)" filter="url(#c)"><path d="M202.137 19.963a2.656 2.656 0 0 0-.24-.352 3.7 3.7 0 0 0-1.566-1.2c-.023-.007-.038-.037-.06-.045-.075-.022-.142.015-.217-.007a3.728 3.728 0 0 0-1.048-.209 3.48 3.48 0 0 0-.727.15 4.151 4.151 0 0 0-.42.082 3.719 3.719 0 0 0-1.641 1.068c-.03.03-.075.037-.1.067a78.836 78.836 0 0 1-45.808 27.144v47.88a78.825 78.825 0 0 1 45.808 27.137c.03.037.082.052.12.1a3.637 3.637 0 0 0 .929.719c.112.067.2.165.315.217a3.855 3.855 0 0 0 1.528.33 3.913 3.913 0 0 0 1.266-.217c.022-.007.037-.037.06-.045a3.642 3.642 0 0 0 1.566-1.2c.09-.12.157-.225.24-.352a3.626 3.626 0 0 0 .614-1.933V21.896a3.626 3.626 0 0 0-.619-1.933z" fill="#7d5ae7"/></g><path d="M111.999 0H14.735A14.776 14.776 0 0 0 0 14.735v188.688a14.782 14.782 0 0 0 14.735 14.742h97.264a14.772 14.772 0 0 0 14.736-14.735V14.735A14.776 14.776 0 0 0 111.999 0zm-64.19 10.622h31.117a1.786 1.786 0 0 1 0 3.572H47.809a1.786 1.786 0 0 1 0-3.572zM63.366 210.8a7.371 7.371 0 1 1 7.368-7.374 7.367 7.367 0 0 1-7.368 7.374zm53.114-19.9H10.254V23.369h106.227z" fill="#7d5ae7"/><path d="M79.376 103.8c-.382-4.2-3.354-7.247-7.075-7.247a7.033 7.033 0 0 0-6.025 3.473 6.777 6.777 0 0 0-5.882-3.474c-3.718 0-6.693 3.047-7.074 7.247a7.473 7.473 0 0 0 .222 2.754 11.813 11.813 0 0 0 3.619 6.04l9.107 8.265 9.264-8.264a11.814 11.814 0 0 0 3.619-6.04 7.489 7.489 0 0 0 .225-2.754zM59.171 45.251h-5.39v-5.39a1.237 1.237 0 0 0-2.475 0v5.39h-5.39a1.237 1.237 0 1 0 0 2.475h5.39v5.39a1.237 1.237 0 0 0 2.475 0v-5.392h5.39a1.237 1.237 0 1 0 0-2.475zM35.211 61.31a14.508 14.508 0 0 0-14.492 14.492 1.238 1.238 0 0 0 1.237 1.238h26.509a1.238 1.238 0 0 0 1.237-1.238A14.508 14.508 0 0 0 35.211 61.31zm.001-17.384a7.865 7.865 0 1 0 7.865 7.865 7.874 7.874 0 0 0-7.865-7.865z" fill="#7d5ae7"/><path d="M95.45 167.983a6.014 6.014 0 0 0-4.728 2.32l-10.282-5.258a6.015 6.015 0 0 0 .231-1.567 5.965 5.965 0 0 0-.275-1.7l10.236-5.231a6.027 6.027 0 1 0-1.232-3.628 5.988 5.988 0 0 0 .233 1.571l-10.28 5.258a6.048 6.048 0 1 0 .089 7.353l10.231 5.233a5.979 5.979 0 0 0-.277 1.7 6.054 6.054 0 1 0 6.053-6.054z" fill="#7b59e4"/><path d="M49.277 136.662a11.693 11.693 0 0 0-4.7-3.361 16.769 16.769 0 0 0-6.491-1.233 17.153 17.153 0 0 0-5.02.728 14.04 14.04 0 0 0-4.128 1.966 9.84 9.84 0 0 0-2.755 2.95 6.871 6.871 0 0 0-1.025 3.589 7 7 0 0 0 1.305 4.054 10.592 10.592 0 0 0 3.57 3.174 9.167 9.167 0 0 1-.375 1.1q-.216.519-.389.851a5.861 5.861 0 0 1-.469.736q-.3.4-.447.57l-.5.548q-.346.383-.447.5a1.009 1.009 0 0 0-.115.13l-.1.122-.087.13q-.072.108-.065.137a.384.384 0 0 1-.029.144.191.191 0 0 0 .007.173v.014a.725.725 0 0 0 .253.418.565.565 0 0 0 .44.13 10.83 10.83 0 0 0 1.648-.324 15.767 15.767 0 0 0 6.636-3.491 19.733 19.733 0 0 0 2.092.116 16.764 16.764 0 0 0 6.491-1.234 11.691 11.691 0 0 0 4.7-3.361 7.078 7.078 0 0 0 0-9.275z" fill="#7759e1"/></svg>