<svg xmlns="http://www.w3.org/2000/svg" viewBox="0 0 198.849 153.093"><defs><style>.a{fill:#7d5ae7}.c{fill:#fff}</style></defs><path class="a" d="M73.104 52.131a30.47 30.47 0 0 0 8.707 21.376 28.9 28.9 0 0 0 41.925 0 30.435 30.435 0 0 0 8.663-21.378V22.078H98.842c-9.251 11.67-20.372 13.27-25.734 13.294zm37.954-8.812a2.522 2.522 0 0 1 2.523 2.523 2.986 2.986 0 1 0 5.972 0 2.523 2.523 0 0 1 5.047 0 8.033 8.033 0 1 1-16.065 0 2.523 2.523 0 0 1 2.523-2.523zm-27.543 0a2.522 2.522 0 0 1 2.523 2.523 2.986 2.986 0 0 0 5.971 0 2.523 2.523 0 1 1 5.046 0 8.031 8.031 0 0 1-16.063 0 2.522 2.522 0 0 1 2.523-2.523zm-10.41-13.224v.237a27.788 27.788 0 0 0 20.006-9.214A13.4 13.4 0 0 1 84.924 6.36a29.888 29.888 0 0 0-11.819 23.735zm64.341 20.889a4.223 4.223 0 0 0 0-6.707zM120.954 0h-22.7a8.516 8.516 0 1 0 0 17.032h42.065A19.682 19.682 0 0 0 120.954 0zM68.058 50.992v-6.868a3.918 3.918 0 0 0-1.861 3.507 3.845 3.845 0 0 0 1.861 3.361zm2.276 42.366a19.752 19.752 0 0 0-19.623 19.664v16.922h49.833v-26.585l-15.137-10zm61.465 0h-10.355l-15.853 10.037v26.549h23.622a39.148 39.148 0 0 1 2.584-36.587zm0 0"/><path class="a" d="M118.206 83.86a34.2 34.2 0 0 1-29.648.627v5.123l14.441 9.391 15.207-9.426zm46.672-3.665a33.972 33.972 0 1 0 33.972 33.972 33.971 33.971 0 0 0-33.972-33.972zm21.082 36.5a2.524 2.524 0 0 1-2.524 2.521 2.523 2.523 0 0 1-2.522-2.523l.008-8.888-14.2 13.745a2.525 2.525 0 0 1-3.518 0l-6.312-6.156-12.238 11.488a2.523 2.523 0 1 1-3.455-3.678l14-13.142a2.524 2.524 0 0 1 3.489.034l6.288 6.132 12.231-11.843-8.906.013a2.523 2.523 0 0 1 0-5.047h15.152a2.5 2.5 0 0 1 2.523 2.5zm0 0"/><g transform="translate(0 73.946)" fill="#7c5ae7" stroke="#fff" stroke-width="5"><circle cx="39.573" cy="39.573" r="39.573" stroke="none"/><circle cx="39.573" cy="39.573" r="37.073" fill="none"/></g><path class="c" d="M47.485 95.87H31.666a9.753 9.753 0 0 0-9.742 9.742v15.819a9.753 9.753 0 0 0 9.742 9.739h15.819a9.754 9.754 0 0 0 9.739-9.739v-15.819a9.753 9.753 0 0 0-9.739-9.742zm6.611 25.561a6.618 6.618 0 0 1-6.61 6.61h-15.82a6.617 6.617 0 0 1-6.61-6.61v-15.819a6.618 6.618 0 0 1 6.61-6.61h15.819a6.618 6.618 0 0 1 6.61 6.61v15.819z"/><path class="c" d="M39.576 104.425a9.1 9.1 0 1 0 9.1 9.1 9.107 9.107 0 0 0-9.1-9.1zm0 15.061a5.964 5.964 0 1 1 5.964-5.964 5.971 5.971 0 0 1-5.964 5.964zm9.478-17.717a2.3 2.3 0 1 0 1.625.672 2.306 2.306 0 0 0-1.625-.672z"/></svg>