<svg xmlns="http://www.w3.org/2000/svg" viewBox="0 0 111.498 142.469"><defs><style>.a{fill:#7d5ae7}</style></defs><path class="a" d="M69.686 46.457a4.647 4.647 0 0 1-4.646-4.646V0H4.648A4.647 4.647 0 0 0 .002 4.646v133.177a4.647 4.647 0 0 0 4.646 4.646h102.2a4.647 4.647 0 0 0 4.646-4.646V46.457zm-46.457 68.138a4.646 4.646 0 1 1 4.646-4.646 4.646 4.646 0 0 1-4.646 4.646zm0-18.583a4.646 4.646 0 1 1 4.646-4.646 4.646 4.646 0 0 1-4.646 4.646zm0-18.583a4.646 4.646 0 1 1 4.646-4.646 4.646 4.646 0 0 1-4.646 4.646zm65.04 37.166H41.812a4.646 4.646 0 1 1 0-9.292h46.457a4.646 4.646 0 0 1 0 9.292zm0-18.583H41.812a4.646 4.646 0 0 1 0-9.292h46.457a4.646 4.646 0 0 1 0 9.292zm0-18.583H41.812a4.646 4.646 0 0 1 0-9.292h46.457a4.646 4.646 0 0 1 0 9.292z"/><path class="a" d="M74.332 2.722v34.444h34.444z"/></svg>