<svg xmlns="http://www.w3.org/2000/svg" width="57.45" height="83.395"><path d="M56.095 20.756a25.98 25.98 0 0 0-1.346-3.336C49.411 4.6 37.751 0 28.337 0 15.734 0 1.853 8.451-.005 25.87v3.559c0 .149.051 1.483.124 2.15C1.163 39.881 7.713 48.7 12.606 57c5.263 8.894 10.725 17.644 16.136 26.39 3.336-5.707 6.661-11.49 9.921-17.049.889-1.632 1.92-3.262 2.81-4.82.593-1.037 1.726-2.074 2.243-3.039 5.263-9.636 13.735-19.347 13.735-28.91v-3.923a29.592 29.592 0 0 0-1.356-4.893zM28.568 38.621a10.2 10.2 0 0 1-9.761-6.968 9.666 9.666 0 0 1-.274-2.6v-2.3c0-6.522 5.537-9.487 10.355-9.487a10.5 10.5 0 0 1 10.517 10.682 10.768 10.768 0 0 1-10.837 10.673z" fill="#6381ed"/></svg>