<svg xmlns="http://www.w3.org/2000/svg" width="57.45" height="83.395" viewBox="0 0 57.45 83.395"><path d="M123,20.756a25.98,25.98,0,0,0-1.346-3.336C116.316,4.6,104.656,0,95.242,0,82.639,0,68.758,8.451,66.9,25.87v3.559c0,.149.051,1.483.124,2.15C68.068,39.881,74.618,48.7,79.511,57c5.263,8.894,10.725,17.644,16.136,26.39,3.336-5.707,6.661-11.49,9.921-17.049.889-1.632,1.92-3.262,2.81-4.82.593-1.037,1.726-2.074,2.243-3.039,5.263-9.636,13.735-19.347,13.735-28.91V25.649A29.592,29.592,0,0,0,123,20.756ZM95.473,38.621a10.2,10.2,0,0,1-9.761-6.968,9.666,9.666,0,0,1-.274-2.6v-2.3c0-6.522,5.537-9.487,10.355-9.487A10.5,10.5,0,0,1,106.31,27.948,10.768,10.768,0,0,1,95.473,38.621Z" transform="translate(-66.905 0)" fill="#6381ed"/></svg>