<svg width="20" height="11" xmlns="http://www.w3.org/2000/svg"><defs><linearGradient x1="0%" y1="0%" x2="102%" y2="101%" id="a"><stop stop-color="#3023AE" offset="0%"/><stop stop-color="#C86DD7" offset="100%"/></linearGradient></defs><path d="M734.156 37.621a.68.68 0 0 1 .196-.469.677.677 0 0 1 .468-.175.68.68 0 0 1 .47.175l8.827 8.828 8.692-8.69a.64.64 0 0 1 .468-.196.64.64 0 0 1 .47.195.64.64 0 0 1 .194.469.64.64 0 0 1-.195.469l-9.16 9.16a.64.64 0 0 1-.469.195.64.64 0 0 1-.469-.195l-9.296-9.278a.639.639 0 0 1-.147-.224.728.728 0 0 1-.049-.264z" transform="translate(-734 -37)" fill="url(#a)" fill-rule="evenodd"/></svg>