<svg width="293" height="284" xmlns="http://www.w3.org/2000/svg"><g stroke="#FFF" stroke-width="8" fill="none"><path d="M146.468 119.696L34.267 7.483c-1.903-1.902-4.093-2.847-6.567-2.847-2.475 0-4.665.951-6.567 2.847L6.857 21.761C4.955 23.663 4 25.854 4 28.324c0 2.478.955 4.665 2.857 6.571L139.9 167.943c1.903 1.903 4.093 2.853 6.567 2.853 2.475 0 4.664-.95 6.567-2.853L286.077 34.895c1.906-1.903 2.851-4.086 2.851-6.564 0-2.478-.947-4.66-2.851-6.563L271.81 7.491c-1.903-1.902-4.094-2.851-6.57-2.851-2.472 0-4.661.948-6.564 2.851L146.468 119.696z"/><path d="M146.468 228.895L34.267 116.691c-1.903-1.903-4.093-2.851-6.567-2.851-2.475 0-4.665.947-6.567 2.851l-14.276 14.27C4.955 132.864 4 135.054 4 137.525c0 2.478.955 4.669 2.857 6.57L139.9 277.148c1.903 1.903 4.093 2.853 6.567 2.853 2.475 0 4.664-.95 6.567-2.853l133.043-133.05c1.906-1.902 2.851-4.09 2.851-6.57 0-2.472-.947-4.662-2.851-6.564l-14.267-14.271c-1.903-1.903-4.094-2.851-6.57-2.851-2.472 0-4.661.947-6.564 2.851L146.468 228.895z"/></g></svg>