<?xml version="1.0" encoding="UTF-8"?>
<svg width="293px" height="284px" viewBox="0 0 293 284" version="1.1" xmlns="http://www.w3.org/2000/svg" xmlns:xlink="http://www.w3.org/1999/xlink">
    <!-- Generator: Sketch 50.2 (55047) - http://www.bohemiancoding.com/sketch -->
    <title>arrow</title>
    <desc>Created with Sketch.</desc>
    <defs></defs>
    <g id="Page-1" stroke="none" stroke-width="1" fill="none" fill-rule="evenodd">
        <g id="Desktop-HD-Copy" transform="translate(-1538.000000, -467.000000)" fill-rule="nonzero" stroke="#FFFFFF" stroke-width="8">
            <g id="arrow" transform="translate(1684.500000, 609.000000) rotate(-90.000000) translate(-1684.500000, -609.000000) translate(1546.500000, 466.500000)">
                <path d="M160.304,142.468 L272.517,30.267 C274.419,28.364 275.364,26.174 275.364,23.7 C275.364,21.225 274.413,19.035 272.517,17.133 L258.239,2.857 C256.337,0.955 254.146,4.32009983e-12 251.676,4.32009983e-12 C249.198,4.32009983e-12 247.011,0.955 245.105,2.857 L112.057,135.9 C110.154,137.803 109.204,139.993 109.204,142.467 C109.204,144.942 110.154,147.131 112.057,149.034 L245.105,282.077 C247.008,283.983 249.191,284.928 251.669,284.928 C254.147,284.928 256.329,283.981 258.232,282.077 L272.509,267.81 C274.411,265.907 275.36,263.716 275.36,261.24 C275.36,258.768 274.412,256.579 272.509,254.676 L160.304,142.468 Z" id="Shape"></path>
                <path d="M51.1049238,142.468 L163.308952,30.267 C165.211987,28.364 166.160004,26.174 166.160004,23.7 C166.160004,21.225 165.212987,19.035 163.308952,17.133 L149.038694,2.857 C147.13566,0.955 144.94562,4.32009983e-12 142.474576,4.32009983e-12 C139.996531,4.32009983e-12 137.806491,0.955 135.904457,2.857 L2.85305157,135.9 C0.950017173,137.803 0,139.993 0,142.467 C0,144.942 0.950017173,147.131 2.85305157,149.034 L135.903457,282.077 C137.805491,283.983 139.993531,284.928 142.473575,284.928 C144.94462,284.928 147.13466,283.981 149.036694,282.077 L163.307952,267.81 C165.210987,265.907 166.159004,263.716 166.159004,261.24 C166.159004,258.768 165.211987,256.579 163.307952,254.676 L51.1049238,142.468 Z" id="Shape"></path>
            </g>
        </g>
    </g>
</svg>