<?xml version="1.0" encoding="UTF-8"?>
<svg width="20px" height="15px" viewBox="0 0 20 15" version="1.1" xmlns="http://www.w3.org/2000/svg" xmlns:xlink="http://www.w3.org/1999/xlink">
    <!-- Generator: Sketch 50.2 (55047) - http://www.bohemiancoding.com/sketch -->
    <title></title>
    <desc>Created with Sketch.</desc>
    <defs>
        <path d="M20.5145334,7.09150366 C20.5145334,7.39842367 20.3917654,7.70534368 20.170783,7.92632608 L9.61273467,18.4843744 C9.39175227,18.7053568 9.08483226,18.8281248 8.77791225,18.8281248 C8.47099224,18.8281248 8.16407223,18.7053568 7.94308983,18.4843744 L1.82924325,12.3705278 C1.60826085,12.1495454 1.48549284,11.8426254 1.48549284,11.5357054 C1.48549284,11.2287854 1.60826085,10.9218654 1.82924325,10.700883 L3.4988881,9.03123812 C3.71987051,8.81025571 4.02679051,8.68748771 4.33371052,8.68748771 C4.64063053,8.68748771 4.94755054,8.81025571 5.16853295,9.03123812 L8.77791225,12.6528942 L16.8314933,4.58703639 C17.0524757,4.36605398 17.3593957,4.24328598 17.6663157,4.24328598 C17.9732357,4.24328598 18.2801557,4.36605398 18.5011381,4.58703639 L20.170783,6.25668124 C20.3917654,6.47766364 20.5145334,6.78458365 20.5145334,7.09150366 Z" id="path-1"></path>
    </defs>
    <g id="Page-1" stroke="none" stroke-width="1" fill="none" fill-rule="evenodd">
        <g id="check" transform="translate(-1.000000, -4.000000)">
            <g id="">
                <use fill="#000000" xlink:href="#path-1"></use>
                <use fill="#FFFFFF" xlink:href="#path-1"></use>
            </g>
        </g>
    </g>
</svg>