<svg version="1.1" id="Слой_1" xmlns="http://www.w3.org/2000/svg" x="0" y="0" viewBox="0 0 2708.4 608.8" xml:space="preserve"><style>.st0{fill:none}.st1{fill:#76a62d}</style><path class="st0" d="M1419.3 338.7h160.6l-81.5-230.8z"/><path class="st0" d="M1419.3 338.7h160.6l-81.5-230.8z"/><path class="st1" d="M1547.4 67.2c-4.5-13.2-10.4-24.4-23.1-24.9h-31.8c-.9-.1-1.9-.2-2.9-.2h-10.2c-1 0-2 .1-2.9.2-10.6 1.6-15.9 12.2-19.9 24.6l-157 438.7c0 5.8 4.7 10.5 10.5 10.5h32.8c13 0 19.7-10.7 23.6-23.6l31.3-91.4c2.2-6.3 8.1-10.5 14.8-10.5h174.6c6.6 0 12.5 4.2 14.7 10.4l32.6 92.4c4 12.9 11 23.6 24.6 23.6h34.3c6.1 0 11-4.7 11-10.5l-157-439.3zm-128.1 271.5l79.2-230.8 81.5 230.8h-160.7zm587.1-295.2c-4.2-1.6-28.5-1.4-28.5-1.4-16.3.4-26.7 0-34 10.1-1.1 1.5-1.9 3.1-2.7 4.7l-97.3 210.5L1743.7 57c-.8-1.6-1.6-3.2-2.7-4.7-7.3-10.1-17.7-9.8-34-10.1 0 0-24.3-.2-28.5 1.4-10 3.8-3.4 16.1 1.3 26.2L1802.7 315c5.6 11.2 8.5 23.5 8.5 36v148c0 10 8.1 18.1 18.1 18.1h25.7c10 0 18.1-8.1 18.1-18.1V351.7c0-12.5 2.9-24.8 8.5-36l123.4-246c4.8-10.1 11.4-22.4 1.4-26.2zm469.8 229l-295-247.1c-2.2-1.8-5.4-1.7-7.4.4l-43.6 45.4 240.9 201.3-240.9 201.3 43.6 45.4c2 2.1 5.2 2.2 7.4.4l295-247.1z"/><path class="st1" d="M2688.2 274.5l-295-247.1c-2.2-1.8-5.4-1.7-7.4.4l-43.6 45.4 240.9 201.3-240.9 201.3 43.6 45.4c2 2.1 5.2 2.2 7.4.4l295-247.1zM381.4 41.8h-37.2c-7.8 0-14 6.3-14 14v445.5c0 8.1 6.6 14.8 14.8 14.8h35.8c8.1 0 14.8-6.6 14.8-14.8V55.9c-.1-7.8-6.4-14.1-14.2-14.1zM248.3 459.6H82.2V55.9c0-7.8-6.3-14-14-14H34.3c-7.8 0-14 6.3-14 14v440.7c0 9.2 7.4 16.6 16.6 16.6h211.5c8 0 14.4-6.4 14.4-14.4V474c-.1-7.9-6.6-14.4-14.5-14.4zM1250.9 68c-20.7-14-49.3-23.9-104-23.9H1041c-12.6 0-22.9 10.2-22.9 22.9v425.6c0 13 10.5 23.6 23.6 23.6h18.2c13 0 23.6-10.5 23.6-23.6V332.7h95.4c9.3 0 128.7-18.7 128.7-148.7-.1-56.6-29.1-97.2-56.7-116zm-93.7 215.7h-73.8V93.1h52.6c36.1 0 55 6.5 68.7 15.8 18.3 12.4 37.4 39.2 37.4 76.6.1 85.9-78.7 98.2-84.9 98.2zm-199.6 243c-2.6-1.9-5.5-3.3-8.6-4.5-24.6-9.4-60.5-34.3-80.5-47.2-15.5-10-13.1-17.9-11-21.2.4-.5.9-1.1 1.3-1.6l.1-.1c34-41.7 53.7-101.1 53.7-176.1 0-132.6-56.7-240.1-210.6-240.1-141.6 0-209.6 107.5-209.6 240.1S538.1 522.1 702 522.1c33.3 0 63.9-6.4 90.8-18.8h.1c7.9-3.4 15.6-3.3 26.2 4.4 76 56.3 113.7 77 140.7 77 13 0 10.7-40 10.7-40s-1.9-10.1-12.9-18zM559.6 277v-1c.2-90 33-185.5 142.6-185.5 124.2 0 143.2 95.5 143.3 185.5v1c0 107.1-34.7 188.5-143.3 188.5-124.7 0-142.6-98.2-142.6-188.5z"/></svg>