<svg width="488" height="488" xmlns="http://www.w3.org/2000/svg"><defs><linearGradient x1="0%" y1="50%" x2="100%" y2="50%" id="a"><stop stop-color="#4776E6" offset="0%"/><stop stop-color="#8E54E9" offset="100%"/></linearGradient></defs><g transform="rotate(90 244 244)" fill="none"><circle fill="url(#a)" cx="243.811" cy="243.811" r="243.811"/><path d="M477.946 311.989L369.499 145.983l-145.688-26.551-83.061 67.379-19.051 159.247 105.792 141.007c5.396.357 10.834.557 16.319.557 110.985 0 204.639-74.165 234.136-175.633z" fill="url(#a)" opacity=".37"/><path d="M243.811 84.54c-87.964 0-159.271 71.308-159.271 159.271 0 87.963 71.307 159.271 159.271 159.271 87.964 0 159.271-71.307 159.271-159.271 0-87.964-71.307-159.271-159.271-159.271zm9.925 247.773h-64.812l76.963-88.502-76.963-88.502h64.812l76.963 88.502-76.963 88.502z" fill="#FFF"/></g></svg>