<?xml version="1.0" encoding="UTF-8"?>
<svg width="69px" height="185px" viewBox="0 0 69 185" version="1.1" xmlns="http://www.w3.org/2000/svg" xmlns:xlink="http://www.w3.org/1999/xlink">
    <!-- Generator: Sketch 50.2 (55047) - http://www.bohemiancoding.com/sketch -->
    <title>Group 7</title>
    <desc>Created with Sketch.</desc>
    <defs></defs>
    <g id="Page-1" stroke="none" stroke-width="1" fill="none" fill-rule="evenodd">
        <g id="Desktop-HD-Copy" transform="translate(-923.000000, -206.000000)">
            <g id="Первый-экрна" transform="translate(-6.000000, 35.000000)">
                <g id="Тело-первого-экрана">
                    <g id="Стрелка" transform="translate(963.527059, 262.927059) rotate(90.000000) translate(-963.527059, -262.927059) translate(872.527059, 229.927059)">
                        <g id="Group-7">
                            <path d="M150.147968,32.5550302 L181.21071,6.958862 C181.737549,6.52473479 182,6.02513489 182,5.46074669 C182,4.89613037 181.737826,4.39653047 181.21071,3.96263138 L177.260109,0.705878794 C176.73327,0.271979703 176.126976,0.0541176471 175.442888,0.0541176471 C174.756862,0.0541176471 174.150568,0.271979703 173.624006,0.705878794 L136.789843,31.0566867 C136.263004,31.4908139 136,31.9904138 136,32.554802 C136,33.1194184 136.263004,33.6187901 136.789843,34.0529173 L173.623729,64.4037253 C174.150292,64.8385369 174.756032,65.0541176 175.442612,65.0541176 C176.126699,65.0541176 176.732993,64.8380806 177.259556,64.4037253 L181.210434,61.1490258 C181.737273,60.7148986 181.999723,60.2150706 181.999723,59.6502261 C181.999723,59.0862942 181.737549,58.5869224 181.210434,58.1527952 L150.147968,32.5550302 Z" id="Shape-Copy" stroke="#FFFFFF" stroke-width="3" fill-rule="nonzero" transform="translate(159.000000, 32.554118) rotate(180.000000) translate(-159.000000, -32.554118) "></path>
                            <g id="Круги" transform="translate(0.000000, 23.491765)" fill="#FFFFFF">
                                <ellipse id="Oval-2" cx="81" cy="8.71462976" rx="9" ry="8.13176471"></ellipse>
                                <ellipse id="Oval-2-Copy-2" cx="45" cy="9.19341176" rx="9" ry="8.13176471"></ellipse>
                                <ellipse id="Oval-2-Copy-3" cx="9" cy="9.19341176" rx="9" ry="8.13176471"></ellipse>
                                <ellipse id="Oval-2-Copy" cx="117" cy="8.71462976" rx="9" ry="8.13176471"></ellipse>
                            </g>
                        </g>
                    </g>
                </g>
            </g>
        </g>
    </g>
</svg>