<svg width="69" height="185" xmlns="http://www.w3.org/2000/svg"><g fill="none" fill-rule="evenodd"><path d="M34.974 168.78L9.378 137.715c-.434-.526-.934-.789-1.498-.789-.565 0-1.065.262-1.499.79l-3.256 3.95a2.778 2.778 0 0 0-.652 1.817c0 .686.218 1.292.652 1.82l30.35 36.833c.435.527.934.79 1.499.79.564 0 1.064-.263 1.498-.79l30.35-36.834c.435-.526.65-1.132.65-1.819 0-.684-.215-1.29-.65-1.816l-3.254-3.951c-.434-.527-.934-.79-1.499-.79-.564 0-1.063.263-1.497.79l-25.598 31.062z" stroke="#FFF" stroke-width="3"/><g transform="rotate(90 21.554 22.481)" fill="#FFF"><ellipse cx="81" cy="8.715" rx="9" ry="8.132"/><ellipse cx="45" cy="9.193" rx="9" ry="8.132"/><ellipse cx="9" cy="9.193" rx="9" ry="8.132"/><ellipse cx="117" cy="8.715" rx="9" ry="8.132"/></g></g></svg>